<svg width="280" height="56" viewBox="0 0 280 56" fill="none" xmlns="http://www.w3.org/2000/svg">
<path d="M0 0H280L268.41 28L280 56H0L11.304 28L0 0Z" fill="#076ED7"/>
<circle cx="69.2812" cy="27.7307" r="4" fill="white"/>
<mask id="path-3-outside-1_1603_23122" maskUnits="userSpaceOnUse" x="93.2812" y="15.7307" width="95" height="27" fill="black">
<rect fill="white" x="93.2812" y="15.7307" width="95" height="27"/>
<path d="M105.121 30.4107H115.601V38.4307H113.321V32.5907H107.301V38.5107H105.121V30.4107ZM114.021 19.7507L115.861 21.6307C112.921 22.7507 108.861 23.3707 105.321 23.6907C105.221 23.1107 104.901 22.1707 104.641 21.6307C108.041 21.2907 111.801 20.6307 114.021 19.7507ZM109.221 21.9907H111.501V31.6707H109.221V21.9907ZM103.861 25.5707H116.621V27.8707H103.861V25.5707ZM106.681 35.5307H114.261V37.6907H106.681V35.5307ZM98.9413 21.7307L100.281 20.0107C101.401 20.5707 103.141 21.4507 104.001 22.0107L102.581 23.9507C101.781 23.3507 100.081 22.3907 98.9413 21.7307ZM97.9613 27.2707L99.2613 25.4907C100.401 26.0307 102.181 26.8907 103.061 27.4507L101.721 29.4307C100.901 28.8707 99.1613 27.9107 97.9613 27.2707ZM98.2613 36.6707C99.3413 35.1707 100.881 32.6707 102.081 30.3707L103.841 31.9507C102.781 34.0707 101.501 36.3507 100.301 38.2907L98.2613 36.6707ZM120.841 32.6907H130.181V34.3907H120.841V32.6907ZM120.381 23.1707H130.381V24.9107H120.381V23.1707ZM124.361 21.7507H126.521V36.0907H124.361V21.7507ZM120.281 35.8707C122.761 35.6907 126.581 35.4107 130.181 35.0907L130.201 36.9107C126.801 37.2707 123.161 37.6307 120.561 37.8707L120.281 35.8707ZM122.821 29.4907V30.4107H128.101V29.4907H122.821ZM122.821 27.1907V28.0907H128.101V27.1907H122.821ZM120.901 25.6907H130.081V31.9107H120.901V25.6907ZM129.101 19.8507L130.161 21.6507C127.601 22.1707 123.961 22.4707 120.961 22.5307C120.881 22.0507 120.661 21.2907 120.441 20.8307C123.421 20.6907 126.901 20.3307 129.101 19.8507ZM130.381 24.2707H137.301V26.4707H130.381V24.2707ZM136.341 24.2707H138.641C138.641 24.2707 138.621 25.0507 138.621 25.3307C138.441 33.5707 138.281 36.4907 137.621 37.3907C137.181 38.0707 136.721 38.2907 136.061 38.4107C135.441 38.5307 134.501 38.5307 133.561 38.4907C133.501 37.8307 133.241 36.8507 132.861 36.2107C133.721 36.2907 134.481 36.2907 134.881 36.2907C135.181 36.2907 135.381 36.2307 135.561 35.9507C136.021 35.3507 136.181 32.5307 136.341 24.7907V24.2707ZM132.301 20.0907H134.601C134.581 28.6307 134.561 35.0507 129.941 38.6907C129.601 38.1107 128.821 37.2907 128.281 36.8907C132.501 33.6707 132.281 28.0707 132.301 20.0907ZM149.161 24.1507H153.261V26.2107H149.161V24.1507ZM152.601 24.1507H154.521C154.521 24.1507 154.501 24.8307 154.501 25.0907C154.381 33.5707 154.301 36.4707 153.821 37.2707C153.481 37.8507 153.141 38.0507 152.621 38.1507C152.181 38.2507 151.581 38.2507 150.921 38.2307C150.901 37.6707 150.701 36.8307 150.421 36.2907C150.921 36.3307 151.321 36.3307 151.601 36.3307C151.821 36.3307 151.961 36.2707 152.101 35.9907C152.421 35.4307 152.521 32.7707 152.601 24.6307V24.1507ZM150.081 19.7507H151.921C151.901 27.8507 151.701 34.2307 149.041 38.5507C148.761 38.2307 147.921 37.4907 147.501 37.1907C150.021 33.4707 150.141 27.1507 150.081 19.7507ZM142.861 22.2507H148.701V24.1707H142.861V22.2507ZM142.741 27.7507H148.721V29.6907H142.741V27.7507ZM143.201 24.6707L144.741 24.2507C145.101 25.2307 145.321 26.5507 145.321 27.3907L143.681 27.8507C143.701 27.0107 143.521 25.6907 143.201 24.6707ZM146.521 24.1707L148.321 24.5307C147.941 25.8707 147.521 27.3707 147.181 28.3707L145.721 28.0107C146.021 26.9707 146.381 25.3107 146.521 24.1707ZM144.621 28.3507H146.761V32.2107C146.761 34.3907 146.221 36.9907 144.161 38.5707C143.881 38.1307 143.241 37.4107 142.761 37.0707C144.441 35.9307 144.621 33.7907 144.621 32.1907V28.3507ZM142.981 31.3707H148.361V33.3107H142.981V31.3707ZM144.081 20.5507L146.061 19.9907C146.521 20.8307 147.021 21.9907 147.201 22.7307L145.121 23.3907C144.941 22.6507 144.501 21.4307 144.081 20.5507ZM157.301 28.5107H159.441V38.4907H157.301V28.5107ZM155.321 22.2307H161.201V24.1707H155.321V22.2307ZM155.241 27.7707H161.461V29.6907H155.241V27.7707ZM155.621 31.7107H161.201V33.6507H155.621V31.7107ZM155.741 24.6107L157.301 24.1907C157.641 25.1907 157.881 26.5107 157.901 27.3707L156.261 27.8307C156.281 26.9707 156.081 25.6307 155.741 24.6107ZM159.161 24.1507L160.961 24.5107C160.621 25.8507 160.281 27.3707 159.981 28.3707L158.441 27.9907C158.721 26.9707 159.041 25.2907 159.161 24.1507ZM156.421 20.4307L158.381 19.8307C158.861 20.7707 159.441 22.0307 159.641 22.8307L157.581 23.5107C157.401 22.7107 156.901 21.4107 156.421 20.4307ZM166.341 21.7307L167.681 19.9707C168.921 20.4707 170.621 21.3307 171.481 21.9907L170.081 23.9707C169.301 23.2707 167.641 22.3107 166.341 21.7307ZM165.161 27.1107L166.441 25.3107C167.681 25.7907 169.401 26.6307 170.261 27.2907L168.921 29.2707C168.141 28.6107 166.461 27.6707 165.161 27.1107ZM165.881 36.6707C166.941 35.1707 168.481 32.6707 169.681 30.3707L171.441 31.9507C170.381 34.0707 169.101 36.3507 167.901 38.2907L165.881 36.6707ZM176.041 19.7507H178.481V29.3107H176.041V19.7507ZM171.281 27.8107H183.321V30.0907H171.281V27.8107ZM172.081 22.7307H182.581V24.9907H172.081V22.7307ZM178.421 32.6907L180.381 31.7307C181.721 33.4907 183.181 35.8107 183.721 37.4307L181.561 38.5307C181.121 36.9507 179.741 34.5107 178.421 32.6907ZM172.461 38.0507L172.361 36.1507L173.561 35.3907L181.021 34.6107C181.001 35.2507 181.061 36.1907 181.141 36.7107C174.181 37.5707 173.141 37.7307 172.461 38.0507ZM172.461 38.0507C172.321 37.5507 171.921 36.3507 171.621 35.6707C172.101 35.5307 172.461 35.1107 172.921 34.3707C173.401 33.6707 174.881 30.8707 175.681 28.2507L178.301 29.0707C177.181 31.8707 175.521 34.7307 174.021 36.7107V36.7707C174.021 36.7707 172.461 37.6107 172.461 38.0507Z"/>
</mask>
<path d="M105.121 30.4107H115.601V38.4307H113.321V32.5907H107.301V38.5107H105.121V30.4107ZM114.021 19.7507L115.861 21.6307C112.921 22.7507 108.861 23.3707 105.321 23.6907C105.221 23.1107 104.901 22.1707 104.641 21.6307C108.041 21.2907 111.801 20.6307 114.021 19.7507ZM109.221 21.9907H111.501V31.6707H109.221V21.9907ZM103.861 25.5707H116.621V27.8707H103.861V25.5707ZM106.681 35.5307H114.261V37.6907H106.681V35.5307ZM98.9413 21.7307L100.281 20.0107C101.401 20.5707 103.141 21.4507 104.001 22.0107L102.581 23.9507C101.781 23.3507 100.081 22.3907 98.9413 21.7307ZM97.9613 27.2707L99.2613 25.4907C100.401 26.0307 102.181 26.8907 103.061 27.4507L101.721 29.4307C100.901 28.8707 99.1613 27.9107 97.9613 27.2707ZM98.2613 36.6707C99.3413 35.1707 100.881 32.6707 102.081 30.3707L103.841 31.9507C102.781 34.0707 101.501 36.3507 100.301 38.2907L98.2613 36.6707ZM120.841 32.6907H130.181V34.3907H120.841V32.6907ZM120.381 23.1707H130.381V24.9107H120.381V23.1707ZM124.361 21.7507H126.521V36.0907H124.361V21.7507ZM120.281 35.8707C122.761 35.6907 126.581 35.4107 130.181 35.0907L130.201 36.9107C126.801 37.2707 123.161 37.6307 120.561 37.8707L120.281 35.8707ZM122.821 29.4907V30.4107H128.101V29.4907H122.821ZM122.821 27.1907V28.0907H128.101V27.1907H122.821ZM120.901 25.6907H130.081V31.9107H120.901V25.6907ZM129.101 19.8507L130.161 21.6507C127.601 22.1707 123.961 22.4707 120.961 22.5307C120.881 22.0507 120.661 21.2907 120.441 20.8307C123.421 20.6907 126.901 20.3307 129.101 19.8507ZM130.381 24.2707H137.301V26.4707H130.381V24.2707ZM136.341 24.2707H138.641C138.641 24.2707 138.621 25.0507 138.621 25.3307C138.441 33.5707 138.281 36.4907 137.621 37.3907C137.181 38.0707 136.721 38.2907 136.061 38.4107C135.441 38.5307 134.501 38.5307 133.561 38.4907C133.501 37.8307 133.241 36.8507 132.861 36.2107C133.721 36.2907 134.481 36.2907 134.881 36.2907C135.181 36.2907 135.381 36.2307 135.561 35.9507C136.021 35.3507 136.181 32.5307 136.341 24.7907V24.2707ZM132.301 20.0907H134.601C134.581 28.6307 134.561 35.0507 129.941 38.6907C129.601 38.1107 128.821 37.2907 128.281 36.8907C132.501 33.6707 132.281 28.0707 132.301 20.0907ZM149.161 24.1507H153.261V26.2107H149.161V24.1507ZM152.601 24.1507H154.521C154.521 24.1507 154.501 24.8307 154.501 25.0907C154.381 33.5707 154.301 36.4707 153.821 37.2707C153.481 37.8507 153.141 38.0507 152.621 38.1507C152.181 38.2507 151.581 38.2507 150.921 38.2307C150.901 37.6707 150.701 36.8307 150.421 36.2907C150.921 36.3307 151.321 36.3307 151.601 36.3307C151.821 36.3307 151.961 36.2707 152.101 35.9907C152.421 35.4307 152.521 32.7707 152.601 24.6307V24.1507ZM150.081 19.7507H151.921C151.901 27.8507 151.701 34.2307 149.041 38.5507C148.761 38.2307 147.921 37.4907 147.501 37.1907C150.021 33.4707 150.141 27.1507 150.081 19.7507ZM142.861 22.2507H148.701V24.1707H142.861V22.2507ZM142.741 27.7507H148.721V29.6907H142.741V27.7507ZM143.201 24.6707L144.741 24.2507C145.101 25.2307 145.321 26.5507 145.321 27.3907L143.681 27.8507C143.701 27.0107 143.521 25.6907 143.201 24.6707ZM146.521 24.1707L148.321 24.5307C147.941 25.8707 147.521 27.3707 147.181 28.3707L145.721 28.0107C146.021 26.9707 146.381 25.3107 146.521 24.1707ZM144.621 28.3507H146.761V32.2107C146.761 34.3907 146.221 36.9907 144.161 38.5707C143.881 38.1307 143.241 37.4107 142.761 37.0707C144.441 35.9307 144.621 33.7907 144.621 32.1907V28.3507ZM142.981 31.3707H148.361V33.3107H142.981V31.3707ZM144.081 20.5507L146.061 19.9907C146.521 20.8307 147.021 21.9907 147.201 22.7307L145.121 23.3907C144.941 22.6507 144.501 21.4307 144.081 20.5507ZM157.301 28.5107H159.441V38.4907H157.301V28.5107ZM155.321 22.2307H161.201V24.1707H155.321V22.2307ZM155.241 27.7707H161.461V29.6907H155.241V27.7707ZM155.621 31.7107H161.201V33.6507H155.621V31.7107ZM155.741 24.6107L157.301 24.1907C157.641 25.1907 157.881 26.5107 157.901 27.3707L156.261 27.8307C156.281 26.9707 156.081 25.6307 155.741 24.6107ZM159.161 24.1507L160.961 24.5107C160.621 25.8507 160.281 27.3707 159.981 28.3707L158.441 27.9907C158.721 26.9707 159.041 25.2907 159.161 24.1507ZM156.421 20.4307L158.381 19.8307C158.861 20.7707 159.441 22.0307 159.641 22.8307L157.581 23.5107C157.401 22.7107 156.901 21.4107 156.421 20.4307ZM166.341 21.7307L167.681 19.9707C168.921 20.4707 170.621 21.3307 171.481 21.9907L170.081 23.9707C169.301 23.2707 167.641 22.3107 166.341 21.7307ZM165.161 27.1107L166.441 25.3107C167.681 25.7907 169.401 26.6307 170.261 27.2907L168.921 29.2707C168.141 28.6107 166.461 27.6707 165.161 27.1107ZM165.881 36.6707C166.941 35.1707 168.481 32.6707 169.681 30.3707L171.441 31.9507C170.381 34.0707 169.101 36.3507 167.901 38.2907L165.881 36.6707ZM176.041 19.7507H178.481V29.3107H176.041V19.7507ZM171.281 27.8107H183.321V30.0907H171.281V27.8107ZM172.081 22.7307H182.581V24.9907H172.081V22.7307ZM178.421 32.6907L180.381 31.7307C181.721 33.4907 183.181 35.8107 183.721 37.4307L181.561 38.5307C181.121 36.9507 179.741 34.5107 178.421 32.6907ZM172.461 38.0507L172.361 36.1507L173.561 35.3907L181.021 34.6107C181.001 35.2507 181.061 36.1907 181.141 36.7107C174.181 37.5707 173.141 37.7307 172.461 38.0507ZM172.461 38.0507C172.321 37.5507 171.921 36.3507 171.621 35.6707C172.101 35.5307 172.461 35.1107 172.921 34.3707C173.401 33.6707 174.881 30.8707 175.681 28.2507L178.301 29.0707C177.181 31.8707 175.521 34.7307 174.021 36.7107V36.7707C174.021 36.7707 172.461 37.6107 172.461 38.0507Z" fill="white"/>
<path d="M105.121 30.4107V26.4107C102.912 26.4107 101.121 28.2016 101.121 30.4107H105.121ZM115.601 30.4107H119.601C119.601 28.2016 117.81 26.4107 115.601 26.4107V30.4107ZM115.601 38.4307V42.4307C117.81 42.4307 119.601 40.6399 119.601 38.4307H115.601ZM113.321 38.4307H109.321C109.321 40.6399 111.112 42.4307 113.321 42.4307V38.4307ZM113.321 32.5907H117.321C117.321 30.3816 115.53 28.5907 113.321 28.5907V32.5907ZM107.301 32.5907V28.5907C105.092 28.5907 103.301 30.3816 103.301 32.5907H107.301ZM107.301 38.5107V42.5107C109.51 42.5107 111.301 40.7199 111.301 38.5107H107.301ZM105.121 38.5107H101.121C101.121 40.7199 102.912 42.5107 105.121 42.5107V38.5107ZM114.021 19.7507L116.88 16.9529C115.753 15.8014 114.045 15.4385 112.547 16.0322L114.021 19.7507ZM115.861 21.6307L117.285 25.3687C118.546 24.8885 119.479 23.8056 119.768 22.4883C120.057 21.171 119.663 19.7967 118.72 18.8329L115.861 21.6307ZM105.321 23.6907L101.379 24.3703C101.734 26.4243 103.606 27.8621 105.681 27.6745L105.321 23.6907ZM104.641 21.6307L104.243 17.6506C102.945 17.7804 101.791 18.5356 101.153 19.6738C100.514 20.812 100.471 22.1901 101.037 23.366L104.641 21.6307ZM109.221 21.9907V17.9907C107.012 17.9907 105.221 19.7816 105.221 21.9907H109.221ZM111.501 21.9907H115.501C115.501 19.7816 113.71 17.9907 111.501 17.9907V21.9907ZM111.501 31.6707V35.6707C113.71 35.6707 115.501 33.8799 115.501 31.6707H111.501ZM109.221 31.6707H105.221C105.221 33.8799 107.012 35.6707 109.221 35.6707V31.6707ZM103.861 25.5707V21.5707C101.652 21.5707 99.8613 23.3616 99.8613 25.5707H103.861ZM116.621 25.5707H120.621C120.621 23.3616 118.83 21.5707 116.621 21.5707V25.5707ZM116.621 27.8707V31.8707C118.83 31.8707 120.621 30.0799 120.621 27.8707H116.621ZM103.861 27.8707H99.8613C99.8613 30.0799 101.652 31.8707 103.861 31.8707V27.8707ZM106.681 35.5307V31.5307C104.472 31.5307 102.681 33.3216 102.681 35.5307H106.681ZM114.261 35.5307H118.261C118.261 33.3216 116.47 31.5307 114.261 31.5307V35.5307ZM114.261 37.6907V41.6907C116.47 41.6907 118.261 39.8999 118.261 37.6907H114.261ZM106.681 37.6907H102.681C102.681 39.8999 104.472 41.6907 106.681 41.6907V37.6907ZM98.9413 21.7307L95.7858 19.2724C95.0753 20.1845 94.7941 21.3594 95.0148 22.4943C95.2355 23.6292 95.9365 24.6131 96.9371 25.1924L98.9413 21.7307ZM100.281 20.0107L102.07 16.433C100.366 15.5808 98.2969 16.0492 97.1258 17.5524L100.281 20.0107ZM104.001 22.0107L107.229 24.3733C107.878 23.4866 108.134 22.372 107.936 21.2912C107.738 20.2103 107.105 19.2583 106.184 18.6587L104.001 22.0107ZM102.581 23.9507L100.181 27.1507C101.036 27.7921 102.113 28.0645 103.17 27.9071C104.227 27.7498 105.178 27.1758 105.809 26.3133L102.581 23.9507ZM97.9613 27.2707L94.731 24.9116C94.0476 25.8474 93.8035 27.0336 94.0621 28.1632C94.3207 29.2928 95.0564 30.2548 96.0789 30.8001L97.9613 27.2707ZM99.2613 25.4907L100.974 21.8758C99.2382 21.0537 97.1635 21.5809 96.031 23.1316L99.2613 25.4907ZM103.061 27.4507L106.374 29.6926C106.979 28.7978 107.197 27.6961 106.978 26.6382C106.758 25.5803 106.12 24.6561 105.209 24.0761L103.061 27.4507ZM101.721 29.4307L99.4654 32.7339C100.344 33.3339 101.425 33.5591 102.47 33.36C103.515 33.1608 104.438 32.5536 105.034 31.6726L101.721 29.4307ZM98.2613 36.6707L95.0151 34.3335C93.7671 36.0668 94.1011 38.4749 95.7737 39.8032L98.2613 36.6707ZM102.081 30.3707L104.753 27.3942C103.834 26.5687 102.584 26.2145 101.368 26.4347C100.152 26.655 99.1065 27.4249 98.5349 28.5204L102.081 30.3707ZM103.841 31.9507L107.419 33.7396C108.225 32.1284 107.854 30.1775 106.513 28.9742L103.841 31.9507ZM100.301 38.2907L97.8137 41.4232C98.7083 42.1335 99.8639 42.4276 100.989 42.2311C102.115 42.0346 103.102 41.3664 103.703 40.3949L100.301 38.2907ZM105.121 34.4107H115.601V26.4107H105.121V34.4107ZM111.601 30.4107V38.4307H119.601V30.4107H111.601ZM115.601 34.4307H113.321V42.4307H115.601V34.4307ZM117.321 38.4307V32.5907H109.321V38.4307H117.321ZM113.321 28.5907H107.301V36.5907H113.321V28.5907ZM103.301 32.5907V38.5107H111.301V32.5907H103.301ZM107.301 34.5107H105.121V42.5107H107.301V34.5107ZM109.121 38.5107V30.4107H101.121V38.5107H109.121ZM111.163 22.5486L113.003 24.4286L118.72 18.8329L116.88 16.9529L111.163 22.5486ZM114.437 17.8928C112.03 18.8098 108.421 19.3942 104.961 19.707L105.681 27.6745C109.301 27.3472 113.812 26.6916 117.285 25.3687L114.437 17.8928ZM109.263 23.0111C109.089 22.0042 108.637 20.7091 108.245 19.8955L101.037 23.366C101.072 23.4376 101.156 23.6396 101.247 23.9106C101.288 24.0352 101.322 24.1495 101.348 24.2434C101.375 24.3445 101.382 24.3849 101.379 24.3703L109.263 23.0111ZM105.039 25.6109C108.51 25.2638 112.733 24.5642 115.495 23.4692L112.547 16.0322C110.87 16.6972 107.572 17.3176 104.243 17.6506L105.039 25.6109ZM109.221 25.9907H111.501V17.9907H109.221V25.9907ZM107.501 21.9907V31.6707H115.501V21.9907H107.501ZM111.501 27.6707H109.221V35.6707H111.501V27.6707ZM113.221 31.6707V21.9907H105.221V31.6707H113.221ZM103.861 29.5707H116.621V21.5707H103.861V29.5707ZM112.621 25.5707V27.8707H120.621V25.5707H112.621ZM116.621 23.8707H103.861V31.8707H116.621V23.8707ZM107.861 27.8707V25.5707H99.8613V27.8707H107.861ZM106.681 39.5307H114.261V31.5307H106.681V39.5307ZM110.261 35.5307V37.6907H118.261V35.5307H110.261ZM114.261 33.6907H106.681V41.6907H114.261V33.6907ZM110.681 37.6907V35.5307H102.681V37.6907H110.681ZM102.097 24.189L103.437 22.469L97.1258 17.5524L95.7858 19.2724L102.097 24.189ZM98.4924 23.5884C99.6959 24.1902 101.194 24.956 101.819 25.3627L106.184 18.6587C105.089 17.9455 103.107 16.9512 102.07 16.433L98.4924 23.5884ZM100.774 19.6481L99.3535 21.5881L105.809 26.3133L107.229 24.3733L100.774 19.6481ZM104.981 20.7507C103.933 19.9647 101.919 18.8326 100.945 18.269L96.9371 25.1924C98.2436 25.9488 99.6293 26.7368 100.181 27.1507L104.981 20.7507ZM101.191 29.6299L102.491 27.8499L96.031 23.1316L94.731 24.9116L101.191 29.6299ZM97.5489 29.1057C98.7678 29.683 100.29 30.4285 100.914 30.8254L105.209 24.0761C104.072 23.3529 102.035 22.3784 100.974 21.8758L97.5489 29.1057ZM99.7486 25.2088L98.4086 27.1888L105.034 31.6726L106.374 29.6926L99.7486 25.2088ZM103.977 26.1275C102.944 25.4218 101.002 24.3593 99.8436 23.7413L96.0789 30.8001C97.3201 31.4621 98.8587 32.3196 99.4654 32.7339L103.977 26.1275ZM101.507 39.0079C102.715 37.3305 104.353 34.6638 105.628 32.221L98.5349 28.5204C97.4094 30.6776 95.9674 33.0109 95.0151 34.3335L101.507 39.0079ZM99.4091 33.3473L101.169 34.9273L106.513 28.9742L104.753 27.3942L99.4091 33.3473ZM100.264 30.1619C99.2599 32.1692 98.0391 34.3441 96.8994 36.1865L103.703 40.3949C104.963 38.3573 106.303 35.9722 107.419 33.7396L100.264 30.1619ZM102.789 35.1583L100.749 33.5383L95.7737 39.8032L97.8137 41.4232L102.789 35.1583ZM120.841 32.6907V28.6907C118.632 28.6907 116.841 30.4816 116.841 32.6907H120.841ZM130.181 32.6907H134.181C134.181 30.4816 132.39 28.6907 130.181 28.6907V32.6907ZM130.181 34.3907V38.3907C132.39 38.3907 134.181 36.5999 134.181 34.3907H130.181ZM120.841 34.3907H116.841C116.841 36.5999 118.632 38.3907 120.841 38.3907V34.3907ZM120.381 23.1707V19.1707C118.172 19.1707 116.381 20.9616 116.381 23.1707H120.381ZM130.381 23.1707H134.381C134.381 20.9616 132.59 19.1707 130.381 19.1707V23.1707ZM130.381 24.9107V28.9107C132.59 28.9107 134.381 27.1199 134.381 24.9107H130.381ZM120.381 24.9107H116.381C116.381 27.1199 118.172 28.9107 120.381 28.9107V24.9107ZM124.361 21.7507V17.7507C122.152 17.7507 120.361 19.5416 120.361 21.7507H124.361ZM126.521 21.7507H130.521C130.521 19.5416 128.73 17.7507 126.521 17.7507V21.7507ZM126.521 36.0907V40.0907C128.73 40.0907 130.521 38.2999 130.521 36.0907H126.521ZM124.361 36.0907H120.361C120.361 38.2999 122.152 40.0907 124.361 40.0907V36.0907ZM120.281 35.8707L119.992 31.8812C118.887 31.9614 117.866 32.4956 117.17 33.3567C116.474 34.2178 116.166 35.3289 116.32 36.4253L120.281 35.8707ZM130.181 35.0907L134.181 35.0468C134.169 33.932 133.692 32.873 132.865 32.1249C132.039 31.3769 130.938 31.0077 129.827 31.1064L130.181 35.0907ZM130.201 36.9107L130.622 40.8885C132.674 40.6713 134.224 38.9296 134.201 36.8668L130.201 36.9107ZM120.561 37.8707L116.6 38.4253C116.896 40.5407 118.802 42.0501 120.929 41.8538L120.561 37.8707ZM122.821 29.4907V25.4907C120.612 25.4907 118.821 27.2816 118.821 29.4907H122.821ZM122.821 30.4107H118.821C118.821 32.6199 120.612 34.4107 122.821 34.4107V30.4107ZM128.101 30.4107V34.4107C130.31 34.4107 132.101 32.6199 132.101 30.4107H128.101ZM128.101 29.4907H132.101C132.101 27.2816 130.31 25.4907 128.101 25.4907V29.4907ZM122.821 27.1907V23.1907C120.612 23.1907 118.821 24.9816 118.821 27.1907H122.821ZM122.821 28.0907H118.821C118.821 30.2999 120.612 32.0907 122.821 32.0907V28.0907ZM128.101 28.0907V32.0907C130.31 32.0907 132.101 30.2999 132.101 28.0907H128.101ZM128.101 27.1907H132.101C132.101 24.9816 130.31 23.1907 128.101 23.1907V27.1907ZM120.901 25.6907V21.6907C118.692 21.6907 116.901 23.4816 116.901 25.6907H120.901ZM130.081 25.6907H134.081C134.081 23.4816 132.29 21.6907 130.081 21.6907V25.6907ZM130.081 31.9107V35.9107C132.29 35.9107 134.081 34.1199 134.081 31.9107H130.081ZM120.901 31.9107H116.901C116.901 34.1199 118.692 35.9107 120.901 35.9107V31.9107ZM129.101 19.8507L132.548 17.821C131.671 16.3318 129.937 15.5743 128.249 15.9426L129.101 19.8507ZM130.161 21.6507L130.957 25.5707C132.224 25.3133 133.289 24.4594 133.815 23.2784C134.341 22.0975 134.264 20.735 133.608 19.621L130.161 21.6507ZM120.961 22.5307L117.016 23.1883C117.342 25.147 119.056 26.5696 121.041 26.5299L120.961 22.5307ZM120.441 20.8307L120.254 16.8351C118.915 16.898 117.696 17.6275 117.008 18.778C116.32 19.9286 116.254 21.3472 116.833 22.5565L120.441 20.8307ZM130.381 24.2707V20.2707C128.172 20.2707 126.381 22.0616 126.381 24.2707H130.381ZM137.301 24.2707H141.301C141.301 22.0616 139.51 20.2707 137.301 20.2707V24.2707ZM137.301 26.4707V30.4707C139.51 30.4707 141.301 28.6799 141.301 26.4707H137.301ZM130.381 26.4707H126.381C126.381 28.6799 128.172 30.4707 130.381 30.4707V26.4707ZM136.341 24.2707V20.2707C134.132 20.2707 132.341 22.0616 132.341 24.2707H136.341ZM138.641 24.2707L142.64 24.3732C142.668 23.295 142.259 22.2512 141.506 21.4788C140.753 20.7063 139.72 20.2707 138.641 20.2707V24.2707ZM138.621 25.3307L142.62 25.4181C142.621 25.389 142.621 25.3598 142.621 25.3307L138.621 25.3307ZM137.621 37.3907L134.396 35.0253C134.35 35.0881 134.305 35.1523 134.263 35.2177L137.621 37.3907ZM136.061 38.4107L135.346 34.4752C135.331 34.4779 135.316 34.4807 135.301 34.4836L136.061 38.4107ZM133.561 38.4907L129.578 38.8529C129.759 40.8485 131.389 42.4019 133.391 42.4871L133.561 38.4907ZM132.861 36.2107L133.232 32.2279C131.734 32.0886 130.284 32.8014 129.48 34.0729C128.676 35.3443 128.654 36.9594 129.422 38.2529L132.861 36.2107ZM135.561 35.9507L132.387 33.517C132.32 33.6046 132.256 33.6949 132.197 33.7877L135.561 35.9507ZM136.341 24.7907L140.34 24.8734C140.341 24.8458 140.341 24.8183 140.341 24.7907L136.341 24.7907ZM132.301 20.0907V16.0907C130.096 16.0907 128.307 17.8755 128.301 20.0807L132.301 20.0907ZM134.601 20.0907L138.601 20.1001C138.604 19.0376 138.183 18.0178 137.433 17.2656C136.683 16.5134 135.664 16.0907 134.601 16.0907V20.0907ZM129.941 38.6907L126.49 40.7136C127.075 41.7111 128.063 42.4067 129.199 42.6212C130.335 42.8358 131.509 42.5482 132.417 41.8327L129.941 38.6907ZM128.281 36.8907L125.855 33.7107C124.855 34.4735 124.272 35.6618 124.281 36.9192C124.29 38.1765 124.89 39.3565 125.9 40.1049L128.281 36.8907ZM120.841 36.6907H130.181V28.6907H120.841V36.6907ZM126.181 32.6907V34.3907H134.181V32.6907H126.181ZM130.181 30.3907H120.841V38.3907H130.181V30.3907ZM124.841 34.3907V32.6907H116.841V34.3907H124.841ZM120.381 27.1707H130.381V19.1707H120.381V27.1707ZM126.381 23.1707V24.9107H134.381V23.1707H126.381ZM130.381 20.9107H120.381V28.9107H130.381V20.9107ZM124.381 24.9107V23.1707H116.381V24.9107H124.381ZM124.361 25.7507H126.521V17.7507H124.361V25.7507ZM122.521 21.7507V36.0907H130.521V21.7507H122.521ZM126.521 32.0907H124.361V40.0907H126.521V32.0907ZM128.361 36.0907V21.7507H120.361V36.0907H128.361ZM120.571 39.8602C123.05 39.6803 126.899 39.3982 130.535 39.075L129.827 31.1064C126.263 31.4232 122.472 31.7012 119.992 31.8812L120.571 39.8602ZM126.181 35.1347L126.201 36.9547L134.201 36.8668L134.181 35.0468L126.181 35.1347ZM129.78 32.9329C126.396 33.2912 122.774 33.6494 120.194 33.8876L120.929 41.8538C123.548 41.612 127.206 41.2502 130.622 40.8885L129.78 32.9329ZM124.523 37.3161L124.243 35.3161L116.32 36.4253L116.6 38.4253L124.523 37.3161ZM118.821 29.4907V30.4107H126.821V29.4907H118.821ZM122.821 34.4107H128.101V26.4107H122.821V34.4107ZM132.101 30.4107V29.4907H124.101V30.4107H132.101ZM128.101 25.4907H122.821V33.4907H128.101V25.4907ZM118.821 27.1907V28.0907H126.821V27.1907H118.821ZM122.821 32.0907H128.101V24.0907H122.821V32.0907ZM132.101 28.0907V27.1907H124.101V28.0907H132.101ZM128.101 23.1907H122.821V31.1907H128.101V23.1907ZM120.901 29.6907H130.081V21.6907H120.901V29.6907ZM126.081 25.6907V31.9107H134.081V25.6907H126.081ZM130.081 27.9107H120.901V35.9107H130.081V27.9107ZM124.901 31.9107V25.6907H116.901V31.9107H124.901ZM125.654 21.8805L126.714 23.6805L133.608 19.621L132.548 17.821L125.654 21.8805ZM129.365 17.7308C127.128 18.1851 123.75 18.4741 120.881 18.5315L121.041 26.5299C124.172 26.4673 128.074 26.1563 130.957 25.5707L129.365 17.7308ZM124.907 21.8731C124.778 21.0977 124.461 19.9655 124.05 19.1049L116.833 22.5565C116.819 22.5289 116.827 22.5417 116.85 22.605C116.872 22.663 116.897 22.7386 116.923 22.8255C116.949 22.9118 116.972 22.9956 116.989 23.068C116.998 23.1036 117.005 23.1329 117.009 23.1554C117.014 23.1783 117.016 23.1892 117.016 23.1883L124.907 21.8731ZM120.629 24.8263C123.707 24.6817 127.439 24.3074 129.954 23.7588L128.249 15.9426C126.363 16.354 123.136 16.6997 120.254 16.8351L120.629 24.8263ZM130.381 28.2707H137.301V20.2707H130.381V28.2707ZM133.301 24.2707V26.4707H141.301V24.2707H133.301ZM137.301 22.4707H130.381V30.4707H137.301V22.4707ZM134.381 26.4707V24.2707H126.381V26.4707H134.381ZM136.341 28.2707H138.641V20.2707H136.341V28.2707ZM138.641 24.2707C134.643 24.1682 134.643 24.1682 134.643 24.1682C134.643 24.1682 134.643 24.1683 134.643 24.1683C134.643 24.1683 134.643 24.1684 134.643 24.1685C134.643 24.1686 134.643 24.1688 134.643 24.169C134.643 24.1695 134.643 24.1702 134.642 24.171C134.642 24.1727 134.642 24.1751 134.642 24.1782C134.642 24.1844 134.642 24.1934 134.642 24.2048C134.641 24.2276 134.64 24.2603 134.639 24.3002C134.637 24.3799 134.635 24.4896 134.632 24.6088C134.627 24.8286 134.621 25.1391 134.621 25.3307H142.621C142.621 25.2424 142.625 25.0228 142.63 24.7827C142.633 24.6718 142.635 24.569 142.637 24.4937C142.638 24.4562 142.639 24.4257 142.639 24.4047C142.639 24.3943 142.64 24.3862 142.64 24.3809C142.64 24.3782 142.64 24.3762 142.64 24.3749C142.64 24.3743 142.64 24.3738 142.64 24.3735C142.64 24.3734 142.64 24.3733 142.64 24.3732C142.64 24.3732 142.64 24.3732 142.64 24.3732C142.64 24.3732 142.64 24.3732 142.64 24.3732C142.64 24.3732 142.64 24.3732 138.641 24.2707ZM134.622 25.2434C134.532 29.3877 134.448 32.0628 134.313 33.8044C134.246 34.6783 134.174 35.1867 134.115 35.4667C134.042 35.8188 134.05 35.496 134.396 35.0253L140.847 39.7562C141.522 38.8354 141.798 37.8101 141.946 37.1041C142.109 36.326 142.212 35.4207 142.289 34.422C142.444 32.4187 142.531 29.5138 142.62 25.4181L134.622 25.2434ZM134.263 35.2177C134.293 35.1721 134.469 34.924 134.831 34.7018C135.167 34.4957 135.425 34.4607 135.346 34.4752L136.777 42.3462C137.357 42.2407 138.176 42.0358 139.016 41.5197C139.883 40.9875 140.51 40.2894 140.98 39.5637L134.263 35.2177ZM135.301 34.4836C135.311 34.4816 135.177 34.5039 134.838 34.5118C134.528 34.519 134.153 34.5123 133.731 34.4943L133.391 42.4871C134.309 42.5262 135.684 42.5579 136.821 42.3378L135.301 34.4836ZM137.545 38.1286C137.445 37.0299 137.055 35.4398 136.301 34.1686L129.422 38.2529C129.395 38.2081 129.399 38.2062 129.421 38.2608C129.442 38.3112 129.468 38.3836 129.494 38.4732C129.52 38.5619 129.542 38.6497 129.557 38.7269C129.564 38.7645 129.57 38.7956 129.573 38.8191C129.577 38.8431 129.578 38.8544 129.578 38.8529L137.545 38.1286ZM132.491 40.1935C133.55 40.292 134.469 40.2907 134.881 40.2907V32.2907C134.493 32.2907 133.893 32.2894 133.232 32.2279L132.491 40.1935ZM134.881 40.2907C135.246 40.2907 136.043 40.2664 136.921 39.8672C137.886 39.4286 138.523 38.7409 138.926 38.1137L132.197 33.7877C132.42 33.4405 132.866 32.9229 133.611 32.5842C134.269 32.2851 134.817 32.2907 134.881 32.2907V40.2907ZM138.736 38.3844C139.506 37.3795 139.714 36.1936 139.795 35.7317C139.914 35.0521 139.993 34.2351 140.055 33.3166C140.179 31.4622 140.261 28.7319 140.34 24.8734L132.342 24.708C132.262 28.5895 132.183 31.1392 132.073 32.7799C132.017 33.6089 131.96 34.0931 131.915 34.3528C131.831 34.8303 131.846 34.2219 132.387 33.517L138.736 38.3844ZM140.341 24.7907V24.2707H132.341V24.7907H140.341ZM132.301 24.0907H134.601V16.0907H132.301V24.0907ZM130.601 20.0813C130.591 24.4678 130.568 27.8013 130.064 30.4928C129.587 33.0476 128.758 34.5303 127.466 35.5487L132.417 41.8327C135.744 39.2112 137.236 35.6638 137.928 31.9637C138.595 28.4001 138.592 24.2536 138.601 20.1001L130.601 20.0813ZM133.392 36.6678C132.732 35.5414 131.553 34.3362 130.662 33.6765L125.9 40.1049C125.892 40.0985 125.93 40.1272 126.011 40.2013C126.086 40.2707 126.173 40.3564 126.259 40.4493C126.346 40.5429 126.418 40.6272 126.469 40.692C126.526 40.7653 126.525 40.772 126.49 40.7136L133.392 36.6678ZM130.708 40.0707C133.892 37.6414 135.232 34.352 135.81 30.9447C136.355 27.7298 136.292 23.9025 136.301 20.1007L128.301 20.0807C128.291 24.2589 128.327 27.2216 127.923 29.6067C127.551 31.7994 126.891 32.9201 125.855 33.7107L130.708 40.0707ZM149.161 24.1507V20.1507C146.952 20.1507 145.161 21.9416 145.161 24.1507H149.161ZM153.261 24.1507H157.261C157.261 21.9416 155.47 20.1507 153.261 20.1507V24.1507ZM153.261 26.2107V30.2107C155.47 30.2107 157.261 28.4199 157.261 26.2107H153.261ZM149.161 26.2107H145.161C145.161 28.4199 146.952 30.2107 149.161 30.2107V26.2107ZM152.601 24.1507V20.1507C150.392 20.1507 148.601 21.9416 148.601 24.1507H152.601ZM154.521 24.1507L158.52 24.2683C158.551 23.1875 158.144 22.1399 157.391 21.3642C156.638 20.5884 155.603 20.1507 154.521 20.1507V24.1507ZM154.501 25.0907L158.501 25.1473C158.501 25.1284 158.501 25.1096 158.501 25.0907L154.501 25.0907ZM153.821 37.2707L150.391 35.2127C150.384 35.2244 150.377 35.2361 150.37 35.2478L153.821 37.2707ZM152.621 38.1507L151.866 34.2227C151.822 34.2311 151.778 34.2403 151.735 34.2502L152.621 38.1507ZM150.921 38.2307L146.924 38.3735C146.999 40.4789 148.694 42.1651 150.8 42.2289L150.921 38.2307ZM150.421 36.2907L150.74 32.3035C149.291 32.1875 147.893 32.867 147.089 34.0781C146.285 35.2893 146.201 36.8414 146.87 38.132L150.421 36.2907ZM152.101 35.9907L148.628 34.0062C148.592 34.0704 148.557 34.1357 148.524 34.2019L152.101 35.9907ZM152.601 24.6307L156.601 24.67C156.601 24.6569 156.601 24.6438 156.601 24.6307L152.601 24.6307ZM150.081 19.7507V15.7507C149.015 15.7507 147.992 16.1766 147.241 16.9338C146.49 17.6909 146.073 18.7167 146.081 19.7831L150.081 19.7507ZM151.921 19.7507L155.921 19.7606C155.924 18.698 155.504 17.6781 154.753 16.9258C154.003 16.1735 152.984 15.7507 151.921 15.7507V19.7507ZM149.041 38.5507L146.031 41.1847C146.868 42.1409 148.109 42.6427 149.375 42.5368C150.641 42.4309 151.781 41.7298 152.447 40.648L149.041 38.5507ZM147.501 37.1907L144.19 34.9473C142.972 36.7443 143.41 39.1841 145.176 40.4456L147.501 37.1907ZM142.861 22.2507V18.2507C140.652 18.2507 138.861 20.0416 138.861 22.2507H142.861ZM148.701 22.2507H152.701C152.701 20.0416 150.91 18.2507 148.701 18.2507V22.2507ZM148.701 24.1707V28.1707C150.91 28.1707 152.701 26.3799 152.701 24.1707H148.701ZM142.861 24.1707H138.861C138.861 26.3799 140.652 28.1707 142.861 28.1707V24.1707ZM142.741 27.7507V23.7507C140.532 23.7507 138.741 25.5416 138.741 27.7507H142.741ZM148.721 27.7507H152.721C152.721 25.5416 150.93 23.7507 148.721 23.7507V27.7507ZM148.721 29.6907V33.6907C150.93 33.6907 152.721 31.8999 152.721 29.6907H148.721ZM142.741 29.6907H138.741C138.741 31.8999 140.532 33.6907 142.741 33.6907V29.6907ZM143.201 24.6707L142.149 20.8117C141.1 21.0977 140.213 21.7982 139.691 22.7521C139.17 23.7059 139.059 24.8309 139.385 25.8681L143.201 24.6707ZM144.741 24.2507L148.496 22.8714C147.78 20.9225 145.692 19.8454 143.689 20.3917L144.741 24.2507ZM145.321 27.3907L146.402 31.2421C148.128 30.7578 149.321 29.1838 149.321 27.3907H145.321ZM143.681 27.8507L139.682 27.7555C139.652 29.0237 140.225 30.231 141.227 31.0093C142.229 31.7876 143.54 32.0447 144.762 31.7021L143.681 27.8507ZM146.521 24.1707L147.306 20.2484C146.214 20.0301 145.081 20.2765 144.179 20.9283C143.277 21.5801 142.687 22.5784 142.551 23.6831L146.521 24.1707ZM148.321 24.5307L152.17 25.622C152.474 24.5487 152.316 23.397 151.734 22.445C151.153 21.493 150.2 20.8272 149.106 20.6084L148.321 24.5307ZM147.181 28.3707L146.224 32.2544C148.239 32.7514 150.3 31.6238 150.968 29.6583L147.181 28.3707ZM145.721 28.0107L141.878 26.9021C141.576 27.9474 141.714 29.0705 142.258 30.0125C142.803 30.9544 143.707 31.6339 144.764 31.8944L145.721 28.0107ZM144.621 28.3507V24.3507C142.412 24.3507 140.621 26.1416 140.621 28.3507H144.621ZM146.761 28.3507H150.761C150.761 26.1416 148.97 24.3507 146.761 24.3507V28.3507ZM144.161 38.5707L140.787 40.7182C141.389 41.6645 142.361 42.3145 143.465 42.5097C144.57 42.7049 145.706 42.4273 146.596 41.7446L144.161 38.5707ZM142.761 37.0707L140.515 33.7608C139.43 34.4973 138.775 35.719 138.761 37.0305C138.748 38.342 139.379 39.5767 140.449 40.3348L142.761 37.0707ZM142.981 31.3707V27.3707C140.772 27.3707 138.981 29.1616 138.981 31.3707H142.981ZM148.361 31.3707H152.361C152.361 29.1616 150.57 27.3707 148.361 27.3707V31.3707ZM148.361 33.3107V37.3107C150.57 37.3107 152.361 35.5199 152.361 33.3107H148.361ZM142.981 33.3107H138.981C138.981 35.5199 140.772 37.3107 142.981 37.3107V33.3107ZM144.081 20.5507L142.993 16.7017C141.858 17.0226 140.923 17.8276 140.437 18.9017C139.951 19.9758 139.964 21.2096 140.471 22.2736L144.081 20.5507ZM146.061 19.9907L149.57 18.0695C148.674 16.4339 146.767 15.6342 144.973 16.1417L146.061 19.9907ZM147.201 22.7307L148.411 26.5434C150.415 25.9074 151.585 23.8284 151.088 21.7853L147.201 22.7307ZM145.121 23.3907L141.235 24.3361C141.497 25.4132 142.194 26.3333 143.16 26.8769C144.126 27.4204 145.274 27.5386 146.331 27.2034L145.121 23.3907ZM157.301 28.5107V24.5107C155.092 24.5107 153.301 26.3016 153.301 28.5107H157.301ZM159.441 28.5107H163.441C163.441 26.3016 161.65 24.5107 159.441 24.5107V28.5107ZM159.441 38.4907V42.4907C161.65 42.4907 163.441 40.6999 163.441 38.4907H159.441ZM157.301 38.4907H153.301C153.301 40.6999 155.092 42.4907 157.301 42.4907V38.4907ZM155.321 22.2307V18.2307C153.112 18.2307 151.321 20.0216 151.321 22.2307H155.321ZM161.201 22.2307H165.201C165.201 20.0216 163.41 18.2307 161.201 18.2307V22.2307ZM161.201 24.1707V28.1707C163.41 28.1707 165.201 26.3799 165.201 24.1707H161.201ZM155.321 24.1707H151.321C151.321 26.3799 153.112 28.1707 155.321 28.1707V24.1707ZM155.241 27.7707V23.7707C153.032 23.7707 151.241 25.5616 151.241 27.7707H155.241ZM161.461 27.7707H165.461C165.461 25.5616 163.67 23.7707 161.461 23.7707V27.7707ZM161.461 29.6907V33.6907C163.67 33.6907 165.461 31.8999 165.461 29.6907H161.461ZM155.241 29.6907H151.241C151.241 31.8999 153.032 33.6907 155.241 33.6907V29.6907ZM155.621 31.7107V27.7107C153.412 27.7107 151.621 29.5016 151.621 31.7107H155.621ZM161.201 31.7107H165.201C165.201 29.5016 163.41 27.7107 161.201 27.7107V31.7107ZM161.201 33.6507V37.6507C163.41 37.6507 165.201 35.8599 165.201 33.6507H161.201ZM155.621 33.6507H151.621C151.621 35.8599 153.412 37.6507 155.621 37.6507V33.6507ZM155.741 24.6107L154.701 20.7483C153.638 21.0346 152.739 21.7471 152.218 22.7175C151.696 23.688 151.598 24.8305 151.947 25.8756L155.741 24.6107ZM157.301 24.1907L161.088 22.9031C160.41 20.9067 158.298 19.7801 156.261 20.3282L157.301 24.1907ZM157.901 27.3707L158.982 31.2221C160.741 30.7285 161.943 29.1049 161.9 27.2777L157.901 27.3707ZM156.261 27.8307L152.262 27.7377C152.233 29.0055 152.806 30.2122 153.808 30.99C154.809 31.7678 156.121 32.0246 157.342 31.6821L156.261 27.8307ZM159.161 24.1507L159.946 20.2284C158.842 20.0077 157.697 20.2619 156.791 20.9287C155.885 21.5954 155.301 22.613 155.183 23.732L159.161 24.1507ZM160.961 24.5107L164.838 25.4945C165.108 24.4318 164.93 23.3051 164.345 22.3776C163.76 21.4502 162.821 20.8034 161.746 20.5884L160.961 24.5107ZM159.981 28.3707L159.023 32.2542C161.093 32.765 163.2 31.5623 163.813 29.5201L159.981 28.3707ZM158.441 27.9907L154.584 26.9318C154.298 27.9722 154.445 29.0839 154.991 30.0145C155.537 30.9451 156.436 31.6158 157.483 31.8742L158.441 27.9907ZM156.421 20.4307L155.25 16.6059C154.131 16.9487 153.217 17.765 152.751 18.8394C152.286 19.9139 152.314 21.1385 152.829 22.1902L156.421 20.4307ZM158.381 19.8307L161.944 18.0116C161.061 16.2835 159.066 15.4379 157.21 16.0059L158.381 19.8307ZM159.641 22.8307L160.895 26.6291C162.884 25.9725 164.03 23.8927 163.522 21.8606L159.641 22.8307ZM157.581 23.5107L153.679 24.3888C153.927 25.4899 154.628 26.435 155.61 26.9912C156.592 27.5474 157.763 27.6629 158.835 27.3091L157.581 23.5107ZM149.161 28.1507H153.261V20.1507H149.161V28.1507ZM149.261 24.1507V26.2107H157.261V24.1507H149.261ZM153.261 22.2107H149.161V30.2107H153.261V22.2107ZM153.161 26.2107V24.1507H145.161V26.2107H153.161ZM152.601 28.1507H154.521V20.1507H152.601V28.1507ZM154.521 24.1507C150.523 24.0331 150.523 24.0331 150.523 24.0332C150.523 24.0332 150.523 24.0332 150.523 24.0332C150.523 24.0333 150.523 24.0333 150.523 24.0334C150.523 24.0336 150.523 24.0337 150.523 24.034C150.523 24.0344 150.523 24.035 150.523 24.0358C150.523 24.0373 150.523 24.0395 150.523 24.0423C150.523 24.0479 150.522 24.0558 150.522 24.066C150.521 24.0862 150.521 24.1151 150.52 24.1505C150.518 24.221 150.515 24.3182 150.512 24.4245C150.508 24.6173 150.501 24.9026 150.501 25.0907H158.501C158.501 25.0188 158.505 24.8341 158.51 24.6219C158.512 24.5257 158.515 24.4367 158.517 24.3716C158.517 24.3391 158.518 24.3129 158.519 24.2949C158.519 24.2859 158.519 24.2791 158.519 24.2745C158.519 24.2723 158.519 24.2706 158.519 24.2695C158.52 24.269 158.52 24.2687 158.52 24.2684C158.52 24.2683 158.52 24.2683 158.52 24.2683C158.52 24.2682 158.52 24.2682 158.52 24.2683C158.52 24.2683 158.52 24.2683 158.52 24.2683C158.52 24.2683 158.52 24.2683 154.521 24.1507ZM150.502 25.0341C150.441 29.2996 150.392 32.0627 150.301 33.8594C150.256 34.7629 150.205 35.3117 150.157 35.6341C150.091 36.078 150.079 35.7338 150.391 35.2127L157.251 39.3287C157.804 38.4077 157.982 37.4009 158.07 36.811C158.175 36.0997 158.242 35.2435 158.291 34.262C158.391 32.2887 158.441 29.3619 158.501 25.1473L150.502 25.0341ZM150.37 35.2478C150.392 35.2113 150.577 34.9069 150.992 34.6158C151.416 34.3184 151.793 34.2366 151.866 34.2227L153.377 42.0787C153.969 41.9648 154.776 41.733 155.585 41.1656C156.386 40.6046 156.911 39.9101 157.272 39.2936L150.37 35.2478ZM151.735 34.2502C151.811 34.2328 151.85 34.2295 151.837 34.2309C151.826 34.2321 151.788 34.2356 151.715 34.2381C151.56 34.2435 151.349 34.2418 151.042 34.2325L150.8 42.2289C151.386 42.2466 152.492 42.2821 153.508 42.0512L151.735 34.2502ZM154.919 38.0879C154.88 36.9936 154.551 35.5646 153.972 34.4494L146.87 38.132C146.839 38.0726 146.836 38.0546 146.848 38.0896C146.859 38.12 146.874 38.1687 146.89 38.2299C146.905 38.2908 146.916 38.3454 146.922 38.385C146.929 38.4295 146.926 38.4251 146.924 38.3735L154.919 38.0879ZM150.102 40.278C150.772 40.3315 151.307 40.3307 151.601 40.3307V32.3307C151.336 32.3307 151.071 32.3299 150.74 32.3035L150.102 40.278ZM151.601 40.3307C152.05 40.3307 153.01 40.2775 154.001 39.6577C154.956 39.0608 155.444 38.2502 155.679 37.7796L148.524 34.2019C148.619 34.0112 148.966 33.3707 149.761 32.8737C150.593 32.354 151.372 32.3307 151.601 32.3307V40.3307ZM155.574 37.9753C156.105 37.0466 156.225 36.0069 156.274 35.6092C156.349 34.9952 156.399 34.2308 156.438 33.3242C156.516 31.4955 156.561 28.7306 156.601 24.67L148.601 24.5914C148.561 28.6708 148.517 31.3059 148.445 32.9822C148.409 33.8281 148.369 34.3424 148.333 34.6391C148.27 35.152 148.258 34.6548 148.628 34.0062L155.574 37.9753ZM156.601 24.6307V24.1507H148.601V24.6307H156.601ZM150.081 23.7507H151.921V15.7507H150.081V23.7507ZM147.921 19.7408C147.911 23.8096 147.853 27.2041 147.501 30.0826C147.149 32.9594 146.537 34.989 145.635 36.4534L152.447 40.648C154.206 37.7924 155.024 34.472 155.442 31.0539C155.86 27.6373 155.911 23.7918 155.921 19.7606L147.921 19.7408ZM152.052 35.9167C151.524 35.3139 150.437 34.3723 149.826 33.9358L145.176 40.4456C145.172 40.4429 145.186 40.4527 145.22 40.4792C145.252 40.5042 145.294 40.5373 145.344 40.5782C145.444 40.6605 145.56 40.7594 145.677 40.8626C145.795 40.9663 145.9 41.0623 145.979 41.1383C146.076 41.2313 146.08 41.2403 146.031 41.1847L152.052 35.9167ZM150.813 39.4341C152.612 36.7785 153.369 33.5039 153.733 30.3024C154.102 27.0585 154.111 23.3992 154.081 19.7183L146.081 19.7831C146.112 23.5023 146.091 26.7029 145.784 29.3991C145.473 32.1375 144.911 33.883 144.19 34.9473L150.813 39.4341ZM142.861 26.2507H148.701V18.2507H142.861V26.2507ZM144.701 22.2507V24.1707H152.701V22.2507H144.701ZM148.701 20.1707H142.861V28.1707H148.701V20.1707ZM146.861 24.1707V22.2507H138.861V24.1707H146.861ZM142.741 31.7507H148.721V23.7507H142.741V31.7507ZM144.721 27.7507V29.6907H152.721V27.7507H144.721ZM148.721 25.6907H142.741V33.6907H148.721V25.6907ZM146.741 29.6907V27.7507H138.741V29.6907H146.741ZM144.254 28.5298L145.794 28.1098L143.689 20.3917L142.149 20.8117L144.254 28.5298ZM140.987 25.63C141.067 25.8497 141.159 26.1897 141.229 26.5794C141.3 26.9772 141.321 27.2719 141.321 27.3907H149.321C149.321 26.0722 149.015 24.2857 148.496 22.8714L140.987 25.63ZM144.241 23.5393L142.601 23.9993L144.762 31.7021L146.402 31.2421L144.241 23.5393ZM147.68 27.9459C147.711 26.6386 147.46 24.8823 147.018 23.4734L139.385 25.8681C139.468 26.1348 139.552 26.5071 139.611 26.9087C139.672 27.321 139.685 27.6252 139.682 27.7555L147.68 27.9459ZM145.737 28.093L147.537 28.453L149.106 20.6084L147.306 20.2484L145.737 28.093ZM144.473 23.4394C144.077 24.8365 143.692 26.2068 143.394 27.0831L150.968 29.6583C151.35 28.5346 151.806 26.9049 152.17 25.622L144.473 23.4394ZM148.139 24.487L146.679 24.127L144.764 31.8944L146.224 32.2544L148.139 24.487ZM149.565 29.1194C149.913 27.9099 150.322 26.0407 150.491 24.6583L142.551 23.6831C142.441 24.5807 142.129 26.0315 141.878 26.9021L149.565 29.1194ZM144.621 32.3507H146.761V24.3507H144.621V32.3507ZM142.761 28.3507V32.2107H150.761V28.3507H142.761ZM142.761 32.2107C142.761 33.9542 142.3 34.9575 141.727 35.3968L146.596 41.7446C150.143 39.0239 150.761 34.8273 150.761 32.2107H142.761ZM147.536 36.4232C147.031 35.6292 146.05 34.4988 145.073 33.8066L140.449 40.3348C140.383 40.2883 140.375 40.275 140.425 40.3208C140.467 40.3598 140.525 40.4178 140.591 40.4897C140.656 40.561 140.715 40.6296 140.758 40.6849C140.808 40.7471 140.812 40.7587 140.787 40.7182L147.536 36.4232ZM145.007 40.3806C148.602 37.9412 148.621 33.6535 148.621 32.1907H140.621C140.621 32.8898 140.573 33.3662 140.48 33.687C140.404 33.9497 140.373 33.8571 140.515 33.7608L145.007 40.3806ZM148.621 32.1907V28.3507H140.621V32.1907H148.621ZM142.981 35.3707H148.361V27.3707H142.981V35.3707ZM144.361 31.3707V33.3107H152.361V31.3707H144.361ZM148.361 29.3107H142.981V37.3107H148.361V29.3107ZM146.981 33.3107V31.3707H138.981V33.3107H146.981ZM145.17 24.3997L147.15 23.8397L144.973 16.1417L142.993 16.7017L145.17 24.3997ZM142.553 21.912C142.925 22.5922 143.249 23.4084 143.315 23.6761L151.088 21.7853C150.793 20.573 150.117 19.0692 149.57 18.0695L142.553 21.912ZM145.991 18.918L143.911 19.578L146.331 27.2034L148.411 26.5434L145.991 18.918ZM149.008 22.4453C148.753 21.3991 148.212 19.9186 147.691 18.8278L140.471 22.2736C140.791 22.9429 141.129 23.9023 141.235 24.3361L149.008 22.4453ZM157.301 32.5107H159.441V24.5107H157.301V32.5107ZM155.441 28.5107V38.4907H163.441V28.5107H155.441ZM159.441 34.4907H157.301V42.4907H159.441V34.4907ZM161.301 38.4907V28.5107H153.301V38.4907H161.301ZM155.321 26.2307H161.201V18.2307H155.321V26.2307ZM157.201 22.2307V24.1707H165.201V22.2307H157.201ZM161.201 20.1707H155.321V28.1707H161.201V20.1707ZM159.321 24.1707V22.2307H151.321V24.1707H159.321ZM155.241 31.7707H161.461V23.7707H155.241V31.7707ZM157.461 27.7707V29.6907H165.461V27.7707H157.461ZM161.461 25.6907H155.241V33.6907H161.461V25.6907ZM159.241 29.6907V27.7707H151.241V29.6907H159.241ZM155.621 35.7107H161.201V27.7107H155.621V35.7107ZM157.201 31.7107V33.6507H165.201V31.7107H157.201ZM161.201 29.6507H155.621V37.6507H161.201V29.6507ZM159.621 33.6507V31.7107H151.621V33.6507H159.621ZM156.781 28.4732L158.341 28.0532L156.261 20.3282L154.701 20.7483L156.781 28.4732ZM153.514 25.4783C153.739 26.1408 153.893 27.0577 153.902 27.4637L161.9 27.2777C161.87 25.9637 161.543 24.2406 161.088 22.9031L153.514 25.4783ZM156.821 23.5193L155.181 23.9793L157.342 31.6821L158.982 31.2221L156.821 23.5193ZM160.26 27.9237C160.292 26.5637 160.009 24.7647 159.536 23.3458L151.947 25.8756C152.033 26.1342 152.122 26.5031 152.185 26.9046C152.25 27.3179 152.265 27.6172 152.262 27.7377L160.26 27.9237ZM158.377 28.073L160.177 28.433L161.746 20.5884L159.946 20.2284L158.377 28.073ZM157.084 23.527C156.693 25.0671 156.419 26.3237 156.15 27.2213L163.813 29.5201C164.143 28.4177 164.549 26.6344 164.838 25.4945L157.084 23.527ZM160.94 24.4872L159.4 24.1072L157.483 31.8742L159.023 32.2542L160.94 24.4872ZM162.299 29.0496C162.636 27.819 162.997 25.9248 163.139 24.5695L155.183 23.732C155.086 24.6566 154.806 26.1225 154.584 26.9318L162.299 29.0496ZM157.592 24.2555L159.552 23.6555L157.21 16.0059L155.25 16.6059L157.592 24.2555ZM154.819 21.6498C155.03 22.0637 155.256 22.5342 155.444 22.9693C155.538 23.1858 155.614 23.3763 155.672 23.5344C155.701 23.6124 155.722 23.6756 155.738 23.7244C155.746 23.7484 155.751 23.7671 155.755 23.7806C155.757 23.7873 155.758 23.7924 155.759 23.7959C155.76 23.7994 155.761 23.801 155.761 23.8009L163.522 21.8606C163.198 20.5657 162.416 18.936 161.944 18.0116L154.819 21.6498ZM158.387 19.0323L156.327 19.7123L158.835 27.3091L160.895 26.6291L158.387 19.0323ZM161.484 22.6327C161.21 21.4153 160.569 19.805 160.013 18.6712L152.829 22.1902C153.234 23.0164 153.593 24.0061 153.679 24.3888L161.484 22.6327ZM166.341 21.7307L163.159 19.3076C162.418 20.2799 162.163 21.5372 162.466 22.7211C162.768 23.9051 163.596 24.8857 164.711 25.3836L166.341 21.7307ZM167.681 19.9707L169.177 16.2609C167.506 15.587 165.59 16.1139 164.499 17.5476L167.681 19.9707ZM171.481 21.9907L174.747 24.3C175.988 22.5459 175.621 20.1254 173.917 18.8175L171.481 21.9907ZM170.081 23.9707L167.41 26.9477C168.259 27.7101 169.394 28.0732 170.528 27.9457C171.663 27.8181 172.688 27.212 173.347 26.28L170.081 23.9707ZM165.161 27.1107L161.901 24.7926C161.201 25.7772 160.984 27.0256 161.309 28.189C161.635 29.3525 162.469 30.3064 163.579 30.7844L165.161 27.1107ZM166.441 25.3107L167.885 21.5804C166.179 20.9199 164.242 21.5014 163.181 22.9926L166.441 25.3107ZM170.261 27.2907L173.574 29.5326C174.76 27.7797 174.376 25.4061 172.697 24.1175L170.261 27.2907ZM168.921 29.2707L166.337 32.3243C167.204 33.0577 168.342 33.3882 169.467 33.2333C170.592 33.0785 171.598 32.453 172.234 31.5126L168.921 29.2707ZM165.881 36.6707L162.615 34.3623C161.394 36.0894 161.729 38.4681 163.379 39.7912L165.881 36.6707ZM169.681 30.3707L172.353 27.3942C171.434 26.5687 170.184 26.2145 168.968 26.4347C167.752 26.655 166.707 27.4249 166.135 28.5204L169.681 30.3707ZM171.441 31.9507L175.019 33.7396C175.825 32.1284 175.454 30.1775 174.113 28.9742L171.441 31.9507ZM167.901 38.2907L165.399 41.4112C166.292 42.1279 167.451 42.4271 168.58 42.2327C169.709 42.0384 170.7 41.3693 171.303 40.3949L167.901 38.2907ZM176.041 19.7507V15.7507C173.832 15.7507 172.041 17.5416 172.041 19.7507H176.041ZM178.481 19.7507H182.481C182.481 17.5416 180.69 15.7507 178.481 15.7507V19.7507ZM178.481 29.3107V33.3107C180.69 33.3107 182.481 31.5199 182.481 29.3107H178.481ZM176.041 29.3107H172.041C172.041 31.5199 173.832 33.3107 176.041 33.3107V29.3107ZM171.281 27.8107V23.8107C169.072 23.8107 167.281 25.6016 167.281 27.8107H171.281ZM183.321 27.8107H187.321C187.321 25.6016 185.53 23.8107 183.321 23.8107V27.8107ZM183.321 30.0907V34.0907C185.53 34.0907 187.321 32.2999 187.321 30.0907H183.321ZM171.281 30.0907H167.281C167.281 32.2999 169.072 34.0907 171.281 34.0907V30.0907ZM172.081 22.7307V18.7307C169.872 18.7307 168.081 20.5216 168.081 22.7307H172.081ZM182.581 22.7307H186.581C186.581 20.5216 184.79 18.7307 182.581 18.7307V22.7307ZM182.581 24.9907V28.9907C184.79 28.9907 186.581 27.1999 186.581 24.9907H182.581ZM172.081 24.9907H168.081C168.081 27.1999 169.872 28.9907 172.081 28.9907V24.9907ZM178.421 32.6907L176.662 29.0985C175.602 29.6178 174.825 30.579 174.54 31.7246C174.255 32.8703 174.49 34.0834 175.183 35.0392L178.421 32.6907ZM180.381 31.7307L183.564 29.3076C182.407 27.788 180.337 27.2984 178.622 28.1385L180.381 31.7307ZM183.721 37.4307L185.536 40.9951C187.3 40.0969 188.142 38.0436 187.516 36.1658L183.721 37.4307ZM181.561 38.5307L177.708 39.6038C178.03 40.7596 178.853 41.7099 179.952 42.1927C181.05 42.6754 182.307 42.6396 183.376 42.0951L181.561 38.5307ZM172.461 38.0507L168.467 38.2609C168.537 39.5912 169.264 40.7993 170.407 41.4832C171.551 42.1672 172.959 42.2372 174.164 41.67L172.461 38.0507ZM172.361 36.1507L170.221 32.7714C169 33.5449 168.291 34.9173 168.367 36.3609L172.361 36.1507ZM173.561 35.3907L173.145 31.4124C172.532 31.4765 171.942 31.6815 171.421 32.0114L173.561 35.3907ZM181.021 34.6107L185.019 34.7357C185.055 33.5812 184.591 32.4675 183.745 31.681C182.899 30.8946 181.754 30.5123 180.605 30.6324L181.021 34.6107ZM181.141 36.7107L181.632 40.6805C182.705 40.5479 183.679 39.9863 184.331 39.1238C184.984 38.2613 185.259 37.1714 185.095 36.1025L181.141 36.7107ZM172.461 38.0507L168.609 39.1292C169.148 41.054 171.025 42.2855 173.006 42.0135C174.986 41.7415 176.461 40.0495 176.461 38.0507H172.461ZM171.621 35.6707L170.501 31.8307C169.395 32.1534 168.481 32.9376 167.995 33.9823C167.509 35.0271 167.496 36.2309 167.962 37.2853L171.621 35.6707ZM172.921 34.3707L169.622 32.1086C169.588 32.158 169.556 32.2081 169.524 32.259L172.921 34.3707ZM175.681 28.2507L176.876 24.4333C175.859 24.115 174.757 24.2157 173.814 24.7131C172.872 25.2104 172.167 26.0633 171.856 27.0826L175.681 28.2507ZM178.301 29.0707L182.015 30.5563C182.429 29.5215 182.393 28.361 181.914 27.3544C181.436 26.3477 180.56 25.5862 179.496 25.2533L178.301 29.0707ZM174.021 36.7107L170.833 34.2953C170.306 34.9904 170.021 35.8386 170.021 36.7107H174.021ZM174.021 36.7707L175.918 40.2926C177.213 39.5949 178.021 38.2422 178.021 36.7707H174.021ZM169.524 24.1538L170.864 22.3938L164.499 17.5476L163.159 19.3076L169.524 24.1538ZM166.185 23.6805C167.296 24.1284 168.609 24.8282 169.046 25.1639L173.917 18.8175C172.634 17.8332 170.546 16.813 169.177 16.2609L166.185 23.6805ZM168.215 19.6814L166.815 21.6614L173.347 26.28L174.747 24.3L168.215 19.6814ZM172.753 20.9937C171.521 19.8882 169.426 18.7268 167.971 18.0778L164.711 25.3836C165.857 25.8947 167.082 26.6532 167.41 26.9477L172.753 20.9937ZM168.421 29.4288L169.701 27.6288L163.181 22.9926L161.901 24.7926L168.421 29.4288ZM164.997 29.041C166.118 29.4748 167.419 30.1514 167.826 30.464L172.697 24.1175C171.384 23.11 169.244 22.1066 167.885 21.5804L164.997 29.041ZM166.949 25.0488L165.609 27.0288L172.234 31.5126L173.574 29.5326L166.949 25.0488ZM171.505 26.2172C170.292 25.1906 168.203 24.0657 166.744 23.4371L163.579 30.7844C164.719 31.2757 165.991 32.0309 166.337 32.3243L171.505 26.2172ZM169.148 38.9792C170.319 37.3217 171.951 34.6671 173.228 32.221L166.135 28.5204C165.011 30.6743 163.563 33.0198 162.615 34.3623L169.148 38.9792ZM167.009 33.3473L168.769 34.9273L174.113 28.9742L172.353 27.3942L167.009 33.3473ZM167.864 30.1619C166.86 32.1692 165.639 34.3441 164.499 36.1865L171.303 40.3949C172.563 38.3573 173.903 35.9722 175.019 33.7396L167.864 30.1619ZM170.404 35.1703L168.384 33.5503L163.379 39.7912L165.399 41.4112L170.404 35.1703ZM176.041 23.7507H178.481V15.7507H176.041V23.7507ZM174.481 19.7507V29.3107H182.481V19.7507H174.481ZM178.481 25.3107H176.041V33.3107H178.481V25.3107ZM180.041 29.3107V19.7507H172.041V29.3107H180.041ZM171.281 31.8107H183.321V23.8107H171.281V31.8107ZM179.321 27.8107V30.0907H187.321V27.8107H179.321ZM183.321 26.0907H171.281V34.0907H183.321V26.0907ZM175.281 30.0907V27.8107H167.281V30.0907H175.281ZM172.081 26.7307H182.581V18.7307H172.081V26.7307ZM178.581 22.7307V24.9907H186.581V22.7307H178.581ZM182.581 20.9907H172.081V28.9907H182.581V20.9907ZM176.081 24.9907V22.7307H168.081V24.9907H176.081ZM180.181 36.283L182.141 35.323L178.622 28.1385L176.662 29.0985L180.181 36.283ZM177.199 34.1538C178.474 35.8287 179.602 37.7213 179.927 38.6956L187.516 36.1658C186.761 33.9001 184.969 31.1527 183.564 29.3076L177.199 34.1538ZM181.906 33.8663L179.746 34.9663L183.376 42.0951L185.536 40.9951L181.906 33.8663ZM185.415 37.4576C184.784 35.1941 183.077 32.2969 181.659 30.3423L175.183 35.0392C176.406 36.7245 177.458 38.7073 177.708 39.6038L185.415 37.4576ZM176.456 37.8405L176.356 35.9405L168.367 36.3609L168.467 38.2609L176.456 37.8405ZM174.501 39.53L175.701 38.77L171.421 32.0114L170.221 32.7714L174.501 39.53ZM173.977 39.369L181.437 38.589L180.605 30.6324L173.145 31.4124L173.977 39.369ZM177.023 34.4858C176.996 35.3626 177.069 36.5482 177.188 37.3189L185.095 36.1025C185.081 36.0107 185.055 35.7804 185.037 35.4693C185.019 35.1641 185.014 34.8969 185.019 34.7357L177.023 34.4858ZM180.651 32.7409C177.193 33.1681 175.124 33.4312 173.836 33.63C172.612 33.8189 171.67 34.0023 170.758 34.4314L174.164 41.67C173.933 41.7791 173.85 41.7225 175.056 41.5364C176.198 41.3602 178.129 41.1133 181.632 40.6805L180.651 32.7409ZM176.313 36.9722C176.139 36.3491 175.679 34.9589 175.281 34.0562L167.962 37.2853C168.045 37.4749 168.178 37.8236 168.322 38.2374C168.462 38.6442 168.569 38.9861 168.609 39.1292L176.313 36.9722ZM172.741 39.5107C174.838 38.899 175.894 37.1659 176.318 36.4824L169.524 32.259C169.44 32.3943 169.387 32.472 169.357 32.5132C169.326 32.5551 169.342 32.529 169.401 32.4679C169.462 32.4042 169.587 32.2861 169.779 32.1608C169.979 32.0303 170.223 31.9119 170.501 31.8307L172.741 39.5107ZM176.22 36.6328C176.945 35.5752 178.596 32.402 179.507 29.4188L171.856 27.0826C171.532 28.1433 171.047 29.3069 170.569 30.3135C170.333 30.8084 170.111 31.2407 169.929 31.5752C169.838 31.7424 169.762 31.877 169.702 31.9773C169.638 32.0862 169.612 32.123 169.622 32.1086L176.22 36.6328ZM174.486 32.0681L177.106 32.8881L179.496 25.2533L176.876 24.4333L174.486 32.0681ZM174.587 27.5851C173.601 30.0511 172.118 32.5986 170.833 34.2953L177.21 39.1261C178.924 36.8628 180.762 33.6904 182.015 30.5563L174.587 27.5851ZM170.021 36.7107V36.7707H178.021V36.7107H170.021ZM174.021 36.7707C172.125 33.2488 172.124 33.249 172.124 33.2492C172.124 33.2493 172.124 33.2495 172.123 33.2497C172.123 33.25 172.122 33.2503 172.122 33.2506C172.12 33.2513 172.119 33.252 172.118 33.2527C172.115 33.2543 172.112 33.256 172.108 33.2579C172.101 33.2619 172.092 33.2666 172.082 33.2722C172.061 33.2834 172.035 33.298 172.004 33.3156C171.941 33.3506 171.856 33.3986 171.757 33.4569C171.563 33.5701 171.286 33.7379 170.993 33.9372C170.727 34.1181 170.318 34.4113 169.933 34.7818C169.743 34.9643 169.452 35.2667 169.183 35.6766C168.953 36.028 168.461 36.8719 168.461 38.0507H176.461C176.461 39.1195 176.019 39.8409 175.874 40.0622C175.69 40.3419 175.521 40.5065 175.477 40.5484C175.385 40.6376 175.366 40.6383 175.489 40.5542C175.586 40.4885 175.699 40.4188 175.798 40.3607C175.845 40.3334 175.882 40.3124 175.905 40.2998C175.916 40.2935 175.923 40.2896 175.926 40.2883C175.927 40.2876 175.927 40.2876 175.926 40.2883C175.925 40.2887 175.924 40.2892 175.923 40.2899C175.922 40.2903 175.921 40.2907 175.92 40.2911C175.92 40.2913 175.92 40.2916 175.919 40.2918C175.919 40.2919 175.918 40.2921 175.918 40.2922C175.918 40.2924 175.918 40.2926 174.021 36.7707Z" fill="#033363" mask="url(#path-3-outside-1_1603_23122)"/>
<circle cx="213.281" cy="27.7307" r="4" fill="white"/>
</svg>
