<svg width="390" height="104" viewBox="0 0 390 104" fill="none" xmlns="http://www.w3.org/2000/svg">
<path d="M0 0H390L373.857 52L390 104H0L15.7449 52L0 0Z" fill="#076ED7"/>
<circle cx="63.7852" cy="51.5" r="4" fill="white"/>
<mask id="path-3-outside-1_1600_25390" maskUnits="userSpaceOnUse" x="86.7852" y="25" width="219" height="58" fill="black">
<rect fill="white" x="86.7852" y="25" width="219" height="58"/>
<path d="M108.009 36.768L104.601 41.376C102.729 39.936 98.6492 37.68 95.8652 36.096L99.0812 31.968C101.769 33.312 105.945 35.424 108.009 36.768ZM105.705 49.728L102.537 54.48C100.569 53.088 96.4412 50.832 93.6092 49.296L96.6812 45.072C99.3212 46.368 103.593 48.432 105.705 49.728ZM99.0812 75.648L94.2812 71.76C96.8252 68.16 100.521 62.208 103.401 56.64L107.577 60.48C105.033 65.52 102.009 70.992 99.0812 75.648ZM130.233 69.024V61.968H115.833V69.024H130.233ZM138.057 50.736H125.865V56.784H135.657V75.936H130.233V74.208H115.833V76.176H110.649V56.784H120.441V50.736H107.673V45.264H120.441V39.648C117.321 40.128 114.105 40.464 111.129 40.752C110.889 39.36 110.121 37.152 109.449 35.856C117.609 35.04 126.633 33.456 131.913 31.344L136.281 35.856C133.209 37.008 129.609 37.968 125.865 38.688V45.264H138.057V50.736ZM162.057 66.24V68.688C164.793 68.496 167.625 68.256 170.409 68.016C174.153 62.832 175.305 55.968 175.641 47.376H171.273V43.632H162.057V45.504H170.553V60.336H162.057V62.208H170.745V66.24H162.057ZM153.129 56.784H156.873V54.624H153.129V56.784ZM165.801 54.624H162.057V56.784H165.801V54.624ZM162.057 51.216H165.801V49.104H162.057V51.216ZM153.129 49.104V51.216H156.873V49.104H153.129ZM181.209 42.144H190.953C190.953 42.144 190.905 44.016 190.905 44.688C190.473 64.32 190.089 71.28 188.553 73.488C187.449 75.072 186.345 75.552 184.761 75.888C183.321 76.176 181.113 76.128 178.809 76.08C178.713 74.496 178.089 72.192 177.129 70.608C179.241 70.8 181.065 70.848 181.977 70.848C182.697 70.848 183.177 70.656 183.609 70.032C184.617 68.736 185.097 62.88 185.385 47.376H181.065C180.441 60.24 178.233 70.128 170.169 76.512C169.449 75.36 168.057 73.776 166.809 72.72C159.897 73.44 152.985 74.16 147.801 74.592L147.129 69.792C149.817 69.6 153.177 69.36 156.873 69.12V66.24H148.425V62.208H156.873V60.336H148.617V45.504H156.873V43.632H147.417V39.504H156.873V37.584C154.089 37.776 151.353 37.92 148.761 37.968C148.569 36.816 148.041 35.04 147.513 33.936C154.617 33.552 162.921 32.736 168.201 31.584L170.697 35.856C168.153 36.384 165.177 36.816 162.057 37.152V39.504H171.273V42.144H175.785C175.833 38.976 175.833 35.664 175.833 32.112H181.305C181.305 35.616 181.305 38.976 181.209 42.144ZM214.473 63.744H210.537C210.105 68.304 208.521 73.104 204.441 76.272C203.769 75.264 202.233 73.536 201.129 72.672C204.201 70.608 205.209 67.008 205.497 63.744H201.657V59.136H205.593V55.056H201.033V50.448H203.289C203.289 48.384 202.857 45.408 202.137 43.104L205.833 42.096C206.697 44.448 207.225 47.568 207.225 49.632L204.297 50.448H208.329C209.001 47.952 209.721 44.448 210.105 41.904H201.321V37.296H205.929C205.449 35.904 204.825 34.464 204.249 33.264L208.953 31.872C209.817 33.552 210.777 35.616 211.353 37.296H215.289V41.904H210.345L214.329 42.768C213.609 45.36 212.841 48.192 212.169 50.448H215.337V55.056H210.633V59.136H214.473V63.744ZM222.825 41.856H229.161C229.161 41.856 229.113 43.488 229.113 44.064C228.825 64.368 228.633 71.28 227.481 73.2C226.713 74.544 225.897 74.976 224.649 75.216C223.593 75.456 222.153 75.456 220.569 75.456C220.521 74.064 220.089 72.096 219.369 70.8C220.521 70.944 221.529 70.944 222.153 70.944C222.729 70.944 223.065 70.752 223.401 70.08C224.121 68.88 224.361 63.264 224.553 46.752H222.633C222.105 58.944 220.569 68.832 216.105 76.176C215.433 75.408 213.369 73.632 212.409 72.96C216.537 66.768 217.977 57.696 218.409 46.752H216.393V41.856H218.553C218.601 38.496 218.601 34.944 218.553 31.296H222.921C222.921 34.944 222.873 38.496 222.825 41.856ZM245.721 55.104H240.873V59.904H245.049V64.512H240.873V76.128H235.737V64.512H231.753V59.904H235.737V55.104H230.889V50.496H233.289C233.289 48.384 232.857 45.312 232.089 42.912L235.737 41.952C236.601 44.304 237.177 47.472 237.225 49.536L233.961 50.496H238.665C239.241 48 239.913 44.448 240.201 41.856H231.081V37.248H235.545C234.969 35.808 234.345 34.272 233.721 32.976L238.329 31.536C239.193 33.264 240.249 35.424 240.873 37.248H245.097V41.856H240.441L244.473 42.672C243.801 45.312 243.129 48.24 242.601 50.496H245.721V55.104ZM269.913 36.672L266.601 41.376C264.681 39.744 260.745 37.44 257.673 36.048L260.793 31.824C263.817 33.024 267.897 35.136 269.913 36.672ZM266.985 49.344L263.817 54.096C261.945 52.512 257.913 50.256 254.841 48.912L257.865 44.64C260.841 45.792 264.921 47.76 266.985 49.344ZM261.369 75.648L256.521 71.808C259.113 68.16 262.761 62.256 265.593 56.688L269.817 60.528C267.273 65.52 264.201 70.992 261.369 75.648ZM299.097 73.584L293.961 76.176C293.673 74.928 293.049 73.44 292.329 71.952C276.297 73.872 273.849 74.256 272.265 75.072C271.929 73.824 270.969 70.992 270.249 69.36C271.353 69.024 272.265 68.016 273.369 66.288C274.233 64.992 276.537 60.768 278.457 56.016H269.433V50.64H280.809V43.872H271.353V38.448H280.809V31.296H286.617V38.448H296.409V43.872H286.617V50.64H298.185V56.016H285.129C283.209 60.384 280.809 64.704 278.457 68.352L289.737 67.2C288.729 65.472 287.625 63.744 286.521 62.256L291.177 59.952C294.345 64.128 297.849 69.696 299.097 73.584Z"/>
</mask>
<path d="M108.009 36.768L104.601 41.376C102.729 39.936 98.6492 37.68 95.8652 36.096L99.0812 31.968C101.769 33.312 105.945 35.424 108.009 36.768ZM105.705 49.728L102.537 54.48C100.569 53.088 96.4412 50.832 93.6092 49.296L96.6812 45.072C99.3212 46.368 103.593 48.432 105.705 49.728ZM99.0812 75.648L94.2812 71.76C96.8252 68.16 100.521 62.208 103.401 56.64L107.577 60.48C105.033 65.52 102.009 70.992 99.0812 75.648ZM130.233 69.024V61.968H115.833V69.024H130.233ZM138.057 50.736H125.865V56.784H135.657V75.936H130.233V74.208H115.833V76.176H110.649V56.784H120.441V50.736H107.673V45.264H120.441V39.648C117.321 40.128 114.105 40.464 111.129 40.752C110.889 39.36 110.121 37.152 109.449 35.856C117.609 35.04 126.633 33.456 131.913 31.344L136.281 35.856C133.209 37.008 129.609 37.968 125.865 38.688V45.264H138.057V50.736ZM162.057 66.24V68.688C164.793 68.496 167.625 68.256 170.409 68.016C174.153 62.832 175.305 55.968 175.641 47.376H171.273V43.632H162.057V45.504H170.553V60.336H162.057V62.208H170.745V66.24H162.057ZM153.129 56.784H156.873V54.624H153.129V56.784ZM165.801 54.624H162.057V56.784H165.801V54.624ZM162.057 51.216H165.801V49.104H162.057V51.216ZM153.129 49.104V51.216H156.873V49.104H153.129ZM181.209 42.144H190.953C190.953 42.144 190.905 44.016 190.905 44.688C190.473 64.32 190.089 71.28 188.553 73.488C187.449 75.072 186.345 75.552 184.761 75.888C183.321 76.176 181.113 76.128 178.809 76.08C178.713 74.496 178.089 72.192 177.129 70.608C179.241 70.8 181.065 70.848 181.977 70.848C182.697 70.848 183.177 70.656 183.609 70.032C184.617 68.736 185.097 62.88 185.385 47.376H181.065C180.441 60.24 178.233 70.128 170.169 76.512C169.449 75.36 168.057 73.776 166.809 72.72C159.897 73.44 152.985 74.16 147.801 74.592L147.129 69.792C149.817 69.6 153.177 69.36 156.873 69.12V66.24H148.425V62.208H156.873V60.336H148.617V45.504H156.873V43.632H147.417V39.504H156.873V37.584C154.089 37.776 151.353 37.92 148.761 37.968C148.569 36.816 148.041 35.04 147.513 33.936C154.617 33.552 162.921 32.736 168.201 31.584L170.697 35.856C168.153 36.384 165.177 36.816 162.057 37.152V39.504H171.273V42.144H175.785C175.833 38.976 175.833 35.664 175.833 32.112H181.305C181.305 35.616 181.305 38.976 181.209 42.144ZM214.473 63.744H210.537C210.105 68.304 208.521 73.104 204.441 76.272C203.769 75.264 202.233 73.536 201.129 72.672C204.201 70.608 205.209 67.008 205.497 63.744H201.657V59.136H205.593V55.056H201.033V50.448H203.289C203.289 48.384 202.857 45.408 202.137 43.104L205.833 42.096C206.697 44.448 207.225 47.568 207.225 49.632L204.297 50.448H208.329C209.001 47.952 209.721 44.448 210.105 41.904H201.321V37.296H205.929C205.449 35.904 204.825 34.464 204.249 33.264L208.953 31.872C209.817 33.552 210.777 35.616 211.353 37.296H215.289V41.904H210.345L214.329 42.768C213.609 45.36 212.841 48.192 212.169 50.448H215.337V55.056H210.633V59.136H214.473V63.744ZM222.825 41.856H229.161C229.161 41.856 229.113 43.488 229.113 44.064C228.825 64.368 228.633 71.28 227.481 73.2C226.713 74.544 225.897 74.976 224.649 75.216C223.593 75.456 222.153 75.456 220.569 75.456C220.521 74.064 220.089 72.096 219.369 70.8C220.521 70.944 221.529 70.944 222.153 70.944C222.729 70.944 223.065 70.752 223.401 70.08C224.121 68.88 224.361 63.264 224.553 46.752H222.633C222.105 58.944 220.569 68.832 216.105 76.176C215.433 75.408 213.369 73.632 212.409 72.96C216.537 66.768 217.977 57.696 218.409 46.752H216.393V41.856H218.553C218.601 38.496 218.601 34.944 218.553 31.296H222.921C222.921 34.944 222.873 38.496 222.825 41.856ZM245.721 55.104H240.873V59.904H245.049V64.512H240.873V76.128H235.737V64.512H231.753V59.904H235.737V55.104H230.889V50.496H233.289C233.289 48.384 232.857 45.312 232.089 42.912L235.737 41.952C236.601 44.304 237.177 47.472 237.225 49.536L233.961 50.496H238.665C239.241 48 239.913 44.448 240.201 41.856H231.081V37.248H235.545C234.969 35.808 234.345 34.272 233.721 32.976L238.329 31.536C239.193 33.264 240.249 35.424 240.873 37.248H245.097V41.856H240.441L244.473 42.672C243.801 45.312 243.129 48.24 242.601 50.496H245.721V55.104ZM269.913 36.672L266.601 41.376C264.681 39.744 260.745 37.44 257.673 36.048L260.793 31.824C263.817 33.024 267.897 35.136 269.913 36.672ZM266.985 49.344L263.817 54.096C261.945 52.512 257.913 50.256 254.841 48.912L257.865 44.64C260.841 45.792 264.921 47.76 266.985 49.344ZM261.369 75.648L256.521 71.808C259.113 68.16 262.761 62.256 265.593 56.688L269.817 60.528C267.273 65.52 264.201 70.992 261.369 75.648ZM299.097 73.584L293.961 76.176C293.673 74.928 293.049 73.44 292.329 71.952C276.297 73.872 273.849 74.256 272.265 75.072C271.929 73.824 270.969 70.992 270.249 69.36C271.353 69.024 272.265 68.016 273.369 66.288C274.233 64.992 276.537 60.768 278.457 56.016H269.433V50.64H280.809V43.872H271.353V38.448H280.809V31.296H286.617V38.448H296.409V43.872H286.617V50.64H298.185V56.016H285.129C283.209 60.384 280.809 64.704 278.457 68.352L289.737 67.2C288.729 65.472 287.625 63.744 286.521 62.256L291.177 59.952C294.345 64.128 297.849 69.696 299.097 73.584Z" fill="white"/>
<path d="M108.009 36.768L112.833 40.3358C113.816 39.0065 114.207 37.3304 113.914 35.7033C113.621 34.0761 112.669 32.6422 111.283 31.74L108.009 36.768ZM104.601 41.376L100.943 46.1317C102.22 47.114 103.838 47.5414 105.433 47.318C107.029 47.0946 108.467 46.239 109.425 44.9438L104.601 41.376ZM95.8652 36.096L91.132 32.4085C90.0613 33.7828 89.6409 35.5546 89.9798 37.2635C90.3188 38.9723 91.3838 40.4495 92.898 41.311L95.8652 36.096ZM99.0812 31.968L101.764 26.6014C99.2079 25.3232 96.1046 26.0258 94.348 28.2805L99.0812 31.968ZM105.705 49.728L110.697 53.0562C111.602 51.6996 111.915 50.0333 111.565 48.4409C111.216 46.8484 110.233 45.4668 108.843 44.6141L105.705 49.728ZM102.537 54.48L99.0724 59.3785C100.395 60.314 102.04 60.6749 103.632 60.3792C105.225 60.0834 106.631 59.1561 107.529 57.8082L102.537 54.48ZM93.6092 49.296L88.7567 45.767C87.7399 47.1651 87.3756 48.9339 87.7571 50.6201C88.1386 52.3063 89.2289 53.746 90.7486 54.5702L93.6092 49.296ZM96.6812 45.072L99.3252 39.686C96.7072 38.4008 93.5441 39.1843 91.8287 41.543L96.6812 45.072ZM99.0812 75.648L95.3046 80.3104C96.6379 81.3904 98.3698 81.8478 100.063 81.5672C101.755 81.2865 103.247 80.2946 104.16 78.8421L99.0812 75.648ZM94.2812 71.76L89.3812 68.2973C87.5569 70.8788 88.0484 74.4328 90.5046 76.4224L94.2812 71.76ZM103.401 56.64L107.462 52.2234C106.086 50.9577 104.198 50.4061 102.357 50.7316C100.515 51.0571 98.9309 52.2225 98.0719 53.8835L103.401 56.64ZM107.577 60.48L112.933 63.1837C114.143 60.7877 113.614 57.88 111.638 56.0634L107.577 60.48ZM130.233 69.024V75.024C133.547 75.024 136.233 72.3377 136.233 69.024H130.233ZM130.233 61.968H136.233C136.233 58.6543 133.547 55.968 130.233 55.968V61.968ZM115.833 61.968V55.968C112.519 55.968 109.833 58.6543 109.833 61.968H115.833ZM115.833 69.024H109.833C109.833 72.3377 112.519 75.024 115.833 75.024V69.024ZM138.057 50.736V56.736C141.371 56.736 144.057 54.0497 144.057 50.736H138.057ZM125.865 50.736V44.736C122.551 44.736 119.865 47.4223 119.865 50.736H125.865ZM125.865 56.784H119.865C119.865 60.0977 122.551 62.784 125.865 62.784V56.784ZM135.657 56.784H141.657C141.657 53.4703 138.971 50.784 135.657 50.784V56.784ZM135.657 75.936V81.936C138.971 81.936 141.657 79.2497 141.657 75.936H135.657ZM130.233 75.936H124.233C124.233 79.2497 126.919 81.936 130.233 81.936V75.936ZM130.233 74.208H136.233C136.233 70.8943 133.547 68.208 130.233 68.208V74.208ZM115.833 74.208V68.208C112.519 68.208 109.833 70.8943 109.833 74.208H115.833ZM115.833 76.176V82.176C119.147 82.176 121.833 79.4897 121.833 76.176H115.833ZM110.649 76.176H104.649C104.649 79.4897 107.335 82.176 110.649 82.176V76.176ZM110.649 56.784V50.784C107.335 50.784 104.649 53.4703 104.649 56.784H110.649ZM120.441 56.784V62.784C123.755 62.784 126.441 60.0977 126.441 56.784H120.441ZM120.441 50.736H126.441C126.441 47.4223 123.755 44.736 120.441 44.736V50.736ZM107.673 50.736H101.673C101.673 54.0497 104.359 56.736 107.673 56.736V50.736ZM107.673 45.264V39.264C104.359 39.264 101.673 41.9503 101.673 45.264H107.673ZM120.441 45.264V51.264C123.755 51.264 126.441 48.5777 126.441 45.264H120.441ZM120.441 39.648H126.441C126.441 37.8974 125.677 36.2341 124.348 35.0942C123.019 33.9543 121.259 33.4516 119.529 33.7178L120.441 39.648ZM111.129 40.752L105.216 41.7714C105.75 44.8668 108.581 47.0267 111.707 46.7241L111.129 40.752ZM109.449 35.856L108.852 29.8858C106.873 30.0837 105.121 31.2495 104.173 32.9985C103.226 34.7474 103.207 36.8521 104.123 38.6179L109.449 35.856ZM131.913 31.344L136.224 27.1707C134.53 25.4208 131.946 24.8686 129.685 25.7731L131.913 31.344ZM136.281 35.856L138.388 41.474C140.282 40.7637 141.69 39.147 142.135 37.1737C142.579 35.2003 141.999 33.136 140.592 31.6827L136.281 35.856ZM125.865 38.688L124.732 32.796C121.907 33.3392 119.865 35.8112 119.865 38.688H125.865ZM125.865 45.264H119.865C119.865 48.5777 122.551 51.264 125.865 51.264V45.264ZM138.057 45.264H144.057C144.057 41.9503 141.371 39.264 138.057 39.264V45.264ZM103.185 33.2002L99.7771 37.8082L109.425 44.9438L112.833 40.3358L103.185 33.2002ZM108.259 36.6203C105.957 34.8494 101.323 32.2979 98.8323 30.881L92.898 41.311C95.9757 43.0621 99.5011 45.0226 100.943 46.1317L108.259 36.6203ZM100.598 39.7835L103.814 35.6555L94.348 28.2805L91.132 32.4085L100.598 39.7835ZM96.3979 37.3346C99.2112 38.7412 103.024 40.6819 104.735 41.796L111.283 31.74C108.866 30.1661 104.327 27.8828 101.764 26.6014L96.3979 37.3346ZM100.713 46.3998L97.5449 51.1518L107.529 57.8082L110.697 53.0562L100.713 46.3998ZM106.002 49.5815C103.67 47.9323 99.1532 45.4773 96.4697 44.0218L90.7486 54.5702C93.7291 56.1867 97.468 58.2437 99.0724 59.3785L106.002 49.5815ZM98.4616 52.825L101.534 48.601L91.8287 41.543L88.7567 45.767L98.4616 52.825ZM94.0371 50.458C96.8584 51.843 100.766 53.7368 102.567 54.8419L108.843 44.6141C106.42 43.1272 101.784 40.893 99.3252 39.686L94.0371 50.458ZM102.858 70.9856L98.0577 67.0976L90.5046 76.4224L95.3046 80.3104L102.858 70.9856ZM99.1812 75.2227C101.884 71.3985 105.723 65.2106 108.73 59.3965L98.0719 53.8835C95.3192 59.2053 91.7667 64.9215 89.3812 68.2973L99.1812 75.2227ZM99.3399 61.0566L103.516 64.8966L111.638 56.0634L107.462 52.2234L99.3399 61.0566ZM102.221 57.7763C99.7411 62.689 96.8085 67.9911 94.002 72.4539L104.16 78.8421C107.21 73.9929 110.325 68.351 112.933 63.1837L102.221 57.7763ZM136.233 69.024V61.968H124.233V69.024H136.233ZM130.233 55.968H115.833V67.968H130.233V55.968ZM109.833 61.968V69.024H121.833V61.968H109.833ZM115.833 75.024H130.233V63.024H115.833V75.024ZM138.057 44.736H125.865V56.736H138.057V44.736ZM119.865 50.736V56.784H131.865V50.736H119.865ZM125.865 62.784H135.657V50.784H125.865V62.784ZM129.657 56.784V75.936H141.657V56.784H129.657ZM135.657 69.936H130.233V81.936H135.657V69.936ZM136.233 75.936V74.208H124.233V75.936H136.233ZM130.233 68.208H115.833V80.208H130.233V68.208ZM109.833 74.208V76.176H121.833V74.208H109.833ZM115.833 70.176H110.649V82.176H115.833V70.176ZM116.649 76.176V56.784H104.649V76.176H116.649ZM110.649 62.784H120.441V50.784H110.649V62.784ZM126.441 56.784V50.736H114.441V56.784H126.441ZM120.441 44.736H107.673V56.736H120.441V44.736ZM113.673 50.736V45.264H101.673V50.736H113.673ZM107.673 51.264H120.441V39.264H107.673V51.264ZM126.441 45.264V39.648H114.441V45.264H126.441ZM119.529 33.7178C116.586 34.1706 113.511 34.4935 110.551 34.7799L111.707 46.7241C114.7 46.4345 118.057 46.0854 121.353 45.5782L119.529 33.7178ZM117.042 39.7326C116.687 37.6761 115.704 34.8836 114.776 33.0941L104.123 38.6179C104.539 39.4204 105.091 41.0439 105.216 41.7714L117.042 39.7326ZM110.046 41.8262C118.306 41.0003 128.036 39.357 134.142 36.9149L129.685 25.7731C125.23 27.555 116.913 29.0797 108.852 29.8858L110.046 41.8262ZM127.602 35.5173L131.97 40.0293L140.592 31.6827L136.224 27.1707L127.602 35.5173ZM134.174 30.238C131.49 31.2445 128.229 32.1234 124.732 32.796L126.998 44.58C130.989 43.8126 134.928 42.7715 138.388 41.474L134.174 30.238ZM119.865 38.688V45.264H131.865V38.688H119.865ZM125.865 51.264H138.057V39.264H125.865V51.264ZM132.057 45.264V50.736H144.057V45.264H132.057ZM162.057 66.24V60.24C158.743 60.24 156.057 62.9263 156.057 66.24H162.057ZM162.057 68.688H156.057C156.057 70.3523 156.748 71.9418 157.966 73.0766C159.183 74.2115 160.817 74.7898 162.477 74.6733L162.057 68.688ZM170.409 68.016L170.924 73.9938C172.664 73.8439 174.251 72.944 175.273 71.5289L170.409 68.016ZM175.641 47.376L181.637 47.6105C181.7 45.9797 181.097 44.3934 179.966 43.2171C178.835 42.0408 177.273 41.376 175.641 41.376V47.376ZM171.273 47.376H165.273C165.273 50.6897 167.959 53.376 171.273 53.376V47.376ZM171.273 43.632H177.273C177.273 40.3183 174.587 37.632 171.273 37.632V43.632ZM162.057 43.632V37.632C158.743 37.632 156.057 40.3183 156.057 43.632H162.057ZM162.057 45.504H156.057C156.057 48.8177 158.743 51.504 162.057 51.504V45.504ZM170.553 45.504H176.553C176.553 42.1903 173.867 39.504 170.553 39.504V45.504ZM170.553 60.336V66.336C173.867 66.336 176.553 63.6497 176.553 60.336H170.553ZM162.057 60.336V54.336C158.743 54.336 156.057 57.0223 156.057 60.336H162.057ZM162.057 62.208H156.057C156.057 65.5217 158.743 68.208 162.057 68.208V62.208ZM170.745 62.208H176.745C176.745 58.8943 174.059 56.208 170.745 56.208V62.208ZM170.745 66.24V72.24C174.059 72.24 176.745 69.5537 176.745 66.24H170.745ZM153.129 56.784H147.129C147.129 60.0977 149.815 62.784 153.129 62.784V56.784ZM156.873 56.784V62.784C160.187 62.784 162.873 60.0977 162.873 56.784H156.873ZM156.873 54.624H162.873C162.873 51.3103 160.187 48.624 156.873 48.624V54.624ZM153.129 54.624V48.624C149.815 48.624 147.129 51.3103 147.129 54.624H153.129ZM165.801 54.624H171.801C171.801 51.3103 169.115 48.624 165.801 48.624V54.624ZM162.057 54.624V48.624C158.743 48.624 156.057 51.3103 156.057 54.624H162.057ZM162.057 56.784H156.057C156.057 60.0977 158.743 62.784 162.057 62.784V56.784ZM165.801 56.784V62.784C169.115 62.784 171.801 60.0977 171.801 56.784H165.801ZM162.057 51.216H156.057C156.057 54.5297 158.743 57.216 162.057 57.216V51.216ZM165.801 51.216V57.216C169.115 57.216 171.801 54.5297 171.801 51.216H165.801ZM165.801 49.104H171.801C171.801 45.7903 169.115 43.104 165.801 43.104V49.104ZM162.057 49.104V43.104C158.743 43.104 156.057 45.7903 156.057 49.104H162.057ZM153.129 49.104V43.104C149.815 43.104 147.129 45.7903 147.129 49.104H153.129ZM153.129 51.216H147.129C147.129 54.5297 149.815 57.216 153.129 57.216V51.216ZM156.873 51.216V57.216C160.187 57.216 162.873 54.5297 162.873 51.216H156.873ZM156.873 49.104H162.873C162.873 45.7903 160.187 43.104 156.873 43.104V49.104ZM181.209 42.144L175.212 41.9623C175.163 43.5843 175.773 45.1571 176.903 46.3219C178.033 47.4866 179.586 48.144 181.209 48.144V42.144ZM190.953 42.144L196.951 42.2978C196.993 40.6804 196.379 39.1147 195.25 37.9561C194.121 36.7974 192.571 36.144 190.953 36.144V42.144ZM190.905 44.688L196.904 44.82C196.905 44.776 196.905 44.732 196.905 44.688H190.905ZM188.553 73.488L193.476 76.9188L193.479 76.9144L188.553 73.488ZM184.761 75.888L185.938 81.7715C185.961 81.7669 185.983 81.7622 186.006 81.7574L184.761 75.888ZM178.809 76.08L172.82 76.443C173.009 79.5619 175.56 82.0136 178.684 82.0787L178.809 76.08ZM177.129 70.608L177.672 64.6326C175.418 64.4277 173.24 65.5093 172.04 67.4295C170.841 69.3498 170.825 71.7816 171.998 73.7178L177.129 70.608ZM183.609 70.032L178.873 66.3484C178.805 66.436 178.739 66.5255 178.676 66.6167L183.609 70.032ZM185.385 47.376L191.384 47.4874C191.414 45.8771 190.795 44.3223 189.667 43.1729C188.539 42.0235 186.996 41.376 185.385 41.376V47.376ZM181.065 47.376V41.376C177.864 41.376 175.227 43.8884 175.072 47.0853L181.065 47.376ZM170.169 76.512L165.081 79.692C165.986 81.1396 167.464 82.1332 169.146 82.4242C170.829 82.7152 172.555 82.2759 173.893 81.2163L170.169 76.512ZM166.809 72.72L170.685 68.1397C169.437 67.084 167.813 66.583 166.188 66.7523L166.809 72.72ZM147.801 74.592L141.859 75.4239C142.3 78.5765 145.127 80.8356 148.299 80.5713L147.801 74.592ZM147.129 69.792L146.702 63.8072C145.044 63.9257 143.51 64.7263 142.464 66.0183C141.419 67.3104 140.957 68.978 141.187 70.6239L147.129 69.792ZM156.873 69.12L157.262 75.1074C160.418 74.9024 162.873 72.2828 162.873 69.12H156.873ZM156.873 66.24H162.873C162.873 62.9263 160.187 60.24 156.873 60.24V66.24ZM148.425 66.24H142.425C142.425 69.5537 145.111 72.24 148.425 72.24V66.24ZM148.425 62.208V56.208C145.111 56.208 142.425 58.8943 142.425 62.208H148.425ZM156.873 62.208V68.208C160.187 68.208 162.873 65.5217 162.873 62.208H156.873ZM156.873 60.336H162.873C162.873 57.0223 160.187 54.336 156.873 54.336V60.336ZM148.617 60.336H142.617C142.617 63.6497 145.303 66.336 148.617 66.336V60.336ZM148.617 45.504V39.504C145.303 39.504 142.617 42.1903 142.617 45.504H148.617ZM156.873 45.504V51.504C160.187 51.504 162.873 48.8177 162.873 45.504H156.873ZM156.873 43.632H162.873C162.873 40.3183 160.187 37.632 156.873 37.632V43.632ZM147.417 43.632H141.417C141.417 46.9457 144.103 49.632 147.417 49.632V43.632ZM147.417 39.504V33.504C144.103 33.504 141.417 36.1903 141.417 39.504H147.417ZM156.873 39.504V45.504C160.187 45.504 162.873 42.8177 162.873 39.504H156.873ZM156.873 37.584H162.873C162.873 35.921 162.183 34.3326 160.967 33.1978C159.752 32.0631 158.119 31.4838 156.46 31.5982L156.873 37.584ZM148.761 37.968L142.843 38.9544C143.332 41.889 145.898 44.0221 148.872 43.967L148.761 37.968ZM147.513 33.936L147.189 27.9447C145.189 28.0529 143.375 29.1522 142.353 30.8752C141.331 32.5982 141.236 34.7175 142.1 36.5247L147.513 33.936ZM168.201 31.584L173.382 28.5572C172.07 26.3124 169.462 25.1677 166.922 25.7219L168.201 31.584ZM170.697 35.856L171.916 41.7308C173.807 41.3384 175.394 40.0598 176.179 38.2954C176.964 36.531 176.852 34.4966 175.878 32.8292L170.697 35.856ZM162.057 37.152L161.415 31.1865C158.367 31.5147 156.057 34.087 156.057 37.152H162.057ZM162.057 39.504H156.057C156.057 42.8177 158.743 45.504 162.057 45.504V39.504ZM171.273 39.504H177.273C177.273 36.1903 174.587 33.504 171.273 33.504V39.504ZM171.273 42.144H165.273C165.273 45.4577 167.959 48.144 171.273 48.144V42.144ZM175.785 42.144V48.144C179.063 48.144 181.735 45.5128 181.784 42.2349L175.785 42.144ZM175.833 32.112V26.112C172.519 26.112 169.833 28.7983 169.833 32.112H175.833ZM181.305 32.112H187.305C187.305 28.7983 184.619 26.112 181.305 26.112V32.112ZM156.057 66.24V68.688H168.057V66.24H156.057ZM162.477 74.6733C165.266 74.4776 168.141 74.2338 170.924 73.9938L169.894 62.0382C167.109 62.2782 164.32 62.5144 161.637 62.7027L162.477 74.6733ZM175.273 71.5289C180.13 64.8043 181.294 56.3641 181.637 47.6105L169.646 47.1415C169.316 55.5719 168.176 60.8597 165.545 64.5031L175.273 71.5289ZM175.641 41.376H171.273V53.376H175.641V41.376ZM177.273 47.376V43.632H165.273V47.376H177.273ZM171.273 37.632H162.057V49.632H171.273V37.632ZM156.057 43.632V45.504H168.057V43.632H156.057ZM162.057 51.504H170.553V39.504H162.057V51.504ZM164.553 45.504V60.336H176.553V45.504H164.553ZM170.553 54.336H162.057V66.336H170.553V54.336ZM156.057 60.336V62.208H168.057V60.336H156.057ZM162.057 68.208H170.745V56.208H162.057V68.208ZM164.745 62.208V66.24H176.745V62.208H164.745ZM170.745 60.24H162.057V72.24H170.745V60.24ZM153.129 62.784H156.873V50.784H153.129V62.784ZM162.873 56.784V54.624H150.873V56.784H162.873ZM156.873 48.624H153.129V60.624H156.873V48.624ZM147.129 54.624V56.784H159.129V54.624H147.129ZM165.801 48.624H162.057V60.624H165.801V48.624ZM156.057 54.624V56.784H168.057V54.624H156.057ZM162.057 62.784H165.801V50.784H162.057V62.784ZM171.801 56.784V54.624H159.801V56.784H171.801ZM162.057 57.216H165.801V45.216H162.057V57.216ZM171.801 51.216V49.104H159.801V51.216H171.801ZM165.801 43.104H162.057V55.104H165.801V43.104ZM156.057 49.104V51.216H168.057V49.104H156.057ZM147.129 49.104V51.216H159.129V49.104H147.129ZM153.129 57.216H156.873V45.216H153.129V57.216ZM162.873 51.216V49.104H150.873V51.216H162.873ZM156.873 43.104H153.129V55.104H156.873V43.104ZM181.209 48.144H190.953V36.144H181.209V48.144ZM190.953 42.144C184.955 41.9902 184.955 41.9902 184.955 41.9903C184.955 41.9903 184.955 41.9904 184.955 41.9904C184.955 41.9905 184.955 41.9906 184.955 41.9908C184.955 41.9911 184.955 41.9915 184.955 41.992C184.955 41.993 184.955 41.9945 184.955 41.9965C184.955 42.0003 184.955 42.006 184.955 42.0132C184.954 42.0277 184.954 42.0488 184.953 42.0758C184.952 42.1297 184.95 42.2071 184.947 42.3019C184.943 42.4912 184.937 42.7513 184.931 43.0336C184.919 43.5703 184.905 44.2745 184.905 44.688H196.905C196.905 44.4295 196.915 43.8617 196.928 43.2944C196.934 43.0247 196.939 42.7748 196.944 42.5921C196.946 42.5009 196.948 42.4268 196.949 42.3757C196.95 42.3502 196.95 42.3304 196.951 42.3172C196.951 42.3105 196.951 42.3056 196.951 42.3023C196.951 42.3007 196.951 42.2995 196.951 42.2987C196.951 42.2983 196.951 42.2981 196.951 42.2979C196.951 42.2978 196.951 42.2978 196.951 42.2978C196.951 42.2978 196.951 42.2978 196.951 42.2978C196.951 42.2978 196.951 42.2978 190.953 42.144ZM184.907 44.556C184.69 54.4062 184.488 60.8863 184.161 65.1643C183.997 67.3069 183.814 68.7103 183.629 69.6192C183.423 70.628 183.31 70.5184 183.628 70.0616L193.479 76.9144C194.564 75.3536 195.075 73.546 195.387 72.0153C195.719 70.3847 195.948 68.4071 196.126 66.0797C196.482 61.4177 196.688 54.6017 196.904 44.82L184.907 44.556ZM183.631 70.0572C183.542 70.1851 183.514 70.202 183.556 70.1621C183.576 70.1422 183.609 70.113 183.654 70.0792C183.698 70.0453 183.746 70.0131 183.795 69.9844C183.843 69.9559 183.884 69.936 183.911 69.9237C183.938 69.9117 183.947 69.9092 183.932 69.9144C183.916 69.9199 183.877 69.9324 183.808 69.9507C183.737 69.9692 183.643 69.9917 183.516 70.0186L186.006 81.7574C187.054 81.5351 188.454 81.1661 189.879 80.3276C191.368 79.4517 192.525 78.282 193.476 76.9188L183.631 70.0572ZM183.584 70.0045C182.95 70.1314 181.552 70.1358 178.934 70.0813L178.684 82.0787C180.674 82.1201 183.692 82.2206 185.938 81.7715L183.584 70.0045ZM184.798 75.717C184.651 73.2854 183.786 70.0148 182.26 67.4982L171.998 73.7178C172.141 73.9531 172.354 74.4188 172.54 75.0485C172.726 75.6749 172.805 76.1916 172.82 76.443L184.798 75.717ZM176.586 76.5834C178.896 76.7933 180.902 76.848 181.977 76.848V64.848C181.229 64.848 179.587 64.8067 177.672 64.6326L176.586 76.5834ZM181.977 76.848C182.843 76.848 184.125 76.7382 185.486 76.0889C186.903 75.4126 187.879 74.406 188.542 73.4473L178.676 66.6167C178.908 66.282 179.428 65.6834 180.317 65.2591C181.149 64.8618 181.831 64.848 181.977 64.848V76.848ZM188.345 73.7156C189.543 72.1758 189.957 70.3078 190.159 69.2821C190.415 67.9763 190.601 66.3743 190.748 64.5053C191.046 60.7443 191.24 55.2456 191.384 47.4874L179.386 47.2646C179.242 55.0104 179.052 60.1917 178.786 63.5587C178.652 65.2537 178.51 66.3277 178.384 66.9689C178.203 67.8902 178.179 67.2402 178.873 66.3484L188.345 73.7156ZM185.385 41.376H181.065V53.376H185.385V41.376ZM175.072 47.0853C174.457 59.758 172.288 67.1818 166.445 71.8077L173.893 81.2163C184.178 73.0742 186.425 60.722 187.058 47.6667L175.072 47.0853ZM175.257 73.332C174.165 71.5849 172.341 69.5413 170.685 68.1397L162.934 77.3003C163.773 78.0107 164.733 79.1351 165.081 79.692L175.257 73.332ZM166.188 66.7523C159.252 67.4747 152.411 68.187 147.303 68.6127L148.299 80.5713C153.559 80.133 160.542 79.4053 167.431 78.6877L166.188 66.7523ZM153.743 73.7601L153.071 68.9601L141.187 70.6239L141.859 75.4239L153.743 73.7601ZM147.557 75.7768C150.245 75.5847 153.588 75.346 157.262 75.1074L156.484 63.1326C152.767 63.374 149.389 63.6153 146.702 63.8072L147.557 75.7768ZM162.873 69.12V66.24H150.873V69.12H162.873ZM156.873 60.24H148.425V72.24H156.873V60.24ZM154.425 66.24V62.208H142.425V66.24H154.425ZM148.425 68.208H156.873V56.208H148.425V68.208ZM162.873 62.208V60.336H150.873V62.208H162.873ZM156.873 54.336H148.617V66.336H156.873V54.336ZM154.617 60.336V45.504H142.617V60.336H154.617ZM148.617 51.504H156.873V39.504H148.617V51.504ZM162.873 45.504V43.632H150.873V45.504H162.873ZM156.873 37.632H147.417V49.632H156.873V37.632ZM153.417 43.632V39.504H141.417V43.632H153.417ZM147.417 45.504H156.873V33.504H147.417V45.504ZM162.873 39.504V37.584H150.873V39.504H162.873ZM156.46 31.5982C153.733 31.7863 151.106 31.9236 148.65 31.969L148.872 43.967C151.601 43.9164 154.445 43.7657 157.286 43.5698L156.46 31.5982ZM154.68 36.9816C154.407 35.3473 153.727 33.0217 152.926 31.3473L142.1 36.5247C142.356 37.0583 142.731 38.2847 142.843 38.9544L154.68 36.9816ZM147.837 39.9273C155.025 39.5387 163.717 38.7035 169.48 37.4461L166.922 25.7219C162.125 26.7685 154.209 27.5653 147.189 27.9447L147.837 39.9273ZM163.021 34.6108L165.517 38.8828L175.878 32.8292L173.382 28.5572L163.021 34.6108ZM169.478 29.9812C167.184 30.4573 164.413 30.8636 161.415 31.1865L162.7 43.1175C165.942 42.7684 169.122 42.3107 171.916 41.7308L169.478 29.9812ZM156.057 37.152V39.504H168.057V37.152H156.057ZM162.057 45.504H171.273V33.504H162.057V45.504ZM165.273 39.504V42.144H177.273V39.504H165.273ZM171.273 48.144H175.785V36.144H171.273V48.144ZM181.784 42.2349C181.833 39.0131 181.833 35.6541 181.833 32.112H169.833C169.833 35.6739 169.833 38.9389 169.786 42.0531L181.784 42.2349ZM175.833 38.112H181.305V26.112H175.833V38.112ZM175.305 32.112C175.305 35.6361 175.305 38.9018 175.212 41.9623L187.206 42.3257C187.306 39.0502 187.305 35.5959 187.305 32.112H175.305ZM214.473 63.744V69.744C217.787 69.744 220.473 67.0577 220.473 63.744H214.473ZM210.537 63.744V57.744C207.443 57.744 204.856 60.0974 204.564 63.1781L210.537 63.744ZM204.441 76.272L199.449 79.6002C200.373 80.9868 201.833 81.9265 203.478 82.1941C205.123 82.4617 206.805 82.0332 208.121 81.0111L204.441 76.272ZM201.129 72.672L197.783 67.6917C196.188 68.7634 195.203 70.5343 195.133 72.4547C195.063 74.3751 195.918 76.2127 197.431 77.397L201.129 72.672ZM205.497 63.744L211.474 64.2714C211.622 62.5949 211.059 60.9333 209.922 59.6921C208.786 58.4508 207.18 57.744 205.497 57.744V63.744ZM201.657 63.744H195.657C195.657 67.0577 198.343 69.744 201.657 69.744V63.744ZM201.657 59.136V53.136C198.343 53.136 195.657 55.8223 195.657 59.136H201.657ZM205.593 59.136V65.136C208.907 65.136 211.593 62.4497 211.593 59.136H205.593ZM205.593 55.056H211.593C211.593 51.7423 208.907 49.056 205.593 49.056V55.056ZM201.033 55.056H195.033C195.033 58.3697 197.719 61.056 201.033 61.056V55.056ZM201.033 50.448V44.448C197.719 44.448 195.033 47.1343 195.033 50.448H201.033ZM203.289 50.448V56.448C206.603 56.448 209.289 53.7617 209.289 50.448H203.289ZM202.137 43.104L200.558 37.3154C198.986 37.7441 197.656 38.7938 196.874 40.2231C196.092 41.6524 195.924 43.3384 196.41 44.8936L202.137 43.104ZM205.833 42.096L211.465 40.0271C210.391 37.1037 207.259 35.488 204.254 36.3074L205.833 42.096ZM207.225 49.632L208.836 55.4117C211.43 54.6887 213.225 52.3254 213.225 49.632H207.225ZM204.297 50.448L202.686 44.6683C199.797 45.4735 197.946 48.2889 198.352 51.2609C198.759 54.2328 201.298 56.448 204.297 56.448V50.448ZM208.329 50.448V56.448C211.042 56.448 213.418 54.6275 214.123 52.0078L208.329 50.448ZM210.105 41.904L216.038 42.7995C216.299 41.0714 215.793 39.3155 214.653 37.9908C213.514 36.666 211.853 35.904 210.105 35.904V41.904ZM201.321 41.904H195.321C195.321 45.2177 198.007 47.904 201.321 47.904V41.904ZM201.321 37.296V31.296C198.007 31.296 195.321 33.9823 195.321 37.296H201.321ZM205.929 37.296V43.296C207.869 43.296 209.689 42.3584 210.815 40.7791C211.941 39.1998 212.234 37.1737 211.601 35.3401L205.929 37.296ZM204.249 33.264L202.547 27.5106C200.861 28.0095 199.479 29.2227 198.765 30.8296C198.052 32.4365 198.079 34.2754 198.84 35.8604L204.249 33.264ZM208.953 31.872L214.289 29.1279C212.97 26.5642 210.015 25.3006 207.251 26.1186L208.953 31.872ZM211.353 37.296L205.677 39.2419C206.509 41.6671 208.789 43.296 211.353 43.296V37.296ZM215.289 37.296H221.289C221.289 33.9823 218.603 31.296 215.289 31.296V37.296ZM215.289 41.904V47.904C218.603 47.904 221.289 45.2177 221.289 41.904H215.289ZM210.345 41.904V35.904C207.279 35.904 204.706 38.2158 204.379 41.2645C204.053 44.3133 206.077 47.1178 209.074 47.7677L210.345 41.904ZM214.329 42.768L220.11 44.3739C220.552 42.7831 220.319 41.0805 219.466 39.667C218.612 38.2536 217.214 37.2542 215.601 36.9043L214.329 42.768ZM212.169 50.448L206.419 48.7351C205.878 50.5509 206.226 52.5154 207.359 54.0343C208.491 55.5532 210.275 56.448 212.169 56.448V50.448ZM215.337 50.448H221.337C221.337 47.1343 218.651 44.448 215.337 44.448V50.448ZM215.337 55.056V61.056C218.651 61.056 221.337 58.3697 221.337 55.056H215.337ZM210.633 55.056V49.056C207.319 49.056 204.633 51.7423 204.633 55.056H210.633ZM210.633 59.136H204.633C204.633 62.4497 207.319 65.136 210.633 65.136V59.136ZM214.473 59.136H220.473C220.473 55.8223 217.787 53.136 214.473 53.136V59.136ZM222.825 41.856L216.826 41.7703C216.803 43.3763 217.425 44.9244 218.552 46.0682C219.68 47.212 221.219 47.856 222.825 47.856V41.856ZM229.161 41.856L235.159 42.0324C235.206 40.4112 234.596 38.8398 233.466 37.6762C232.336 36.5126 230.783 35.856 229.161 35.856V41.856ZM229.113 44.064L235.113 44.1491C235.113 44.1207 235.113 44.0924 235.113 44.064H229.113ZM227.481 73.2L222.336 70.113C222.314 70.1495 222.293 70.1862 222.272 70.2232L227.481 73.2ZM224.649 75.216L223.516 69.324C223.45 69.3366 223.385 69.3504 223.319 69.3652L224.649 75.216ZM220.569 75.456L214.573 75.6628C214.684 78.8941 217.336 81.456 220.569 81.456V75.456ZM219.369 70.8L220.113 64.8463C217.871 64.5661 215.662 65.5693 214.397 67.4418C213.132 69.3143 213.027 71.7386 214.124 73.7139L219.369 70.8ZM223.401 70.08L218.256 66.993C218.177 67.1247 218.103 67.2594 218.035 67.3967L223.401 70.08ZM224.553 46.752L230.553 46.8218C230.571 45.2185 229.948 43.6744 228.82 42.5341C227.693 41.3938 226.157 40.752 224.553 40.752V46.752ZM222.633 46.752V40.752C219.42 40.752 216.778 43.2827 216.639 46.4924L222.633 46.752ZM216.105 76.176L211.59 80.127C212.849 81.5658 214.718 82.3185 216.623 82.1537C218.527 81.9888 220.239 80.9262 221.232 79.2925L216.105 76.176ZM212.409 72.96L207.417 69.6318C205.608 72.3448 206.297 76.0056 208.968 77.8754L212.409 72.96ZM218.409 46.752L224.404 46.9887C224.469 45.3576 223.866 43.7707 222.735 42.5939C221.603 41.4171 220.042 40.752 218.409 40.752V46.752ZM216.393 46.752H210.393C210.393 50.0657 213.079 52.752 216.393 52.752V46.752ZM216.393 41.856V35.856C213.079 35.856 210.393 38.5423 210.393 41.856H216.393ZM218.553 41.856V47.856C221.833 47.856 224.506 45.2217 224.553 41.9417L218.553 41.856ZM218.553 31.296V25.296C216.948 25.296 215.41 25.939 214.283 27.0814C213.155 28.2237 212.533 29.7701 212.554 31.3749L218.553 31.296ZM222.921 31.296H228.921C228.921 27.9823 226.235 25.296 222.921 25.296V31.296ZM245.721 55.104V61.104C249.035 61.104 251.721 58.4177 251.721 55.104H245.721ZM240.873 55.104V49.104C237.559 49.104 234.873 51.7903 234.873 55.104H240.873ZM240.873 59.904H234.873C234.873 63.2177 237.559 65.904 240.873 65.904V59.904ZM245.049 59.904H251.049C251.049 56.5903 248.363 53.904 245.049 53.904V59.904ZM245.049 64.512V70.512C248.363 70.512 251.049 67.8257 251.049 64.512H245.049ZM240.873 64.512V58.512C237.559 58.512 234.873 61.1983 234.873 64.512H240.873ZM240.873 76.128V82.128C244.187 82.128 246.873 79.4417 246.873 76.128H240.873ZM235.737 76.128H229.737C229.737 79.4417 232.423 82.128 235.737 82.128V76.128ZM235.737 64.512H241.737C241.737 61.1983 239.051 58.512 235.737 58.512V64.512ZM231.753 64.512H225.753C225.753 67.8257 228.439 70.512 231.753 70.512V64.512ZM231.753 59.904V53.904C228.439 53.904 225.753 56.5903 225.753 59.904H231.753ZM235.737 59.904V65.904C239.051 65.904 241.737 63.2177 241.737 59.904H235.737ZM235.737 55.104H241.737C241.737 51.7903 239.051 49.104 235.737 49.104V55.104ZM230.889 55.104H224.889C224.889 58.4177 227.575 61.104 230.889 61.104V55.104ZM230.889 50.496V44.496C227.575 44.496 224.889 47.1823 224.889 50.496H230.889ZM233.289 50.496V56.496C236.603 56.496 239.289 53.8097 239.289 50.496H233.289ZM232.089 42.912L230.562 37.1096C228.971 37.5284 227.621 38.5827 226.829 40.0255C226.037 41.4684 225.873 43.1731 226.375 44.7407L232.089 42.912ZM235.737 41.952L241.369 39.8831C240.302 36.979 237.202 35.3622 234.21 36.1496L235.737 41.952ZM237.225 49.536L238.918 55.2922C241.521 54.5266 243.287 52.1092 243.224 49.3965L237.225 49.536ZM233.961 50.496L232.268 44.7398C229.406 45.5816 227.597 48.3984 228.022 51.3512C228.448 54.3041 230.978 56.496 233.961 56.496V50.496ZM238.665 50.496V56.496C241.459 56.496 243.883 54.5675 244.512 51.8452L238.665 50.496ZM240.201 41.856L246.164 42.5186C246.353 40.8224 245.81 39.1262 244.672 37.8545C243.534 36.5828 241.908 35.856 240.201 35.856V41.856ZM231.081 41.856H225.081C225.081 45.1697 227.767 47.856 231.081 47.856V41.856ZM231.081 37.248V31.248C227.767 31.248 225.081 33.9343 225.081 37.248H231.081ZM235.545 37.248V43.248C237.536 43.248 239.397 42.2604 240.514 40.6118C241.63 38.9631 241.855 36.8682 241.116 35.0196L235.545 37.248ZM233.721 32.976L231.932 27.2491C230.267 27.7692 228.912 28.9873 228.217 30.5866C227.523 32.1858 227.559 34.008 228.315 35.5789L233.721 32.976ZM238.329 31.536L243.696 28.8527C242.38 26.2204 239.349 24.9313 236.54 25.8091L238.329 31.536ZM240.873 37.248L235.196 39.1901C236.027 41.6172 238.308 43.248 240.873 43.248V37.248ZM245.097 37.248H251.097C251.097 33.9343 248.411 31.248 245.097 31.248V37.248ZM245.097 41.856V47.856C248.411 47.856 251.097 45.1697 251.097 41.856H245.097ZM240.441 41.856V35.856C237.359 35.856 234.778 38.1912 234.471 41.2579C234.164 44.3247 236.23 47.1254 239.251 47.7368L240.441 41.856ZM244.473 42.672L250.288 44.1521C250.693 42.56 250.428 40.8713 249.554 39.4802C248.68 38.089 247.274 37.1171 245.663 36.7912L244.473 42.672ZM242.601 50.496L236.759 49.1287C236.342 50.9122 236.762 52.7888 237.9 54.224C239.038 55.6593 240.769 56.496 242.601 56.496V50.496ZM245.721 50.496H251.721C251.721 47.1823 249.035 44.496 245.721 44.496V50.496ZM214.473 57.744H210.537V69.744H214.473V57.744ZM204.564 63.1781C204.211 66.9026 203.005 69.7906 200.761 71.5329L208.121 81.0111C214.037 76.4174 215.999 69.7054 216.51 64.3099L204.564 63.1781ZM209.433 72.9438C208.449 71.4674 206.491 69.2489 204.827 67.947L197.431 77.397C197.607 77.5345 198.01 77.9076 198.509 78.456C199.004 79 199.341 79.4384 199.449 79.6002L209.433 72.9438ZM204.475 77.6523C209.866 74.0302 211.14 68.0595 211.474 64.2714L199.52 63.2166C199.279 65.9565 198.536 67.1858 197.783 67.6917L204.475 77.6523ZM205.497 57.744H201.657V69.744H205.497V57.744ZM207.657 63.744V59.136H195.657V63.744H207.657ZM201.657 65.136H205.593V53.136H201.657V65.136ZM211.593 59.136V55.056H199.593V59.136H211.593ZM205.593 49.056H201.033V61.056H205.593V49.056ZM207.033 55.056V50.448H195.033V55.056H207.033ZM201.033 56.448H203.289V44.448H201.033V56.448ZM209.289 50.448C209.289 47.7701 208.763 44.191 207.864 41.3143L196.41 44.8936C196.951 46.625 197.289 48.9978 197.289 50.448H209.289ZM203.716 48.8926L207.412 47.8846L204.254 36.3074L200.558 37.3154L203.716 48.8926ZM200.201 44.1649C200.828 45.8715 201.225 48.292 201.225 49.632H213.225C213.225 46.844 212.566 43.0245 211.465 40.0271L200.201 44.1649ZM205.614 43.8523L202.686 44.6683L205.908 56.2277L208.836 55.4117L205.614 43.8523ZM204.297 56.448H208.329V44.448H204.297V56.448ZM214.123 52.0078C214.858 49.2771 215.623 45.5503 216.038 42.7995L204.172 41.0085C203.82 43.3457 203.144 46.6269 202.535 48.8882L214.123 52.0078ZM210.105 35.904H201.321V47.904H210.105V35.904ZM207.321 41.904V37.296H195.321V41.904H207.321ZM201.321 43.296H205.929V31.296H201.321V43.296ZM211.601 35.3401C211.025 33.6685 210.302 32.008 209.658 30.6676L198.84 35.8604C199.349 36.92 199.873 38.1395 200.257 39.2519L211.601 35.3401ZM205.952 39.0174L210.656 37.6254L207.251 26.1186L202.547 27.5106L205.952 39.0174ZM203.617 34.6161C204.428 36.1931 205.239 37.9618 205.677 39.2419L217.029 35.35C216.316 33.2701 215.206 30.9109 214.289 29.1279L203.617 34.6161ZM211.353 43.296H215.289V31.296H211.353V43.296ZM209.289 37.296V41.904H221.289V37.296H209.289ZM215.289 35.904H210.345V47.904H215.289V35.904ZM209.074 47.7677L213.058 48.6317L215.601 36.9043L211.617 36.0403L209.074 47.7677ZM208.548 41.1621C207.811 43.815 207.07 46.5501 206.419 48.7351L217.919 52.1609C218.613 49.8339 219.407 46.905 220.11 44.3739L208.548 41.1621ZM212.169 56.448H215.337V44.448H212.169V56.448ZM209.337 50.448V55.056H221.337V50.448H209.337ZM215.337 49.056H210.633V61.056H215.337V49.056ZM204.633 55.056V59.136H216.633V55.056H204.633ZM210.633 65.136H214.473V53.136H210.633V65.136ZM208.473 59.136V63.744H220.473V59.136H208.473ZM222.825 47.856H229.161V35.856H222.825V47.856ZM229.161 41.856C223.164 41.6796 223.164 41.6796 223.164 41.6797C223.164 41.6797 223.164 41.6798 223.164 41.6798C223.164 41.6799 223.164 41.68 223.164 41.6801C223.164 41.6804 223.164 41.6808 223.164 41.6813C223.164 41.6822 223.164 41.6836 223.164 41.6853C223.163 41.6887 223.163 41.6937 223.163 41.7001C223.163 41.7129 223.162 41.7315 223.162 41.7552C223.16 41.8025 223.158 41.8704 223.156 41.9534C223.151 42.1192 223.145 42.347 223.139 42.594C223.128 43.0557 223.113 43.6867 223.113 44.064H235.113C235.113 43.8653 235.123 43.3923 235.135 42.8939C235.141 42.661 235.147 42.4448 235.151 42.2866C235.154 42.2076 235.155 42.1435 235.157 42.0993C235.157 42.0772 235.158 42.0602 235.158 42.0488C235.158 42.0431 235.158 42.0389 235.158 42.0361C235.159 42.0347 235.159 42.0337 235.159 42.0331C235.159 42.0328 235.159 42.0326 235.159 42.0324C235.159 42.0324 235.159 42.0324 235.159 42.0323C235.159 42.0323 235.159 42.0324 235.159 42.0323C235.159 42.0324 235.159 42.0324 229.161 41.856ZM223.114 43.9789C222.969 54.1692 222.85 60.8499 222.629 65.2228C222.518 67.417 222.388 68.864 222.247 69.8064C222.08 70.9273 221.978 70.7107 222.336 70.113L232.626 76.287C233.561 74.7293 233.914 72.9287 234.116 71.5791C234.344 70.051 234.497 68.141 234.613 65.8292C234.848 61.1901 234.969 54.2628 235.113 44.1491L223.114 43.9789ZM222.272 70.2232C222.213 70.3263 222.393 69.9814 222.902 69.6398C223.381 69.318 223.743 69.2803 223.516 69.324L225.782 81.108C226.803 80.9117 228.197 80.538 229.588 79.6042C231.009 78.6506 231.982 77.4177 232.691 76.1768L222.272 70.2232ZM223.319 69.3652C223.334 69.3619 223.281 69.3745 223.136 69.3904C222.994 69.406 222.802 69.4206 222.547 69.4317C222.012 69.4549 221.393 69.456 220.569 69.456V81.456C221.884 81.456 224.114 81.4906 225.979 81.0668L223.319 69.3652ZM226.566 75.2492C226.494 73.1629 225.905 70.2097 224.614 67.8861L214.124 73.7139C214.122 73.7094 214.161 73.7808 214.221 73.9447C214.278 74.1023 214.339 74.3003 214.395 74.5273C214.514 75.0095 214.565 75.4356 214.573 75.6628L226.566 75.2492ZM218.625 76.7537C220.179 76.9479 221.512 76.944 222.153 76.944V64.944C221.546 64.944 220.863 64.9401 220.113 64.8463L218.625 76.7537ZM222.153 76.944C223.109 76.944 224.656 76.7829 226.195 75.7563C227.633 74.7981 228.383 73.5319 228.768 72.7633L218.035 67.3967C218.083 67.3001 218.498 66.4659 219.539 65.7717C220.683 65.0091 221.773 64.944 222.153 64.944V76.944ZM228.546 73.167C229.441 71.6749 229.687 69.93 229.806 69.0416C229.966 67.8359 230.079 66.3065 230.168 64.4462C230.348 60.7027 230.457 55.0649 230.553 46.8218L218.554 46.6822C218.457 54.9511 218.35 60.3773 218.182 63.8698C218.098 65.6275 218.003 66.7591 217.91 67.4599C217.775 68.478 217.721 67.8851 218.256 66.993L228.546 73.167ZM224.553 40.752H222.633V52.752H224.553V40.752ZM216.639 46.4924C216.116 58.5727 214.592 67.1136 210.978 73.0595L221.232 79.2925C226.546 70.5504 228.095 59.3153 228.628 47.0116L216.639 46.4924ZM220.621 72.225C219.984 71.4978 219.017 70.624 218.295 69.9979C217.527 69.3324 216.586 68.5599 215.85 68.0446L208.968 77.8754C209.192 78.0321 209.763 78.4836 210.436 79.0661C210.748 79.3372 211.037 79.5968 211.268 79.8145C211.53 80.0608 211.616 80.1575 211.59 80.127L220.621 72.225ZM217.401 76.2882C222.537 68.5844 223.97 57.9928 224.404 46.9887L212.414 46.5153C211.984 57.3992 210.537 64.9516 207.417 69.6318L217.401 76.2882ZM218.409 40.752H216.393V52.752H218.409V40.752ZM222.393 46.752V41.856H210.393V46.752H222.393ZM216.393 47.856H218.553V35.856H216.393V47.856ZM224.553 41.9417C224.601 38.5224 224.601 34.9153 224.553 31.2171L212.554 31.3749C212.601 34.9727 212.601 38.4696 212.554 41.7703L224.553 41.9417ZM218.553 37.296H222.921V25.296H218.553V37.296ZM216.921 31.296C216.921 34.8962 216.874 38.4091 216.826 41.7703L228.825 41.9417C228.873 38.5829 228.921 34.9918 228.921 31.296H216.921ZM245.721 49.104H240.873V61.104H245.721V49.104ZM234.873 55.104V59.904H246.873V55.104H234.873ZM240.873 65.904H245.049V53.904H240.873V65.904ZM239.049 59.904V64.512H251.049V59.904H239.049ZM245.049 58.512H240.873V70.512H245.049V58.512ZM234.873 64.512V76.128H246.873V64.512H234.873ZM240.873 70.128H235.737V82.128H240.873V70.128ZM241.737 76.128V64.512H229.737V76.128H241.737ZM235.737 58.512H231.753V70.512H235.737V58.512ZM237.753 64.512V59.904H225.753V64.512H237.753ZM231.753 65.904H235.737V53.904H231.753V65.904ZM241.737 59.904V55.104H229.737V59.904H241.737ZM235.737 49.104H230.889V61.104H235.737V49.104ZM236.889 55.104V50.496H224.889V55.104H236.889ZM230.889 56.496H233.289V44.496H230.889V56.496ZM239.289 50.496C239.289 47.7869 238.768 44.0965 237.804 41.0833L226.375 44.7407C226.946 46.5275 227.289 48.9811 227.289 50.496H239.289ZM233.616 48.7144L237.264 47.7544L234.21 36.1496L230.562 37.1096L233.616 48.7144ZM230.105 44.0209C230.748 45.7696 231.194 48.2866 231.227 49.6755L243.224 49.3965C243.16 46.6574 242.455 42.8384 241.369 39.8831L230.105 44.0209ZM235.532 43.7798L232.268 44.7398L235.654 56.2522L238.918 55.2922L235.532 43.7798ZM233.961 56.496H238.665V44.496H233.961V56.496ZM244.512 51.8452C245.119 49.2115 245.842 45.4172 246.164 42.5186L234.238 41.1934C233.984 43.4788 233.363 46.7885 232.819 49.1468L244.512 51.8452ZM240.201 35.856H231.081V47.856H240.201V35.856ZM237.081 41.856V37.248H225.081V41.856H237.081ZM231.081 43.248H235.545V31.248H231.081V43.248ZM241.116 35.0196C240.547 33.5967 239.852 31.8793 239.127 30.3731L228.315 35.5789C228.838 36.6647 229.391 38.0193 229.974 39.4763L241.116 35.0196ZM235.511 38.7029L240.119 37.2629L236.54 25.8091L231.932 27.2491L235.511 38.7029ZM232.963 34.2193C233.85 35.9946 234.723 37.8058 235.196 39.1901L246.55 35.3059C245.776 33.0422 244.536 30.5334 243.696 28.8527L232.963 34.2193ZM240.873 43.248H245.097V31.248H240.873V43.248ZM239.097 37.248V41.856H251.097V37.248H239.097ZM245.097 35.856H240.441V47.856H245.097V35.856ZM239.251 47.7368L243.283 48.5528L245.663 36.7912L241.631 35.9752L239.251 47.7368ZM238.659 41.1919C237.968 43.9046 237.278 46.9126 236.759 49.1287L248.443 51.8633C248.981 49.5674 249.634 46.7194 250.288 44.1521L238.659 41.1919ZM242.601 56.496H245.721V44.496H242.601V56.496ZM239.721 50.496V55.104H251.721V50.496H239.721ZM269.913 36.672L274.819 40.1262C276.676 37.4885 276.115 33.8544 273.549 31.8994L269.913 36.672ZM266.601 41.376L262.715 45.9476C264 47.0397 265.685 47.5407 267.358 47.3281C269.03 47.1155 270.536 46.2089 271.507 44.8302L266.601 41.376ZM257.673 36.048L252.847 32.4832C251.771 33.9404 251.41 35.8058 251.867 37.559C252.323 39.3122 253.547 40.7654 255.197 41.5131L257.673 36.048ZM260.793 31.824L263.006 26.2471C260.475 25.2426 257.585 26.0688 255.967 28.2592L260.793 31.824ZM266.985 49.344L271.977 52.6722C273.73 50.0439 273.144 46.5073 270.638 44.5841L266.985 49.344ZM263.817 54.096L259.941 58.6763C261.247 59.7812 262.962 60.2762 264.656 60.0371C266.35 59.7979 267.861 58.8474 268.809 57.4242L263.817 54.096ZM254.841 48.912L249.944 45.4454C248.902 46.9179 248.577 48.7812 249.06 50.5193C249.544 52.2574 250.783 53.6858 252.436 54.4089L254.841 48.912ZM257.865 44.64L260.031 39.0446C257.467 38.052 254.556 38.9293 252.968 41.1734L257.865 44.64ZM261.369 75.648L257.644 80.3513C258.992 81.4193 260.734 81.8573 262.427 81.554C264.12 81.2508 265.602 80.2355 266.495 78.766L261.369 75.648ZM256.521 71.808L251.63 68.3328C249.781 70.935 250.293 74.5293 252.796 76.5113L256.521 71.808ZM265.593 56.688L269.629 52.2484C268.245 50.9897 266.352 50.449 264.512 50.7863C262.671 51.1235 261.093 52.3001 260.245 53.9679L265.593 56.688ZM269.817 60.528L275.163 63.2523C276.391 60.8421 275.855 57.908 273.853 56.0884L269.817 60.528ZM299.097 73.584L301.8 78.9405C304.436 77.6105 305.712 74.561 304.81 71.7502L299.097 73.584ZM293.961 76.176L288.115 77.5252C288.529 79.3209 289.746 80.8267 291.415 81.6088C293.083 82.391 295.019 82.3629 296.664 81.5325L293.961 76.176ZM292.329 71.952L297.73 69.3386C296.615 67.0332 294.159 65.69 291.616 65.9946L292.329 71.952ZM272.265 75.072L266.471 76.6318C266.943 78.3831 268.181 79.8272 269.84 80.5602C271.499 81.2931 273.401 81.2364 275.013 80.4058L272.265 75.072ZM270.249 69.36L268.502 63.62C266.86 64.1197 265.511 65.2989 264.795 66.8591C264.08 68.4194 264.067 70.2114 264.76 71.7818L270.249 69.36ZM273.369 66.288L268.377 62.9598C268.355 62.9922 268.334 63.0248 268.313 63.0577L273.369 66.288ZM278.457 56.016L284.02 58.2637C284.767 56.4143 284.547 54.3145 283.431 52.6609C282.316 51.0072 280.452 50.016 278.457 50.016V56.016ZM269.433 56.016H263.433C263.433 59.3297 266.119 62.016 269.433 62.016V56.016ZM269.433 50.64V44.64C266.119 44.64 263.433 47.3263 263.433 50.64H269.433ZM280.809 50.64V56.64C284.123 56.64 286.809 53.9537 286.809 50.64H280.809ZM280.809 43.872H286.809C286.809 40.5583 284.123 37.872 280.809 37.872V43.872ZM271.353 43.872H265.353C265.353 47.1857 268.039 49.872 271.353 49.872V43.872ZM271.353 38.448V32.448C268.039 32.448 265.353 35.1343 265.353 38.448H271.353ZM280.809 38.448V44.448C284.123 44.448 286.809 41.7617 286.809 38.448H280.809ZM280.809 31.296V25.296C277.495 25.296 274.809 27.9823 274.809 31.296H280.809ZM286.617 31.296H292.617C292.617 27.9823 289.931 25.296 286.617 25.296V31.296ZM286.617 38.448H280.617C280.617 41.7617 283.303 44.448 286.617 44.448V38.448ZM296.409 38.448H302.409C302.409 35.1343 299.723 32.448 296.409 32.448V38.448ZM296.409 43.872V49.872C299.723 49.872 302.409 47.1857 302.409 43.872H296.409ZM286.617 43.872V37.872C283.303 37.872 280.617 40.5583 280.617 43.872H286.617ZM286.617 50.64H280.617C280.617 53.9537 283.303 56.64 286.617 56.64V50.64ZM298.185 50.64H304.185C304.185 47.3263 301.499 44.64 298.185 44.64V50.64ZM298.185 56.016V62.016C301.499 62.016 304.185 59.3297 304.185 56.016H298.185ZM285.129 56.016V50.016C282.749 50.016 280.594 51.4228 279.636 53.6016L285.129 56.016ZM278.457 68.352L273.414 65.1007C272.165 67.0389 272.137 69.5218 273.342 71.4879C274.547 73.4539 276.773 74.5553 279.067 74.321L278.457 68.352ZM289.737 67.2L290.347 73.169C292.376 72.9617 294.161 71.7379 295.085 69.9198C296.01 68.1018 295.948 65.9386 294.92 64.1768L289.737 67.2ZM286.521 62.256L283.86 56.8784C282.266 57.667 281.105 59.1217 280.688 60.8503C280.272 62.5789 280.643 64.4031 281.703 65.8311L286.521 62.256ZM291.177 59.952L295.957 56.3257C294.218 54.0328 291.095 53.298 288.516 54.5744L291.177 59.952ZM265.007 33.2178L261.695 37.9218L271.507 44.8302L274.819 40.1262L265.007 33.2178ZM270.487 36.8044C267.979 34.6722 263.491 32.0969 260.15 30.5829L255.197 41.5131C257.999 42.7831 261.384 44.8158 262.715 45.9476L270.487 36.8044ZM262.499 39.6128L265.619 35.3888L255.967 28.2592L252.847 32.4832L262.499 39.6128ZM258.58 37.4009C261.338 38.4952 264.864 40.3681 266.277 41.4446L273.549 31.8994C270.93 29.9039 266.297 27.5528 263.006 26.2471L258.58 37.4009ZM261.993 46.0158L258.825 50.7678L268.809 57.4242L271.977 52.6722L261.993 46.0158ZM267.693 49.5157C265.175 47.3848 260.534 44.8535 257.246 43.4151L252.436 54.4089C255.292 55.6585 258.716 57.6392 259.941 58.6763L267.693 49.5157ZM259.738 52.3786L262.762 48.1066L252.968 41.1734L249.944 45.4454L259.738 52.3786ZM255.699 50.2354C258.524 51.3289 261.96 53.0509 263.332 54.1039L270.638 44.5841C267.882 42.4691 263.158 40.2551 260.031 39.0446L255.699 50.2354ZM265.095 70.9447L260.247 67.1047L252.796 76.5113L257.644 80.3513L265.095 70.9447ZM261.412 75.2832C264.175 71.3949 267.976 65.2385 270.941 59.4081L260.245 53.9679C257.547 59.2735 254.051 64.9251 251.63 68.3328L261.412 75.2832ZM261.557 61.1276L265.781 64.9676L273.853 56.0884L269.629 52.2484L261.557 61.1276ZM264.471 57.8037C262 62.6535 259.002 67.9943 256.243 72.53L266.495 78.766C269.401 73.9897 272.547 68.3865 275.163 63.2523L264.471 57.8037ZM296.394 68.2275L291.258 70.8195L296.664 81.5325L301.8 78.9405L296.394 68.2275ZM299.808 74.8268C299.362 72.8975 298.492 70.9138 297.73 69.3386L286.928 74.5654C287.606 75.9662 287.984 76.9585 288.115 77.5252L299.808 74.8268ZM291.616 65.9946C283.637 66.9501 278.898 67.5395 275.956 67.9974C273.112 68.4402 271.249 68.8463 269.517 69.7382L275.013 80.4058C275.013 80.4058 275.008 80.4084 275.001 80.4116C274.994 80.4147 274.994 80.4143 275.005 80.4103C275.027 80.402 275.115 80.3709 275.308 80.3211C275.729 80.213 276.459 80.0637 277.802 79.8546C280.488 79.4365 284.989 78.8739 293.043 77.9094L291.616 65.9946ZM278.059 73.5122C277.652 72.0019 276.595 68.8784 275.739 66.9382L264.76 71.7818C265.344 73.1056 266.206 75.6461 266.471 76.6318L278.059 73.5122ZM271.996 75.1C275.401 74.0638 277.33 71.2327 278.425 69.5183L268.313 63.0577C268.093 63.4025 267.917 63.6556 267.777 63.8414C267.637 64.0283 267.559 64.1106 267.541 64.1285C267.526 64.1445 267.598 64.0675 267.763 63.9599C267.937 63.8462 268.186 63.7161 268.502 63.62L271.996 75.1ZM278.361 69.6162C279.512 67.8907 281.994 63.2792 284.02 58.2637L272.894 53.7683C271.081 58.2568 268.954 62.0933 268.377 62.9598L278.361 69.6162ZM278.457 50.016H269.433V62.016H278.457V50.016ZM275.433 56.016V50.64H263.433V56.016H275.433ZM269.433 56.64H280.809V44.64H269.433V56.64ZM286.809 50.64V43.872H274.809V50.64H286.809ZM280.809 37.872H271.353V49.872H280.809V37.872ZM277.353 43.872V38.448H265.353V43.872H277.353ZM271.353 44.448H280.809V32.448H271.353V44.448ZM286.809 38.448V31.296H274.809V38.448H286.809ZM280.809 37.296H286.617V25.296H280.809V37.296ZM280.617 31.296V38.448H292.617V31.296H280.617ZM286.617 44.448H296.409V32.448H286.617V44.448ZM290.409 38.448V43.872H302.409V38.448H290.409ZM296.409 37.872H286.617V49.872H296.409V37.872ZM280.617 43.872V50.64H292.617V43.872H280.617ZM286.617 56.64H298.185V44.64H286.617V56.64ZM292.185 50.64V56.016H304.185V50.64H292.185ZM298.185 50.016H285.129V62.016H298.185V50.016ZM279.636 53.6016C277.861 57.6413 275.618 61.6821 273.414 65.1007L283.5 71.6032C286 67.7259 288.558 63.1267 290.622 58.4304L279.636 53.6016ZM279.067 74.321L290.347 73.169L289.128 61.231L277.848 62.383L279.067 74.321ZM294.92 64.1768C293.838 62.3224 292.613 60.397 291.34 58.6809L281.703 65.8311C282.637 67.091 283.62 68.6216 284.554 70.2232L294.92 64.1768ZM289.182 67.6336L293.838 65.3296L288.516 54.5744L283.86 56.8784L289.182 67.6336ZM286.397 63.5783C289.481 67.6431 292.461 72.5422 293.384 75.4178L304.81 71.7502C303.237 66.8498 299.21 60.6129 295.957 56.3257L286.397 63.5783Z" fill="#033363" mask="url(#path-3-outside-1_1600_25390)"/>
<circle cx="329.785" cy="51.5" r="4" fill="white"/>
</svg>
