<svg width="306" height="73" viewBox="0 0 306 73" fill="none" xmlns="http://www.w3.org/2000/svg">
<g filter="url(#filter0_d_1603_23115)">
<rect x="0.5" y="0.982544" width="305" height="66" rx="33" fill="#D65800" shape-rendering="crispEdges"/>
<circle cx="23.5" cy="33.9825" r="3" fill="white"/>
<path d="M46.4677 19.0545C45.8557 19.4505 45.1717 19.8105 44.4517 20.1165L43.3717 18.5505C45.9997 17.5065 47.8357 15.7965 48.8437 13.4025L50.4457 14.1225C49.9057 15.4545 49.1677 16.6245 48.2317 17.5965H56.2057C55.2697 16.5525 54.2257 15.4545 53.0737 14.3205L54.4777 13.2945C56.8537 15.5265 58.6717 17.4885 59.9317 19.1805L58.3837 20.2605C57.9697 19.7205 57.5377 19.1625 57.0697 18.6045V23.9145H54.7477V27.1905C54.7477 27.5865 54.9637 27.7845 55.3957 27.7845H57.5197C57.7357 27.7845 57.8977 27.6945 58.0057 27.5145C58.1137 27.3165 58.2037 26.7585 58.2397 25.8405L59.9857 26.3805C59.8417 27.9285 59.6077 28.8645 59.2837 29.1525C58.9777 29.4225 58.5097 29.5665 57.8797 29.5665H54.8197C53.5417 29.5665 52.9117 28.9005 52.9117 27.5685V23.9145H50.5897C50.1937 26.6505 48.2497 28.6305 44.7937 29.8725L43.7677 28.2165C46.6477 27.3525 48.3037 25.9305 48.7357 23.9145H46.4677V19.0545ZM55.2337 22.1505V19.3605H48.3037V22.1505H55.2337ZM64.7737 29.6565H63.2257L62.8117 27.8385C63.2797 27.9105 63.7117 27.9465 64.1257 27.9465C64.4497 27.9465 64.6117 27.7305 64.6117 27.3345V23.5905C64.0357 23.8065 63.4597 24.0045 62.8837 24.1845L62.4337 22.3845C63.1717 22.2045 63.8917 22.0065 64.6117 21.7545V18.1005H62.7757V16.3185H64.6117V13.2225H66.4117V16.3185H67.7977V17.1825C69.1297 16.2105 70.2817 14.8425 71.2897 13.1145L72.9817 13.4925C72.8557 13.7265 72.7297 13.9605 72.6037 14.1765H76.5997V15.4365C76.1497 16.0845 75.6997 16.6425 75.2317 17.1285H78.0757V23.8425H79.1197V25.4985H73.9357C73.6297 26.2185 73.2517 26.8305 72.7837 27.3705C71.9197 28.3605 70.3717 29.1525 68.1757 29.7285L67.4917 28.1445C69.3097 27.6945 70.6237 27.0645 71.4337 26.2725C71.6497 26.0205 71.8477 25.7685 72.0277 25.4985H67.9777V23.8425H69.1117V18.3705L68.7877 18.6405L67.7977 17.4705V18.1005H66.4117V21.0345C66.9517 20.7825 67.4737 20.5305 67.9957 20.2425V22.0785C67.4557 22.3485 66.9337 22.6005 66.4117 22.8525V27.8025C66.4117 29.0265 65.8537 29.6565 64.7737 29.6565ZM73.1077 17.1285C73.5397 16.6965 73.9717 16.2285 74.4217 15.6885H71.6137C71.2177 16.1925 70.8217 16.6785 70.4257 17.1285H73.1077ZM70.7677 23.8425H72.7117C72.8017 23.4825 72.8737 23.1045 72.9097 22.7445L74.5657 22.9245C74.5297 23.2485 74.4757 23.5545 74.4217 23.8425H76.4017V18.6405H70.7677V23.8425ZM73.5937 21.3045C73.1437 22.0245 72.6037 22.5645 71.9737 22.9605L71.0917 21.8265C72.1717 21.1425 72.8737 20.1525 73.1617 18.8925L74.5117 19.0725C74.4037 19.4685 74.2777 19.8285 74.1517 20.1525C74.9257 20.6205 75.5917 21.1425 76.1497 21.7005L75.2497 22.7805C74.7817 22.2405 74.2417 21.7545 73.5937 21.3045ZM74.7277 25.8585C76.3657 26.5605 77.8597 27.4065 79.2097 28.3785L78.2377 29.8725C76.8157 28.7385 75.3397 27.8385 73.8277 27.1905L74.7277 25.8585ZM82.8457 13.2945H84.6457V15.0945H87.6157V13.3305H89.4157V15.0945H90.2977V16.8405H89.4157V23.8785H90.3877V25.6245H81.7297V23.8785H82.8457V16.8405H81.9277V15.0945H82.8457V13.2945ZM84.6457 23.8785H87.6157V22.6365H84.6457V23.8785ZM87.6157 16.8405H84.6457V18.1005H87.6157V16.8405ZM84.6457 20.9985H87.6157V19.7385H84.6457V20.9985ZM87.8677 25.7325C88.5697 26.6325 89.1277 27.4245 89.5417 28.1085C90.4957 26.5425 90.9817 24.6525 90.9997 22.4205V13.7445H97.5337V27.8925C97.5337 29.0805 96.9217 29.6925 95.6977 29.6925H93.8257L93.3217 27.8565C93.9697 27.9105 94.5637 27.9465 95.1037 27.9465C95.4637 27.9465 95.6437 27.6945 95.6437 27.2085V24.1125H92.7637C92.4937 26.4705 91.7737 28.4325 90.6037 29.9985L89.2897 28.8105L88.2097 29.5665C87.7777 28.7025 87.1657 27.7305 86.4097 26.6505L87.8677 25.7325ZM83.7997 25.7865L85.2937 26.5065C84.6457 27.8025 83.9077 28.9005 83.0617 29.8365L81.5497 28.7565C82.4137 27.9285 83.1697 26.9385 83.7997 25.7865ZM92.8717 19.8105V22.4025H95.6437V19.8105H92.8717ZM95.6437 18.1005V15.5085H92.8717V18.1005H95.6437ZM105.418 21.1065H112.438V28.4325H105.418V21.1065ZM110.656 26.8845V25.4985H107.218V26.8845H110.656ZM107.218 24.0045H110.656V22.6545H107.218V24.0045ZM103.33 17.5605V18.4245H106.39V17.5605H103.33ZM106.39 16.1565V15.3285H103.33V16.1565H106.39ZM111.376 17.5965V18.4245H114.544V17.5965H111.376ZM114.544 16.1925V15.3465H111.376V16.1925H114.544ZM108.262 13.6725V20.0805H103.33V29.8365H101.476V13.6725H108.262ZM114.544 20.0805H109.504V13.6545H116.398V28.1085C116.398 29.2425 115.84 29.8185 114.742 29.8185C114.166 29.8185 113.608 29.7825 113.068 29.7465L112.564 27.9465C113.104 28.0185 113.608 28.0545 114.076 28.0545C114.382 28.0545 114.544 27.8565 114.544 27.4965V20.0805ZM134.272 15.1665V29.8545H132.364V28.8825H123.688V29.8545H121.78V15.1665H125.668C126.028 14.5185 126.316 13.8345 126.496 13.1505L128.404 13.4205C128.224 14.0505 127.972 14.6265 127.666 15.1665H134.272ZM123.688 27.1005H132.364V24.7425H123.688V27.1005ZM123.688 23.0145H132.364V20.8005H123.688V23.0145ZM123.688 19.0725H132.364V16.9665H123.688V19.0725ZM149.356 15.1305H150.94V27.9825H148.834V17.6685C148.06 18.3705 147.088 18.8925 145.9 19.2345V17.1465C146.476 17.0025 147.088 16.7505 147.736 16.3905C148.384 15.9945 148.924 15.5805 149.356 15.1305ZM157.819 15.1305H159.403V27.9825H157.297V17.6685C156.523 18.3705 155.551 18.8925 154.363 19.2345V17.1465C154.939 17.0025 155.551 16.7505 156.199 16.3905C156.847 15.9945 157.387 15.5805 157.819 15.1305ZM168.729 15.1305H170.655V23.5545H172.563V25.2285H170.655V27.9825H168.657V25.2285H162.447V23.2305L168.729 15.1305ZM168.603 17.7945L164.157 23.5545H168.657V17.7945H168.603ZM180.728 13.2225H182.492L176.246 29.7825H174.464L180.728 13.2225ZM189.458 14.8785C190.952 14.8785 192.122 15.4905 192.968 16.7505C193.76 17.9385 194.156 19.5405 194.156 21.5565C194.156 23.5725 193.76 25.1745 192.968 26.3625C192.122 27.6045 190.952 28.2345 189.458 28.2345C187.946 28.2345 186.776 27.6045 185.948 26.3625C185.156 25.1745 184.76 23.5725 184.76 21.5565C184.76 19.5405 185.156 17.9385 185.948 16.7505C186.776 15.4905 187.946 14.8785 189.458 14.8785ZM189.458 16.6605C188.432 16.6605 187.712 17.2185 187.298 18.3705C187.01 19.1445 186.866 20.2065 186.866 21.5565C186.866 22.8885 187.01 23.9505 187.298 24.7425C187.712 25.8765 188.432 26.4525 189.458 26.4525C190.466 26.4525 191.186 25.8765 191.618 24.7425C191.906 23.9505 192.05 22.8885 192.05 21.5565C192.05 20.2065 191.906 19.1445 191.618 18.3705C191.186 17.2185 190.466 16.6605 189.458 16.6605ZM201.457 14.8785C202.753 14.8785 203.815 15.1845 204.607 15.8145C205.381 16.4445 205.777 17.3085 205.777 18.4245C205.777 19.8285 205.057 20.7645 203.635 21.2325C204.391 21.4665 204.985 21.8085 205.381 22.2765C205.813 22.7625 206.029 23.3925 206.029 24.1485C206.029 25.3365 205.615 26.3085 204.787 27.0645C203.923 27.8385 202.789 28.2345 201.385 28.2345C200.053 28.2345 198.973 27.8925 198.163 27.2085C197.263 26.4525 196.759 25.3365 196.651 23.8965H198.793C198.829 24.7245 199.081 25.3725 199.585 25.8225C200.035 26.2365 200.629 26.4525 201.367 26.4525C202.177 26.4525 202.825 26.2185 203.293 25.7685C203.707 25.3545 203.923 24.8505 203.923 24.2385C203.923 23.5005 203.689 22.9605 203.257 22.6185C202.825 22.2585 202.195 22.0965 201.367 22.0965H200.467V20.5125H201.367C202.123 20.5125 202.699 20.3505 203.095 20.0265C203.473 19.7025 203.671 19.2165 203.671 18.5865C203.671 17.9565 203.491 17.4885 203.149 17.1645C202.771 16.8405 202.213 16.6785 201.475 16.6785C200.719 16.6785 200.143 16.8585 199.729 17.2365C199.297 17.6145 199.045 18.1905 198.973 18.9645H196.903C197.011 17.6685 197.479 16.6605 198.343 15.9405C199.153 15.2205 200.197 14.8785 201.457 14.8785ZM214.554 13.2225H216.318L210.072 29.7825H208.29L214.554 13.2225ZM223.284 14.8785C224.778 14.8785 225.948 15.4905 226.794 16.7505C227.586 17.9385 227.982 19.5405 227.982 21.5565C227.982 23.5725 227.586 25.1745 226.794 26.3625C225.948 27.6045 224.778 28.2345 223.284 28.2345C221.772 28.2345 220.602 27.6045 219.774 26.3625C218.982 25.1745 218.586 23.5725 218.586 21.5565C218.586 19.5405 218.982 17.9385 219.774 16.7505C220.602 15.4905 221.772 14.8785 223.284 14.8785ZM223.284 16.6605C222.258 16.6605 221.538 17.2185 221.124 18.3705C220.836 19.1445 220.692 20.2065 220.692 21.5565C220.692 22.8885 220.836 23.9505 221.124 24.7425C221.538 25.8765 222.258 26.4525 223.284 26.4525C224.292 26.4525 225.012 25.8765 225.444 24.7425C225.732 23.9505 225.876 22.8885 225.876 21.5565C225.876 20.2065 225.732 19.1445 225.444 18.3705C225.012 17.2185 224.292 16.6605 223.284 16.6605ZM233.933 15.1305H235.517V27.9825H233.411V17.6685C232.637 18.3705 231.665 18.8925 230.477 19.2345V17.1465C231.053 17.0025 231.665 16.7505 232.313 16.3905C232.961 15.9945 233.501 15.5805 233.933 15.1305ZM261.548 14.2485V20.5125H256.868V24.3285C256.868 24.6525 257.084 24.8325 257.552 24.8325H259.658C259.964 24.7965 260.18 24.6525 260.288 24.3645C260.378 24.1665 260.468 23.5365 260.558 22.4565L262.304 23.0145C262.196 24.1125 262.052 24.8865 261.908 25.3545C261.656 26.1285 261.116 26.5425 260.27 26.5785H256.76C255.608 26.5785 255.032 26.0745 255.032 25.0665V14.2485H261.548ZM256.868 18.8385H259.766V15.9225H256.868V18.8385ZM249.56 13.1145H251.432V15.4185H254.006V17.1105H251.432V19.2345H254.24V20.9625H251.81V22.9785H254.15V24.6705H251.81V27.5145C252.926 27.7305 254.906 27.8565 257.75 27.8565C259.946 27.8385 261.584 27.8025 262.664 27.7305L262.34 29.5305H258.146C253.934 29.5305 251.288 29.2785 250.226 28.8105C249.47 28.4685 248.786 27.9105 248.192 27.1185C247.94 28.0905 247.652 29.0265 247.292 29.8905L245.852 28.6125C246.644 26.5785 247.076 24.3285 247.184 21.8445L248.858 22.0425C248.822 23.1225 248.732 24.1485 248.588 25.1565C249.02 25.8225 249.488 26.3445 249.992 26.7225V20.9625H246.482V19.2345H249.56V17.1105H246.788V15.4185H249.56V13.1145ZM63.1475 38.9245H78.2675V40.7245H69.9335C68.9975 42.2005 67.9715 43.4425 66.8195 44.4505C69.2495 44.2705 71.6255 44.0005 73.9655 43.6405C73.5335 43.1365 73.1015 42.6505 72.6335 42.1465L74.1635 41.1745C75.8195 42.9205 77.0795 44.4325 77.9615 45.7285L76.4135 46.8265C76.0535 46.2865 75.6755 45.7465 75.2615 45.2065C71.6255 45.7465 67.8995 46.1245 64.0835 46.3045L63.5795 44.6845C65.1995 43.7845 66.5855 42.4705 67.7375 40.7245H63.1475V38.9245ZM63.8855 48.2485H69.7895V46.5025H71.6975V48.2485H77.4755V50.0305H71.6975V52.3705H78.7355V54.2065H62.7515V52.3705H69.7895V50.0305H63.8855V48.2485ZM84.5855 44.0545C83.9735 44.4505 83.2895 44.8105 82.5695 45.1165L81.4895 43.5505C84.1175 42.5065 85.9535 40.7965 86.9615 38.4025L88.5635 39.1225C88.0235 40.4545 87.2855 41.6245 86.3495 42.5965H94.3235C93.3875 41.5525 92.3435 40.4545 91.1915 39.3205L92.5955 38.2945C94.9715 40.5265 96.7895 42.4885 98.0495 44.1805L96.5015 45.2605C96.0875 44.7205 95.6555 44.1625 95.1875 43.6045V48.9145H92.8655V52.1905C92.8655 52.5865 93.0815 52.7845 93.5135 52.7845H95.6375C95.8535 52.7845 96.0155 52.6945 96.1235 52.5145C96.2315 52.3165 96.3215 51.7585 96.3575 50.8405L98.1035 51.3805C97.9595 52.9285 97.7255 53.8645 97.4015 54.1525C97.0955 54.4225 96.6275 54.5665 95.9975 54.5665H92.9375C91.6595 54.5665 91.0295 53.9005 91.0295 52.5685V48.9145H88.7075C88.3115 51.6505 86.3675 53.6305 82.9115 54.8725L81.8855 53.2165C84.7655 52.3525 86.4215 50.9305 86.8535 48.9145H84.5855V44.0545ZM93.3515 47.1505V44.3605H86.4215V47.1505H93.3515ZM102.892 54.6565H101.344L100.93 52.8385C101.398 52.9105 101.83 52.9465 102.244 52.9465C102.568 52.9465 102.73 52.7305 102.73 52.3345V48.5905C102.154 48.8065 101.578 49.0045 101.002 49.1845L100.552 47.3845C101.29 47.2045 102.01 47.0065 102.73 46.7545V43.1005H100.894V41.3185H102.73V38.2225H104.53V41.3185H105.916V42.1825C107.248 41.2105 108.4 39.8425 109.408 38.1145L111.1 38.4925C110.974 38.7265 110.848 38.9605 110.722 39.1765H114.718V40.4365C114.268 41.0845 113.818 41.6425 113.35 42.1285H116.194V48.8425H117.238V50.4985H112.054C111.748 51.2185 111.37 51.8305 110.902 52.3705C110.038 53.3605 108.49 54.1525 106.294 54.7285L105.61 53.1445C107.428 52.6945 108.742 52.0645 109.552 51.2725C109.768 51.0205 109.966 50.7685 110.146 50.4985H106.096V48.8425H107.23V43.3705L106.906 43.6405L105.916 42.4705V43.1005H104.53V46.0345C105.07 45.7825 105.592 45.5305 106.114 45.2425V47.0785C105.574 47.3485 105.052 47.6005 104.53 47.8525V52.8025C104.53 54.0265 103.972 54.6565 102.892 54.6565ZM111.226 42.1285C111.658 41.6965 112.09 41.2285 112.54 40.6885H109.732C109.336 41.1925 108.94 41.6785 108.544 42.1285H111.226ZM108.886 48.8425H110.83C110.92 48.4825 110.992 48.1045 111.028 47.7445L112.684 47.9245C112.648 48.2485 112.594 48.5545 112.54 48.8425H114.52V43.6405H108.886V48.8425ZM111.712 46.3045C111.262 47.0245 110.722 47.5645 110.092 47.9605L109.21 46.8265C110.29 46.1425 110.992 45.1525 111.28 43.8925L112.63 44.0725C112.522 44.4685 112.396 44.8285 112.27 45.1525C113.044 45.6205 113.71 46.1425 114.268 46.7005L113.368 47.7805C112.9 47.2405 112.36 46.7545 111.712 46.3045ZM112.846 50.8585C114.484 51.5605 115.978 52.4065 117.328 53.3785L116.356 54.8725C114.934 53.7385 113.458 52.8385 111.946 52.1905L112.846 50.8585ZM125.446 49.3645H123.304V48.4285C122.458 49.0585 121.558 49.6165 120.586 50.0845L119.542 48.5005C121.198 47.7985 122.584 46.8805 123.7 45.7465H120.172V44.0545H125.104C125.41 43.5865 125.698 43.0825 125.95 42.5785H121.162V40.9225H123.664C123.286 40.0765 122.89 39.3205 122.458 38.6725L124.078 38.1325C124.546 38.8705 124.942 39.6625 125.302 40.5265L124.42 40.9225H126.634C126.922 40.0045 127.156 39.0325 127.318 38.0245L129.19 38.2585C129.028 39.1945 128.812 40.0765 128.542 40.9225H131.494L130.792 40.5265C131.332 39.8065 131.782 38.9965 132.124 38.0605L133.69 38.6365C133.33 39.5005 132.916 40.2565 132.412 40.9225H134.806V42.5785H127.93C127.714 43.0825 127.462 43.5865 127.192 44.0545H135.796V45.7465H132.412C133.276 46.7545 134.608 47.6545 136.408 48.4465L135.184 49.9765C134.32 49.4725 133.564 48.9505 132.916 48.4285C132.844 49.7965 132.772 50.9485 132.664 51.8485C132.52 52.8925 132.268 53.6305 131.944 54.0625C131.602 54.4585 131.062 54.6925 130.342 54.7285H127.39L126.904 52.9645C127.804 53.0185 128.65 53.0545 129.442 53.0545C130.09 53.0545 130.504 52.8205 130.702 52.3705C130.918 51.9025 131.044 50.8945 131.116 49.3645H127.192C126.832 50.6065 126.364 51.6145 125.788 52.3705C124.996 53.3065 123.844 54.1345 122.332 54.8905L121.162 53.3785C122.494 52.8025 123.52 52.1725 124.222 51.4885C124.726 50.9485 125.14 50.2285 125.446 49.3645ZM126.058 45.7465C125.518 46.4305 124.924 47.0605 124.294 47.6365H132.016C131.368 47.0245 130.846 46.3945 130.45 45.7465H126.058ZM141.052 40.5445C141.79 41.0125 142.402 41.4265 142.906 41.8225C143.608 41.3545 144.184 40.8685 144.634 40.3465H140.116V38.7265H146.776V40.0765C146.218 41.1925 145.354 42.1825 144.166 43.0105H146.092V47.6725H142.078L141.844 49.1485H146.2C146.2 51.3445 146.092 52.8205 145.912 53.5765C145.696 54.3145 144.796 54.7285 143.194 54.8005C142.564 54.8005 141.934 54.7645 141.286 54.7285L140.836 53.0725C141.484 53.1085 142.132 53.1445 142.798 53.1445C143.68 53.1445 144.184 52.9825 144.328 52.6945C144.436 52.3705 144.508 51.7225 144.508 50.7145H140.044L140.656 46.0885H144.454V44.6305H141.07C140.638 44.7745 140.224 44.9365 139.792 45.0805L138.658 43.6045C139.306 43.4245 139.9 43.2265 140.44 43.0285V43.0105H140.476C140.8 42.8845 141.124 42.7585 141.412 42.6325C140.908 42.2365 140.332 41.8225 139.684 41.4085L141.052 40.5445ZM151.384 38.1505L152.698 38.9785C152.266 39.4645 151.852 39.8605 151.42 40.1665C151.204 40.3105 150.934 40.4725 150.646 40.6525C150.88 40.8325 151.132 40.9945 151.384 41.1745C151.708 40.9945 152.032 40.8145 152.356 40.5985C152.77 40.2745 153.166 39.8965 153.526 39.4465L154.84 40.2565C154.39 40.8145 153.94 41.2825 153.472 41.6425C153.292 41.7685 153.112 41.8945 152.896 42.0385C153.67 42.4345 154.516 42.7765 155.452 43.1005L154.192 44.5945C153.652 44.3785 153.166 44.1445 152.698 43.9285V45.0265C152.698 45.3505 152.914 45.5125 153.382 45.5125H154.282V47.0245H152.896C151.708 47.0245 151.132 46.4845 151.132 45.4045V44.6125H149.08C149.08 45.1885 148.954 45.6925 148.72 46.1605C148.468 46.6285 148.018 47.0785 147.388 47.4925L146.11 46.3585C146.686 45.8905 147.082 45.4405 147.262 45.0445C147.406 44.6305 147.496 43.9825 147.496 43.0825H151.168C149.368 41.9845 148.018 40.7245 147.118 39.2845L148.594 38.4385C148.846 38.8525 149.152 39.2485 149.512 39.6265C149.782 39.4825 150.052 39.3205 150.304 39.1585C150.682 38.8705 151.042 38.5465 151.384 38.1505ZM147.046 47.7265H153.544V49.2925C153.22 50.2285 152.752 51.0745 152.122 51.8125C153.166 52.3885 154.12 52.9645 154.966 53.5405L153.67 54.8545C152.896 54.2425 151.978 53.6305 150.898 52.9825C149.89 53.7385 148.684 54.3685 147.262 54.8365L146.56 53.1985C147.568 52.8745 148.45 52.4785 149.206 52.0105C148.522 51.6325 147.784 51.2545 147.01 50.8765L148.144 49.7965C148.972 50.1745 149.746 50.5525 150.502 50.9485C150.97 50.4805 151.348 49.9585 151.654 49.3825H147.046V47.7265ZM158.062 40.7065H161.212C160.906 39.9505 160.564 39.2305 160.186 38.5285L162.004 38.0245C162.454 38.9965 162.814 39.8785 163.102 40.7065H165.676V42.5245H161.482V43.8925C161.482 44.1445 161.464 44.3965 161.464 44.6485H164.902C164.902 49.1845 164.812 51.9745 164.668 53.0185C166.324 52.1725 167.638 51.0745 168.646 49.7245C167.89 48.4645 167.296 47.1325 166.828 45.7105L168.304 44.8825C168.664 45.9985 169.132 47.0245 169.69 47.9785C170.446 46.4125 170.896 44.6125 171.004 42.5605H168.394C167.764 44.1265 166.972 45.4405 166.018 46.5025L164.902 45.0985C166.27 43.3705 167.206 41.0665 167.692 38.1685L169.528 38.4925C169.384 39.2845 169.204 40.0225 169.006 40.7425H173.92V42.5605H172.768C172.624 45.3325 171.976 47.7085 170.842 49.7245C171.85 51.0565 173.038 52.2265 174.424 53.2705L173.146 54.7825C171.832 53.7565 170.698 52.6225 169.744 51.3625C168.646 52.7125 167.278 53.8465 165.64 54.7825L164.632 53.1805C164.398 54.1525 163.606 54.6385 162.274 54.6385C162.022 54.6385 161.608 54.6025 160.996 54.5305L160.564 52.9285C161.104 52.9645 161.572 53.0005 161.986 53.0005C162.544 53.0005 162.868 52.7125 162.976 52.1725C163.048 51.6325 163.102 49.6885 163.138 46.3765H161.392C161.14 50.1205 160.384 52.9465 159.124 54.8545L157.648 53.5585C159.016 51.5605 159.7 48.3385 159.736 43.8925V42.5245H158.062V40.7065ZM190.534 42.5245C191.722 43.9645 192.622 45.2425 193.234 46.3225L191.83 47.2945C191.596 46.8985 191.344 46.4845 191.092 46.0525C189.724 46.2505 188.14 46.4305 186.322 46.5745L186.898 46.8085C186.772 47.0785 186.664 47.3305 186.556 47.5645H191.542V49.0765C191.146 50.2105 190.426 51.2005 189.364 52.0645C190.66 52.5865 192.1 53.0185 193.72 53.3425L192.658 54.9085C190.768 54.4585 189.112 53.8825 187.69 53.1625C186.322 53.8825 184.612 54.4765 182.56 54.9265L181.714 53.3785C183.352 53.0545 184.756 52.6405 185.926 52.1365C185.35 51.7585 184.81 51.3625 184.342 50.9305C183.91 51.3985 183.442 51.8125 182.974 52.1905L181.624 51.0385C182.182 50.6245 182.686 50.1745 183.136 49.6885C182.812 49.3105 182.506 48.9325 182.254 48.5365L183.712 47.7085C183.856 47.9245 184 48.1405 184.18 48.3565C184.54 47.8165 184.846 47.2405 185.116 46.6645L182.956 46.8085L182.452 45.3505C183.694 44.9365 185.08 44.0725 186.628 42.7585C185.656 42.8485 184.504 42.9385 183.19 43.0465L182.956 41.5525C183.496 41.5165 183.964 41.2645 184.36 40.8145C184.81 40.2925 185.44 39.3745 186.232 38.0605L187.906 38.7085C187.222 39.6805 186.502 40.5805 185.746 41.3905C186.682 41.3005 187.546 41.2105 188.374 41.1205C188.842 40.6525 189.292 40.1665 189.76 39.6625L191.398 40.4725C189.436 42.5245 187.654 44.1085 186.052 45.2065C187.564 45.0265 188.932 44.8465 190.12 44.6485C189.832 44.2345 189.508 43.8205 189.184 43.3885L190.534 42.5245ZM187.618 51.2365C188.518 50.6245 189.184 49.9405 189.634 49.1665H185.674L185.368 49.6345C186.016 50.2105 186.772 50.7505 187.618 51.2365ZM180.58 38.1145L182.236 38.9065C181.3 40.8505 179.698 42.6325 177.412 44.2165L176.836 42.3985C178.528 41.1745 179.77 39.7525 180.58 38.1145ZM180.994 42.7225L182.632 43.4965C182.2 44.3965 181.66 45.2425 180.994 46.0525V54.7465H179.194V47.8885C178.672 48.3205 178.132 48.7525 177.556 49.1665L176.998 47.3845C178.78 46.0525 180.112 44.5045 180.994 42.7225ZM200.83 39.8785C202.126 39.8785 203.188 40.1845 203.98 40.8145C204.754 41.4445 205.15 42.3085 205.15 43.4245C205.15 44.8285 204.43 45.7645 203.008 46.2325C203.764 46.4665 204.358 46.8085 204.754 47.2765C205.186 47.7625 205.402 48.3925 205.402 49.1485C205.402 50.3365 204.988 51.3085 204.16 52.0645C203.296 52.8385 202.162 53.2345 200.758 53.2345C199.426 53.2345 198.346 52.8925 197.536 52.2085C196.636 51.4525 196.132 50.3365 196.024 48.8965H198.166C198.202 49.7245 198.454 50.3725 198.958 50.8225C199.408 51.2365 200.002 51.4525 200.74 51.4525C201.55 51.4525 202.198 51.2185 202.666 50.7685C203.08 50.3545 203.296 49.8505 203.296 49.2385C203.296 48.5005 203.062 47.9605 202.63 47.6185C202.198 47.2585 201.568 47.0965 200.74 47.0965H199.84V45.5125H200.74C201.496 45.5125 202.072 45.3505 202.468 45.0265C202.846 44.7025 203.044 44.2165 203.044 43.5865C203.044 42.9565 202.864 42.4885 202.522 42.1645C202.144 41.8405 201.586 41.6785 200.848 41.6785C200.092 41.6785 199.516 41.8585 199.102 42.2365C198.67 42.6145 198.418 43.1905 198.346 43.9645H196.276C196.384 42.6685 196.852 41.6605 197.716 40.9405C198.526 40.2205 199.57 39.8785 200.83 39.8785ZM211.676 38.1505L213.368 38.9425C212.936 40.2745 212.396 41.5345 211.73 42.7225V54.8905H209.858V45.5305C209.39 46.1065 208.904 46.6825 208.382 47.2405L207.77 45.2785C209.534 43.2625 210.83 40.8865 211.676 38.1505ZM224.042 38.7265V54.8365H222.35V53.8285H215.114V54.8365H213.44V38.7265H224.042ZM215.114 52.1545H222.35V40.3465H215.114V52.1545ZM215.654 42.8305H217.958V41.0485H219.56V42.8305H221.846V44.4145H219.56V46.1245H221.306V51.4345H216.266V46.1245H217.958V44.4145H215.654V42.8305ZM219.848 50.0125V47.5465H217.724V50.0125H219.848ZM232.178 44.8645V47.5285H239.288V44.8645H232.178ZM239.288 43.1185V40.5985H232.178V43.1185H239.288ZM232.07 49.2745C231.818 51.5425 231.134 53.4505 230.018 54.9805L228.578 53.6665C229.694 52.1005 230.252 50.0845 230.288 47.6365V38.7985H241.196V52.9105C241.196 54.0985 240.584 54.6925 239.36 54.6925H237.056L236.552 52.8565C237.344 52.9105 238.082 52.9465 238.748 52.9465C239.108 52.9465 239.288 52.6945 239.288 52.2265V49.2745H232.07Z" fill="white"/>
<circle cx="282.5" cy="33.9825" r="3" fill="white"/>
</g>
<defs>
<filter id="filter0_d_1603_23115" x="0.5" y="0.982544" width="305" height="72" filterUnits="userSpaceOnUse" color-interpolation-filters="sRGB">
<feFlood flood-opacity="0" result="BackgroundImageFix"/>
<feColorMatrix in="SourceAlpha" type="matrix" values="0 0 0 0 0 0 0 0 0 0 0 0 0 0 0 0 0 0 127 0" result="hardAlpha"/>
<feOffset dy="6"/>
<feComposite in2="hardAlpha" operator="out"/>
<feColorMatrix type="matrix" values="0 0 0 0 0.654902 0 0 0 0 0.270588 0 0 0 0 0 0 0 0 1 0"/>
<feBlend mode="normal" in2="BackgroundImageFix" result="effect1_dropShadow_1603_23115"/>
<feBlend mode="normal" in="SourceGraphic" in2="effect1_dropShadow_1603_23115" result="shape"/>
</filter>
</defs>
</svg>
