<svg width="644" height="73" viewBox="0 0 644 73" fill="none" xmlns="http://www.w3.org/2000/svg">
<g filter="url(#filter0_d_1600_25358)">
<rect x="0.417969" y="0.945801" width="643" height="66" rx="33" fill="#D65800" shape-rendering="crispEdges"/>
<circle cx="28.418" cy="33.9458" r="4" fill="white"/>
<path d="M57.4796 31.0418C56.6636 31.5698 55.7516 32.0498 54.7916 32.4578L53.3516 30.3698C56.8556 28.9778 59.3036 26.6978 60.6476 23.5058L62.7836 24.4658C62.0636 26.2418 61.0796 27.8018 59.8316 29.0978H70.4636C69.2156 27.7058 67.8236 26.2418 66.2876 24.7298L68.1596 23.3618C71.3276 26.3378 73.7516 28.9538 75.4316 31.2098L73.3676 32.6498C72.8156 31.9298 72.2396 31.1858 71.6156 30.4418V37.5218H68.5196V41.8898C68.5196 42.4178 68.8076 42.6818 69.3836 42.6818H72.2156C72.5036 42.6818 72.7196 42.5618 72.8636 42.3218C73.0076 42.0578 73.1276 41.3138 73.1756 40.0898L75.5036 40.8098C75.3116 42.8738 74.9996 44.1218 74.5676 44.5058C74.1596 44.8658 73.5356 45.0578 72.6956 45.0578H68.6156C66.9116 45.0578 66.0716 44.1698 66.0716 42.3938V37.5218H62.9756C62.4476 41.1698 59.8556 43.8098 55.2476 45.4658L53.8796 43.2578C57.7196 42.1058 59.9276 40.2098 60.5036 37.5218H57.4796V31.0418ZM69.1676 35.1698V31.4498H59.9276V35.1698H69.1676ZM81.8876 45.1778H79.8236L79.2716 42.7538C79.8956 42.8498 80.4716 42.8978 81.0236 42.8978C81.4556 42.8978 81.6716 42.6098 81.6716 42.0818V37.0898C80.9036 37.3778 80.1356 37.6418 79.3676 37.8818L78.7676 35.4818C79.7516 35.2418 80.7116 34.9778 81.6716 34.6418V29.7698H79.2236V27.3938H81.6716V23.2658H84.0716V27.3938H85.9196V28.5458C87.6956 27.2498 89.2316 25.4258 90.5756 23.1218L92.8316 23.6258C92.6636 23.9378 92.4956 24.2498 92.3276 24.5378H97.6556V26.2178C97.0556 27.0818 96.4556 27.8258 95.8316 28.4738H99.6236V37.4258H101.016V39.6338H94.1036C93.6956 40.5938 93.1916 41.4098 92.5676 42.1298C91.4156 43.4498 89.3516 44.5058 86.4236 45.2738L85.5116 43.1618C87.9356 42.5618 89.6876 41.7218 90.7676 40.6658C91.0556 40.3298 91.3196 39.9938 91.5596 39.6338H86.1596V37.4258H87.6716V30.1298L87.2396 30.4898L85.9196 28.9298V29.7698H84.0716V33.6818C84.7916 33.3458 85.4876 33.0098 86.1836 32.6258V35.0738C85.4636 35.4338 84.7676 35.7698 84.0716 36.1058V42.7058C84.0716 44.3378 83.3276 45.1778 81.8876 45.1778ZM92.9996 28.4738C93.5756 27.8978 94.1516 27.2738 94.7516 26.5538H91.0076C90.4796 27.2258 89.9516 27.8738 89.4236 28.4738H92.9996ZM89.8796 37.4258H92.4716C92.5916 36.9458 92.6876 36.4418 92.7356 35.9618L94.9436 36.2018C94.8956 36.6338 94.8236 37.0418 94.7516 37.4258H97.3916V30.4898H89.8796V37.4258ZM93.6476 34.0418C93.0476 35.0018 92.3276 35.7218 91.4876 36.2498L90.3116 34.7378C91.7516 33.8258 92.6876 32.5058 93.0716 30.8258L94.8716 31.0658C94.7276 31.5938 94.5596 32.0738 94.3916 32.5058C95.4236 33.1298 96.3116 33.8258 97.0556 34.5698L95.8556 36.0098C95.2316 35.2898 94.5116 34.6418 93.6476 34.0418ZM95.1596 40.1138C97.3436 41.0498 99.3356 42.1778 101.136 43.4738L99.8396 45.4658C97.9436 43.9538 95.9756 42.7538 93.9596 41.8898L95.1596 40.1138ZM105.984 23.3618H108.384V25.7618H112.344V23.4098H114.744V25.7618H115.92V28.0898H114.744V37.4738H116.04V39.8018H104.496V37.4738H105.984V28.0898H104.76V25.7618H105.984V23.3618ZM108.384 37.4738H112.344V35.8178H108.384V37.4738ZM112.344 28.0898H108.384V29.7698H112.344V28.0898ZM108.384 33.6338H112.344V31.9538H108.384V33.6338ZM112.68 39.9458C113.616 41.1458 114.36 42.2018 114.912 43.1138C116.184 41.0258 116.832 38.5058 116.856 35.5298V23.9618H125.568V42.8258C125.568 44.4098 124.752 45.2258 123.12 45.2258H120.624L119.952 42.7778C120.816 42.8498 121.608 42.8978 122.328 42.8978C122.808 42.8978 123.048 42.5618 123.048 41.9138V37.7858H119.208C118.848 40.9298 117.888 43.5458 116.328 45.6338L114.576 44.0498L113.136 45.0578C112.56 43.9058 111.744 42.6098 110.736 41.1698L112.68 39.9458ZM107.256 40.0178L109.248 40.9778C108.384 42.7058 107.4 44.1698 106.272 45.4178L104.256 43.9778C105.408 42.8738 106.416 41.5538 107.256 40.0178ZM119.352 32.0498V35.5058H123.048V32.0498H119.352ZM123.048 29.7698V26.3138H119.352V29.7698H123.048ZM136.08 33.7778H145.44V43.5458H136.08V33.7778ZM143.064 41.4818V39.6338H138.48V41.4818H143.064ZM138.48 37.6418H143.064V35.8418H138.48V37.6418ZM133.296 29.0498V30.2018H137.376V29.0498H133.296ZM137.376 27.1778V26.0738H133.296V27.1778H137.376ZM144.024 29.0978V30.2018H148.248V29.0978H144.024ZM148.248 27.2258V26.0978H144.024V27.2258H148.248ZM139.872 23.8658V32.4098H133.296V45.4178H130.824V23.8658H139.872ZM148.248 32.4098H141.528V23.8418H150.72V43.1138C150.72 44.6258 149.976 45.3938 148.512 45.3938C147.744 45.3938 147 45.3458 146.28 45.2978L145.608 42.8978C146.328 42.9938 147 43.0418 147.624 43.0418C148.032 43.0418 148.248 42.7778 148.248 42.2978V32.4098ZM174.552 25.8578V45.4418H172.008V44.1458H160.44V45.4418H157.896V25.8578H163.08C163.56 24.9938 163.944 24.0818 164.184 23.1698L166.728 23.5298C166.488 24.3698 166.152 25.1378 165.744 25.8578H174.552ZM160.44 41.7698H172.008V38.6258H160.44V41.7698ZM160.44 36.3218H172.008V33.3698H160.44V36.3218ZM160.44 31.0658H172.008V28.2578H160.44V31.0658ZM194.664 25.8098H196.776V42.9458H193.968V29.1938C192.936 30.1298 191.64 30.8258 190.056 31.2818V28.4978C190.824 28.3058 191.64 27.9698 192.504 27.4898C193.368 26.9618 194.088 26.4098 194.664 25.8098ZM205.948 25.8098H208.06V42.9458H205.252V29.1938C204.22 30.1298 202.924 30.8258 201.34 31.2818V28.4978C202.108 28.3058 202.924 27.9698 203.788 27.4898C204.652 26.9618 205.372 26.4098 205.948 25.8098ZM220.495 25.8098H223.063V37.0418H225.607V39.2738H223.063V42.9458H220.399V39.2738H212.119V36.6098L220.495 25.8098ZM220.327 29.3618L214.399 37.0418H220.399V29.3618H220.327ZM236.494 23.2658H238.846L230.518 45.3458H228.142L236.494 23.2658ZM248.134 25.4738C250.126 25.4738 251.686 26.2898 252.814 27.9698C253.87 29.5538 254.398 31.6898 254.398 34.3778C254.398 37.0658 253.87 39.2018 252.814 40.7858C251.686 42.4418 250.126 43.2818 248.134 43.2818C246.118 43.2818 244.558 42.4418 243.454 40.7858C242.398 39.2018 241.87 37.0658 241.87 34.3778C241.87 31.6898 242.398 29.5538 243.454 27.9698C244.558 26.2898 246.118 25.4738 248.134 25.4738ZM248.134 27.8498C246.766 27.8498 245.806 28.5938 245.254 30.1298C244.87 31.1618 244.678 32.5778 244.678 34.3778C244.678 36.1538 244.87 37.5698 245.254 38.6258C245.806 40.1378 246.766 40.9058 248.134 40.9058C249.478 40.9058 250.438 40.1378 251.014 38.6258C251.398 37.5698 251.59 36.1538 251.59 34.3778C251.59 32.5778 251.398 31.1618 251.014 30.1298C250.438 28.5938 249.478 27.8498 248.134 27.8498ZM264.133 25.4738C265.861 25.4738 267.277 25.8818 268.333 26.7218C269.365 27.5618 269.893 28.7138 269.893 30.2018C269.893 32.0738 268.933 33.3218 267.037 33.9458C268.045 34.2578 268.837 34.7138 269.365 35.3378C269.941 35.9858 270.229 36.8258 270.229 37.8338C270.229 39.4178 269.677 40.7138 268.573 41.7218C267.421 42.7538 265.909 43.2818 264.037 43.2818C262.261 43.2818 260.821 42.8258 259.741 41.9138C258.541 40.9058 257.869 39.4178 257.725 37.4978H260.581C260.629 38.6018 260.965 39.4658 261.637 40.0658C262.237 40.6178 263.029 40.9058 264.013 40.9058C265.093 40.9058 265.957 40.5938 266.581 39.9938C267.133 39.4418 267.421 38.7698 267.421 37.9538C267.421 36.9698 267.109 36.2498 266.533 35.7938C265.957 35.3138 265.117 35.0978 264.013 35.0978H262.813V32.9858H264.013C265.021 32.9858 265.789 32.7698 266.317 32.3378C266.821 31.9058 267.085 31.2578 267.085 30.4178C267.085 29.5778 266.845 28.9538 266.389 28.5218C265.885 28.0898 265.141 27.8738 264.157 27.8738C263.149 27.8738 262.381 28.1138 261.829 28.6178C261.253 29.1218 260.917 29.8898 260.821 30.9218H258.061C258.205 29.1938 258.829 27.8498 259.981 26.8898C261.061 25.9298 262.453 25.4738 264.133 25.4738ZM281.595 23.2658H283.947L275.619 45.3458H273.243L281.595 23.2658ZM293.235 25.4738C295.227 25.4738 296.787 26.2898 297.915 27.9698C298.971 29.5538 299.499 31.6898 299.499 34.3778C299.499 37.0658 298.971 39.2018 297.915 40.7858C296.787 42.4418 295.227 43.2818 293.235 43.2818C291.219 43.2818 289.659 42.4418 288.555 40.7858C287.499 39.2018 286.971 37.0658 286.971 34.3778C286.971 31.6898 287.499 29.5538 288.555 27.9698C289.659 26.2898 291.219 25.4738 293.235 25.4738ZM293.235 27.8498C291.867 27.8498 290.907 28.5938 290.355 30.1298C289.971 31.1618 289.779 32.5778 289.779 34.3778C289.779 36.1538 289.971 37.5698 290.355 38.6258C290.907 40.1378 291.867 40.9058 293.235 40.9058C294.579 40.9058 295.539 40.1378 296.115 38.6258C296.499 37.5698 296.691 36.1538 296.691 34.3778C296.691 32.5778 296.499 31.1618 296.115 30.1298C295.539 28.5938 294.579 27.8498 293.235 27.8498ZM307.434 25.8098H309.546V42.9458H306.738V29.1938C305.706 30.1298 304.41 30.8258 302.826 31.2818V28.4978C303.594 28.3058 304.41 27.9698 305.274 27.4898C306.138 26.9618 306.858 26.4098 307.434 25.8098ZM344.254 24.6338V32.9858H338.014V38.0738C338.014 38.5058 338.302 38.7458 338.926 38.7458H341.734C342.142 38.6978 342.43 38.5058 342.574 38.1218C342.694 37.8578 342.814 37.0178 342.934 35.5778L345.262 36.3218C345.118 37.7858 344.926 38.8178 344.734 39.4418C344.398 40.4738 343.678 41.0258 342.55 41.0738H337.87C336.334 41.0738 335.566 40.4018 335.566 39.0578V24.6338H344.254ZM338.014 30.7538H341.878V26.8658H338.014V30.7538ZM328.27 23.1218H330.766V26.1938H334.198V28.4498H330.766V31.2818H334.51V33.5858H331.27V36.2738H334.39V38.5298H331.27V42.3218C332.758 42.6098 335.398 42.7778 339.19 42.7778C342.118 42.7538 344.302 42.7058 345.742 42.6098L345.31 45.0098H339.718C334.102 45.0098 330.574 44.6738 329.158 44.0498C328.15 43.5938 327.238 42.8498 326.446 41.7938C326.11 43.0898 325.726 44.3378 325.246 45.4898L323.326 43.7858C324.382 41.0738 324.958 38.0738 325.102 34.7618L327.334 35.0258C327.286 36.4658 327.166 37.8338 326.974 39.1778C327.55 40.0658 328.174 40.7618 328.846 41.2658V33.5858H324.166V31.2818H328.27V28.4498H324.574V26.1938H328.27V23.1218ZM349.894 24.2018H370.054V26.6018H358.942C357.694 28.5698 356.326 30.2258 354.79 31.5698C358.03 31.3298 361.198 30.9698 364.318 30.4898C363.742 29.8178 363.166 29.1698 362.542 28.4978L364.582 27.2018C366.79 29.5298 368.47 31.5458 369.646 33.2738L367.582 34.7378C367.102 34.0178 366.598 33.2978 366.046 32.5778C361.198 33.2978 356.23 33.8018 351.142 34.0418L350.47 31.8818C352.63 30.6818 354.478 28.9298 356.014 26.6018H349.894V24.2018ZM350.878 36.6338H358.75V34.3058H361.294V36.6338H368.998V39.0098H361.294V42.1298H370.678V44.5778H349.366V42.1298H358.75V39.0098H350.878V36.6338ZM378.478 31.0418C377.662 31.5698 376.75 32.0498 375.79 32.4578L374.35 30.3698C377.854 28.9778 380.302 26.6978 381.646 23.5058L383.782 24.4658C383.062 26.2418 382.078 27.8018 380.83 29.0978H391.462C390.214 27.7058 388.822 26.2418 387.286 24.7298L389.158 23.3618C392.326 26.3378 394.75 28.9538 396.43 31.2098L394.366 32.6498C393.814 31.9298 393.238 31.1858 392.614 30.4418V37.5218H389.518V41.8898C389.518 42.4178 389.806 42.6818 390.382 42.6818H393.214C393.502 42.6818 393.718 42.5618 393.862 42.3218C394.006 42.0578 394.126 41.3138 394.174 40.0898L396.502 40.8098C396.31 42.8738 395.998 44.1218 395.566 44.5058C395.158 44.8658 394.534 45.0578 393.694 45.0578H389.614C387.91 45.0578 387.07 44.1698 387.07 42.3938V37.5218H383.974C383.446 41.1698 380.854 43.8098 376.246 45.4658L374.878 43.2578C378.718 42.1058 380.926 40.2098 381.502 37.5218H378.478V31.0418ZM390.166 35.1698V31.4498H380.926V35.1698H390.166ZM402.886 45.1778H400.822L400.27 42.7538C400.894 42.8498 401.47 42.8978 402.022 42.8978C402.454 42.8978 402.67 42.6098 402.67 42.0818V37.0898C401.902 37.3778 401.134 37.6418 400.366 37.8818L399.766 35.4818C400.75 35.2418 401.71 34.9778 402.67 34.6418V29.7698H400.222V27.3938H402.67V23.2658H405.07V27.3938H406.918V28.5458C408.694 27.2498 410.23 25.4258 411.574 23.1218L413.83 23.6258C413.662 23.9378 413.494 24.2498 413.326 24.5378H418.654V26.2178C418.054 27.0818 417.454 27.8258 416.83 28.4738H420.622V37.4258H422.014V39.6338H415.102C414.694 40.5938 414.19 41.4098 413.566 42.1298C412.414 43.4498 410.35 44.5058 407.422 45.2738L406.51 43.1618C408.934 42.5618 410.686 41.7218 411.766 40.6658C412.054 40.3298 412.318 39.9938 412.558 39.6338H407.158V37.4258H408.67V30.1298L408.238 30.4898L406.918 28.9298V29.7698H405.07V33.6818C405.79 33.3458 406.486 33.0098 407.182 32.6258V35.0738C406.462 35.4338 405.766 35.7698 405.07 36.1058V42.7058C405.07 44.3378 404.326 45.1778 402.886 45.1778ZM413.998 28.4738C414.574 27.8978 415.15 27.2738 415.75 26.5538H412.006C411.478 27.2258 410.95 27.8738 410.422 28.4738H413.998ZM410.878 37.4258H413.47C413.59 36.9458 413.686 36.4418 413.734 35.9618L415.942 36.2018C415.894 36.6338 415.822 37.0418 415.75 37.4258H418.39V30.4898H410.878V37.4258ZM414.646 34.0418C414.046 35.0018 413.326 35.7218 412.486 36.2498L411.31 34.7378C412.75 33.8258 413.686 32.5058 414.07 30.8258L415.87 31.0658C415.726 31.5938 415.558 32.0738 415.39 32.5058C416.422 33.1298 417.31 33.8258 418.054 34.5698L416.854 36.0098C416.23 35.2898 415.51 34.6418 414.646 34.0418ZM416.158 40.1138C418.342 41.0498 420.334 42.1778 422.134 43.4738L420.838 45.4658C418.942 43.9538 416.974 42.7538 414.958 41.8898L416.158 40.1138ZM432.958 38.1218H430.102V36.8738C428.974 37.7138 427.774 38.4578 426.478 39.0818L425.086 36.9698C427.294 36.0338 429.142 34.8098 430.63 33.2978H425.926V31.0418H432.502C432.91 30.4178 433.294 29.7458 433.63 29.0738H427.246V26.8658H430.582C430.078 25.7378 429.55 24.7298 428.974 23.8658L431.134 23.1458C431.758 24.1298 432.286 25.1858 432.766 26.3378L431.59 26.8658H434.542C434.926 25.6418 435.238 24.3458 435.454 23.0018L437.95 23.3138C437.734 24.5618 437.446 25.7378 437.086 26.8658H441.022L440.086 26.3378C440.806 25.3778 441.406 24.2978 441.862 23.0498L443.95 23.8178C443.47 24.9698 442.918 25.9778 442.246 26.8658H445.438V29.0738H436.27C435.982 29.7458 435.646 30.4178 435.286 31.0418H446.758V33.2978H442.246C443.398 34.6418 445.174 35.8418 447.574 36.8978L445.942 38.9378C444.79 38.2658 443.782 37.5698 442.918 36.8738C442.822 38.6978 442.726 40.2338 442.582 41.4338C442.39 42.8258 442.054 43.8098 441.622 44.3858C441.166 44.9138 440.446 45.2258 439.486 45.2738H435.55L434.902 42.9218C436.102 42.9938 437.23 43.0418 438.286 43.0418C439.15 43.0418 439.702 42.7298 439.966 42.1298C440.254 41.5058 440.422 40.1618 440.518 38.1218H435.286C434.806 39.7778 434.182 41.1218 433.414 42.1298C432.358 43.3778 430.822 44.4818 428.806 45.4898L427.246 43.4738C429.022 42.7058 430.39 41.8658 431.326 40.9538C431.998 40.2338 432.55 39.2738 432.958 38.1218ZM433.774 33.2978C433.054 34.2098 432.262 35.0498 431.422 35.8178H441.718C440.854 35.0018 440.158 34.1618 439.63 33.2978H433.774ZM453.766 26.3618C454.75 26.9858 455.566 27.5378 456.238 28.0658C457.174 27.4418 457.942 26.7938 458.542 26.0978H452.518V23.9378H461.398V25.7378C460.654 27.2258 459.502 28.5458 457.918 29.6498H460.486V35.8658H455.134L454.822 37.8338H460.63C460.63 40.7618 460.486 42.7298 460.246 43.7378C459.958 44.7218 458.758 45.2738 456.622 45.3698C455.782 45.3698 454.942 45.3218 454.078 45.2738L453.478 43.0658C454.342 43.1138 455.206 43.1618 456.094 43.1618C457.27 43.1618 457.942 42.9458 458.134 42.5618C458.278 42.1298 458.374 41.2658 458.374 39.9218H452.422L453.238 33.7538H458.302V31.8098H453.79C453.214 32.0018 452.662 32.2178 452.086 32.4098L450.574 30.4418C451.438 30.2018 452.23 29.9378 452.95 29.6738V29.6498H452.998C453.43 29.4818 453.862 29.3138 454.246 29.1458C453.574 28.6178 452.806 28.0658 451.942 27.5138L453.766 26.3618ZM467.542 23.1698L469.294 24.2738C468.718 24.9218 468.166 25.4498 467.59 25.8578C467.302 26.0498 466.942 26.2658 466.558 26.5058C466.87 26.7458 467.206 26.9618 467.542 27.2018C467.974 26.9618 468.406 26.7218 468.838 26.4338C469.39 26.0018 469.918 25.4978 470.398 24.8978L472.15 25.9778C471.55 26.7218 470.95 27.3458 470.326 27.8258C470.086 27.9938 469.846 28.1618 469.558 28.3538C470.59 28.8818 471.718 29.3378 472.966 29.7698L471.286 31.7618C470.566 31.4738 469.918 31.1618 469.294 30.8738V32.3378C469.294 32.7698 469.582 32.9858 470.206 32.9858H471.406V35.0018H469.558C467.974 35.0018 467.206 34.2818 467.206 32.8418V31.7858H464.47C464.47 32.5538 464.302 33.2258 463.99 33.8498C463.654 34.4738 463.054 35.0738 462.214 35.6258L460.51 34.1138C461.278 33.4898 461.806 32.8898 462.046 32.3618C462.238 31.8098 462.358 30.9458 462.358 29.7458H467.254C464.854 28.2818 463.054 26.6018 461.854 24.6818L463.822 23.5538C464.158 24.1058 464.566 24.6338 465.046 25.1378C465.406 24.9458 465.766 24.7298 466.102 24.5138C466.606 24.1298 467.086 23.6978 467.542 23.1698ZM461.758 35.9378H470.422V38.0258C469.99 39.2738 469.366 40.4018 468.526 41.3858C469.918 42.1538 471.19 42.9218 472.318 43.6898L470.59 45.4418C469.558 44.6258 468.334 43.8098 466.894 42.9458C465.55 43.9538 463.942 44.7938 462.046 45.4178L461.11 43.2338C462.454 42.8018 463.63 42.2738 464.638 41.6498C463.726 41.1458 462.742 40.6418 461.71 40.1378L463.222 38.6978C464.326 39.2018 465.358 39.7058 466.366 40.2338C466.99 39.6098 467.494 38.9138 467.902 38.1458H461.758V35.9378ZM476.446 26.5778H480.646C480.238 25.5698 479.782 24.6098 479.278 23.6738L481.702 23.0018C482.302 24.2978 482.782 25.4738 483.166 26.5778H486.598V29.0018H481.006V30.8258C481.006 31.1618 480.982 31.4978 480.982 31.8338H485.566C485.566 37.8818 485.446 41.6018 485.254 42.9938C487.462 41.8658 489.214 40.4018 490.558 38.6018C489.55 36.9218 488.758 35.1458 488.134 33.2498L490.102 32.1458C490.582 33.6338 491.206 35.0018 491.95 36.2738C492.958 34.1858 493.558 31.7858 493.702 29.0498H490.222C489.382 31.1378 488.326 32.8898 487.054 34.3058L485.566 32.4338C487.39 30.1298 488.638 27.0578 489.286 23.1938L491.734 23.6258C491.542 24.6818 491.302 25.6658 491.038 26.6258H497.59V29.0498H496.054C495.862 32.7458 494.998 35.9138 493.486 38.6018C494.83 40.3778 496.414 41.9378 498.262 43.3298L496.558 45.3458C494.806 43.9778 493.294 42.4658 492.022 40.7858C490.558 42.5858 488.734 44.0978 486.55 45.3458L485.206 43.2098C484.894 44.5058 483.838 45.1538 482.062 45.1538C481.726 45.1538 481.174 45.1058 480.358 45.0098L479.782 42.8738C480.502 42.9218 481.126 42.9698 481.678 42.9698C482.422 42.9698 482.854 42.5858 482.998 41.8658C483.094 41.1458 483.166 38.5538 483.214 34.1378H480.886C480.55 39.1298 479.542 42.8978 477.862 45.4418L475.894 43.7138C477.718 41.0498 478.63 36.7538 478.678 30.8258V29.0018H476.446V26.5778ZM519.742 29.0018C521.326 30.9218 522.526 32.6258 523.342 34.0658L521.47 35.3618C521.158 34.8338 520.822 34.2818 520.486 33.7058C518.662 33.9698 516.55 34.2098 514.126 34.4018L514.894 34.7138C514.726 35.0738 514.582 35.4098 514.438 35.7218H521.086V37.7378C520.558 39.2498 519.598 40.5698 518.182 41.7218C519.91 42.4178 521.83 42.9938 523.99 43.4258L522.574 45.5138C520.054 44.9138 517.846 44.1458 515.95 43.1858C514.126 44.1458 511.846 44.9378 509.11 45.5378L507.982 43.4738C510.166 43.0418 512.038 42.4898 513.598 41.8178C512.83 41.3138 512.11 40.7858 511.486 40.2098C510.91 40.8338 510.286 41.3858 509.662 41.8898L507.862 40.3538C508.606 39.8018 509.278 39.2018 509.878 38.5538C509.446 38.0498 509.038 37.5458 508.702 37.0178L510.646 35.9138C510.838 36.2018 511.03 36.4898 511.27 36.7778C511.75 36.0578 512.158 35.2898 512.518 34.5218L509.638 34.7138L508.966 32.7698C510.622 32.2178 512.47 31.0658 514.534 29.3138C513.238 29.4338 511.702 29.5538 509.95 29.6978L509.638 27.7058C510.358 27.6578 510.982 27.3218 511.51 26.7218C512.11 26.0258 512.95 24.8018 514.006 23.0498L516.238 23.9138C515.326 25.2098 514.366 26.4098 513.358 27.4898C514.606 27.3698 515.758 27.2498 516.862 27.1298C517.486 26.5058 518.086 25.8578 518.71 25.1858L520.894 26.2658C518.278 29.0018 515.902 31.1138 513.766 32.5778C515.782 32.3378 517.606 32.0978 519.19 31.8338C518.806 31.2818 518.374 30.7298 517.942 30.1538L519.742 29.0018ZM515.854 40.6178C517.054 39.8018 517.942 38.8898 518.542 37.8578H513.262L512.854 38.4818C513.718 39.2498 514.726 39.9698 515.854 40.6178ZM506.47 23.1218L508.678 24.1778C507.43 26.7698 505.294 29.1458 502.246 31.2578L501.478 28.8338C503.734 27.2018 505.39 25.3058 506.47 23.1218ZM507.022 29.2658L509.206 30.2978C508.63 31.4978 507.91 32.6258 507.022 33.7058V45.2978H504.622V36.1538C503.926 36.7298 503.206 37.3058 502.438 37.8578L501.694 35.4818C504.07 33.7058 505.846 31.6418 507.022 29.2658ZM533.47 25.4738C535.198 25.4738 536.614 25.8818 537.67 26.7218C538.702 27.5618 539.23 28.7138 539.23 30.2018C539.23 32.0738 538.27 33.3218 536.374 33.9458C537.382 34.2578 538.174 34.7138 538.702 35.3378C539.278 35.9858 539.566 36.8258 539.566 37.8338C539.566 39.4178 539.014 40.7138 537.91 41.7218C536.758 42.7538 535.246 43.2818 533.374 43.2818C531.598 43.2818 530.158 42.8258 529.078 41.9138C527.878 40.9058 527.206 39.4178 527.062 37.4978H529.918C529.966 38.6018 530.302 39.4658 530.974 40.0658C531.574 40.6178 532.366 40.9058 533.35 40.9058C534.43 40.9058 535.294 40.5938 535.918 39.9938C536.47 39.4418 536.758 38.7698 536.758 37.9538C536.758 36.9698 536.446 36.2498 535.87 35.7938C535.294 35.3138 534.454 35.0978 533.35 35.0978H532.15V32.9858H533.35C534.358 32.9858 535.126 32.7698 535.654 32.3378C536.158 31.9058 536.422 31.2578 536.422 30.4178C536.422 29.5778 536.182 28.9538 535.726 28.5218C535.222 28.0898 534.478 27.8738 533.494 27.8738C532.486 27.8738 531.718 28.1138 531.166 28.6178C530.59 29.1218 530.254 29.8898 530.158 30.9218H527.398C527.542 29.1938 528.166 27.8498 529.318 26.8898C530.398 25.9298 531.79 25.4738 533.47 25.4738ZM547.932 23.1698L550.188 24.2258C549.612 26.0018 548.892 27.6818 548.004 29.2658V45.4898H545.508V33.0098C544.884 33.7778 544.236 34.5458 543.54 35.2898L542.724 32.6738C545.076 29.9858 546.804 26.8178 547.932 23.1698ZM564.42 23.9378V45.4178H562.164V44.0738H552.516V45.4178H550.284V23.9378H564.42ZM552.516 41.8418H562.164V26.0978H552.516V41.8418ZM553.236 29.4098H556.308V27.0338H558.444V29.4098H561.492V31.5218H558.444V33.8018H560.772V40.8818H554.052V33.8018H556.308V31.5218H553.236V29.4098ZM558.828 38.9858V35.6978H555.996V38.9858H558.828ZM575.268 32.1218V35.6738H584.748V32.1218H575.268ZM584.748 29.7938V26.4338H575.268V29.7938H584.748ZM575.124 38.0018C574.788 41.0258 573.876 43.5698 572.388 45.6098L570.468 43.8578C571.956 41.7698 572.7 39.0818 572.748 35.8178V24.0338H587.292V42.8498C587.292 44.4338 586.476 45.2258 584.844 45.2258H581.772L581.1 42.7778C582.156 42.8498 583.14 42.8978 584.028 42.8978C584.508 42.8978 584.748 42.5618 584.748 41.9378V38.0018H575.124Z" fill="white"/>
<circle cx="615.418" cy="33.9458" r="4" fill="white"/>
</g>
<defs>
<filter id="filter0_d_1600_25358" x="0.417969" y="0.945801" width="643" height="72" filterUnits="userSpaceOnUse" color-interpolation-filters="sRGB">
<feFlood flood-opacity="0" result="BackgroundImageFix"/>
<feColorMatrix in="SourceAlpha" type="matrix" values="0 0 0 0 0 0 0 0 0 0 0 0 0 0 0 0 0 0 127 0" result="hardAlpha"/>
<feOffset dy="6"/>
<feComposite in2="hardAlpha" operator="out"/>
<feColorMatrix type="matrix" values="0 0 0 0 0.654902 0 0 0 0 0.270588 0 0 0 0 0 0 0 0 1 0"/>
<feBlend mode="normal" in2="BackgroundImageFix" result="effect1_dropShadow_1600_25358"/>
<feBlend mode="normal" in="SourceGraphic" in2="effect1_dropShadow_1600_25358" result="shape"/>
</filter>
</defs>
</svg>
