<svg width="390" height="104" viewBox="0 0 390 104" fill="none" xmlns="http://www.w3.org/2000/svg">
<path d="M0 0H390L373.857 52L390 104H0L15.7449 52L0 0Z" fill="#076ED7"/>
<circle cx="63.7852" cy="51.5" r="4" fill="white"/>
<mask id="path-3-outside-1_1600_25611" maskUnits="userSpaceOnUse" x="86.7852" y="24" width="220" height="59" fill="black">
<rect fill="white" x="86.7852" y="24" width="220" height="59"/>
<path d="M108.489 36.768L105.177 41.424C103.257 39.888 99.1772 37.584 96.2492 36.096L99.4172 31.92C102.297 33.168 106.425 35.28 108.489 36.768ZM105.705 49.872L102.537 54.624C100.617 53.136 96.5372 50.88 93.6092 49.44L96.6332 45.168C99.4652 46.416 103.593 48.432 105.705 49.872ZM103.929 56.88L108.153 60.672C105.609 65.712 102.585 71.184 99.6572 75.84L94.8572 72C97.4012 68.352 101.097 62.4 103.929 56.88ZM126.105 69.36H138.249V74.784H107.097V69.36H120.153V59.568H110.457V54.144H120.153V45.696H108.537V40.272H121.305C120.729 38.256 119.289 35.232 117.945 32.928L123.225 31.152C124.665 33.408 126.345 36.528 127.017 38.592L122.361 40.272H137.001V45.696H126.105V54.144H135.273V59.568H126.105V69.36ZM175.785 38.448H163.305C163.833 39.504 164.361 40.8 164.649 41.808H174.441C174.921 40.704 175.449 39.456 175.785 38.448ZM190.377 41.808V46.224H148.857V41.808H158.889C158.649 40.896 158.265 39.936 157.929 39.168L161.529 38.448H151.209V34.032H166.761C166.521 33.264 166.233 32.448 165.945 31.776L171.513 30.768C172.041 31.728 172.521 32.928 172.905 34.032H187.833V38.448H177.993L181.833 39.12C181.257 40.08 180.777 40.992 180.297 41.808H190.377ZM179.529 53.568V51.504H159.657V53.568H179.529ZM179.529 58.992V56.928H159.657V58.992H179.529ZM185.193 47.952V62.592H170.505C172.377 63.6 174.345 64.8 175.545 65.76L172.041 69.264C170.457 67.776 167.193 65.76 164.505 64.512L166.473 62.592H154.281V47.952H185.193ZM152.265 74.976L147.513 72.192C150.009 70.128 152.169 66.912 153.465 64.032L158.217 66.144C156.777 69.168 154.761 72.672 152.265 74.976ZM167.433 71.088H174.057C175.833 71.088 176.121 70.56 176.361 67.2C177.465 67.92 179.721 68.688 181.209 68.976C180.585 74.304 179.049 75.648 174.585 75.648H166.857C160.809 75.648 159.321 74.256 159.321 69.744V64.704H164.889V69.696C164.889 70.944 165.273 71.088 167.433 71.088ZM180.441 65.616L185.049 63.6C187.305 66.144 189.849 69.648 190.905 72.096L185.961 74.304C185.097 71.952 182.697 68.304 180.441 65.616ZM234.681 65.088V62.832H226.041V65.088H234.681ZM226.041 56.4V58.464H234.681V56.4H226.041ZM212.697 46.848H220.233V44.544H212.697V46.848ZM233.817 44.544H226.041V46.848H233.817V44.544ZM245.481 58.464V62.832H240.489V71.184H234.681V69.216H226.041V70.704C226.041 73.536 225.369 74.688 223.497 75.504C221.673 76.224 219.081 76.32 215.001 76.32C214.713 74.976 213.849 73.008 213.129 71.808C215.433 71.904 218.265 71.904 219.033 71.904C219.945 71.856 220.233 71.568 220.233 70.704V69.216H205.641V65.088H220.233V62.832H201.225V58.464H220.233V56.4H206.025V52.56H220.233V50.448H207.225V40.944H220.233V38.976H202.329V34.464H220.233V31.344H226.041V34.464H244.377V38.976H226.041V40.944H239.673V50.448H226.041V52.56H240.489V58.464H245.481ZM272.361 56.496L273.273 61.44C267.465 63.648 261.225 65.904 256.425 67.632L254.073 62.16C255.897 61.632 258.201 60.96 260.697 60.192V41.76H255.369V36.48H271.785V41.76H266.457V58.416L272.361 56.496ZM279.657 59.472V62.544H292.233V59.472H279.657ZM279.657 52.464V55.536H292.233V52.464H279.657ZM279.657 45.6V48.624H292.233V45.6H279.657ZM297.801 66.72H279.609L284.025 69.84C280.857 72.288 275.817 74.784 271.593 76.128C270.825 75.024 269.289 73.296 268.137 72.24C272.025 71.04 276.777 68.688 279.225 66.72H274.377V41.376H281.913C282.153 40.272 282.345 39.12 282.537 38.064H272.409V33.264H299.577V38.064H288.969C288.585 39.216 288.153 40.32 287.769 41.376H297.801V66.72ZM286.617 69.888L290.841 66.864C293.865 68.496 298.185 71.04 300.393 72.864L295.881 76.224C293.913 74.448 289.737 71.712 286.617 69.888Z"/>
</mask>
<path d="M108.489 36.768L105.177 41.424C103.257 39.888 99.1772 37.584 96.2492 36.096L99.4172 31.92C102.297 33.168 106.425 35.28 108.489 36.768ZM105.705 49.872L102.537 54.624C100.617 53.136 96.5372 50.88 93.6092 49.44L96.6332 45.168C99.4652 46.416 103.593 48.432 105.705 49.872ZM103.929 56.88L108.153 60.672C105.609 65.712 102.585 71.184 99.6572 75.84L94.8572 72C97.4012 68.352 101.097 62.4 103.929 56.88ZM126.105 69.36H138.249V74.784H107.097V69.36H120.153V59.568H110.457V54.144H120.153V45.696H108.537V40.272H121.305C120.729 38.256 119.289 35.232 117.945 32.928L123.225 31.152C124.665 33.408 126.345 36.528 127.017 38.592L122.361 40.272H137.001V45.696H126.105V54.144H135.273V59.568H126.105V69.36ZM175.785 38.448H163.305C163.833 39.504 164.361 40.8 164.649 41.808H174.441C174.921 40.704 175.449 39.456 175.785 38.448ZM190.377 41.808V46.224H148.857V41.808H158.889C158.649 40.896 158.265 39.936 157.929 39.168L161.529 38.448H151.209V34.032H166.761C166.521 33.264 166.233 32.448 165.945 31.776L171.513 30.768C172.041 31.728 172.521 32.928 172.905 34.032H187.833V38.448H177.993L181.833 39.12C181.257 40.08 180.777 40.992 180.297 41.808H190.377ZM179.529 53.568V51.504H159.657V53.568H179.529ZM179.529 58.992V56.928H159.657V58.992H179.529ZM185.193 47.952V62.592H170.505C172.377 63.6 174.345 64.8 175.545 65.76L172.041 69.264C170.457 67.776 167.193 65.76 164.505 64.512L166.473 62.592H154.281V47.952H185.193ZM152.265 74.976L147.513 72.192C150.009 70.128 152.169 66.912 153.465 64.032L158.217 66.144C156.777 69.168 154.761 72.672 152.265 74.976ZM167.433 71.088H174.057C175.833 71.088 176.121 70.56 176.361 67.2C177.465 67.92 179.721 68.688 181.209 68.976C180.585 74.304 179.049 75.648 174.585 75.648H166.857C160.809 75.648 159.321 74.256 159.321 69.744V64.704H164.889V69.696C164.889 70.944 165.273 71.088 167.433 71.088ZM180.441 65.616L185.049 63.6C187.305 66.144 189.849 69.648 190.905 72.096L185.961 74.304C185.097 71.952 182.697 68.304 180.441 65.616ZM234.681 65.088V62.832H226.041V65.088H234.681ZM226.041 56.4V58.464H234.681V56.4H226.041ZM212.697 46.848H220.233V44.544H212.697V46.848ZM233.817 44.544H226.041V46.848H233.817V44.544ZM245.481 58.464V62.832H240.489V71.184H234.681V69.216H226.041V70.704C226.041 73.536 225.369 74.688 223.497 75.504C221.673 76.224 219.081 76.32 215.001 76.32C214.713 74.976 213.849 73.008 213.129 71.808C215.433 71.904 218.265 71.904 219.033 71.904C219.945 71.856 220.233 71.568 220.233 70.704V69.216H205.641V65.088H220.233V62.832H201.225V58.464H220.233V56.4H206.025V52.56H220.233V50.448H207.225V40.944H220.233V38.976H202.329V34.464H220.233V31.344H226.041V34.464H244.377V38.976H226.041V40.944H239.673V50.448H226.041V52.56H240.489V58.464H245.481ZM272.361 56.496L273.273 61.44C267.465 63.648 261.225 65.904 256.425 67.632L254.073 62.16C255.897 61.632 258.201 60.96 260.697 60.192V41.76H255.369V36.48H271.785V41.76H266.457V58.416L272.361 56.496ZM279.657 59.472V62.544H292.233V59.472H279.657ZM279.657 52.464V55.536H292.233V52.464H279.657ZM279.657 45.6V48.624H292.233V45.6H279.657ZM297.801 66.72H279.609L284.025 69.84C280.857 72.288 275.817 74.784 271.593 76.128C270.825 75.024 269.289 73.296 268.137 72.24C272.025 71.04 276.777 68.688 279.225 66.72H274.377V41.376H281.913C282.153 40.272 282.345 39.12 282.537 38.064H272.409V33.264H299.577V38.064H288.969C288.585 39.216 288.153 40.32 287.769 41.376H297.801V66.72ZM286.617 69.888L290.841 66.864C293.865 68.496 298.185 71.04 300.393 72.864L295.881 76.224C293.913 74.448 289.737 71.712 286.617 69.888Z" fill="white"/>
<path d="M108.489 36.768L113.378 40.2459C115.291 37.5577 114.674 33.8301 111.998 31.9009L108.489 36.768ZM105.177 41.424L101.429 46.1092C102.717 47.14 104.374 47.5947 106.008 47.3662C107.642 47.1378 109.11 46.2465 110.066 44.9019L105.177 41.424ZM96.2492 36.096L91.469 32.4697C90.3944 33.8862 90.0034 35.7065 90.4015 37.4394C90.7996 39.1723 91.9458 40.6394 93.5309 41.4449L96.2492 36.096ZM99.4172 31.92L101.803 26.4147C99.2665 25.3156 96.3076 26.0915 94.637 28.2937L99.4172 31.92ZM105.705 49.872L110.697 53.2002C112.522 50.4633 111.803 46.7676 109.085 44.9146L105.705 49.872ZM102.537 54.624L98.8617 59.3665C100.178 60.3868 101.86 60.8139 103.503 60.5457C105.147 60.2775 106.606 59.338 107.529 57.9522L102.537 54.624ZM93.6092 49.44L88.7119 45.9734C87.6967 47.4076 87.3612 49.2148 87.794 50.9179C88.2268 52.6209 89.3844 54.0486 90.9612 54.8241L93.6092 49.44ZM96.6332 45.168L99.0527 39.6775C96.4427 38.5273 93.3838 39.3735 91.7359 41.7014L96.6332 45.168ZM103.929 56.88L107.937 52.4152C106.553 51.1721 104.67 50.6418 102.84 50.9798C101.01 51.3177 99.4402 52.4855 98.5907 54.1412L103.929 56.88ZM108.153 60.672L113.509 63.3757C114.731 60.956 114.178 58.0179 112.161 56.2072L108.153 60.672ZM99.6572 75.84L95.909 80.5252C97.2439 81.5931 98.9709 82.0409 100.657 81.7562C102.342 81.4715 103.826 80.4812 104.736 79.0341L99.6572 75.84ZM94.8572 72L89.9357 68.5679C88.1278 71.1604 88.641 74.7108 91.109 76.6852L94.8572 72ZM126.105 69.36H120.105C120.105 72.6737 122.791 75.36 126.105 75.36V69.36ZM138.249 69.36H144.249C144.249 66.0463 141.563 63.36 138.249 63.36V69.36ZM138.249 74.784V80.784C141.563 80.784 144.249 78.0977 144.249 74.784H138.249ZM107.097 74.784H101.097C101.097 78.0977 103.783 80.784 107.097 80.784V74.784ZM107.097 69.36V63.36C103.783 63.36 101.097 66.0463 101.097 69.36H107.097ZM120.153 69.36V75.36C123.467 75.36 126.153 72.6737 126.153 69.36H120.153ZM120.153 59.568H126.153C126.153 56.2543 123.467 53.568 120.153 53.568V59.568ZM110.457 59.568H104.457C104.457 62.8817 107.143 65.568 110.457 65.568V59.568ZM110.457 54.144V48.144C107.143 48.144 104.457 50.8303 104.457 54.144H110.457ZM120.153 54.144V60.144C123.467 60.144 126.153 57.4577 126.153 54.144H120.153ZM120.153 45.696H126.153C126.153 42.3823 123.467 39.696 120.153 39.696V45.696ZM108.537 45.696H102.537C102.537 49.0097 105.223 51.696 108.537 51.696V45.696ZM108.537 40.272V34.272C105.223 34.272 102.537 36.9583 102.537 40.272H108.537ZM121.305 40.272V46.272C123.188 46.272 124.961 45.3883 126.095 43.8852C127.229 42.3821 127.592 40.434 127.074 38.6237L121.305 40.272ZM117.945 32.928L116.032 27.2411C114.322 27.8163 112.962 29.1303 112.328 30.8193C111.694 32.5083 111.853 34.3929 112.762 35.9512L117.945 32.928ZM123.225 31.152L128.283 27.9238C126.8 25.6005 123.925 24.5864 121.312 25.4651L123.225 31.152ZM127.017 38.592L129.054 44.2358C132.101 43.1361 133.725 39.8154 132.722 36.7345L127.017 38.592ZM122.361 40.272L120.325 34.6282C117.583 35.6175 115.949 38.4343 116.451 41.3057C116.953 44.177 119.446 46.272 122.361 46.272V40.272ZM137.001 40.272H143.001C143.001 36.9583 140.315 34.272 137.001 34.272V40.272ZM137.001 45.696V51.696C140.315 51.696 143.001 49.0097 143.001 45.696H137.001ZM126.105 45.696V39.696C122.791 39.696 120.105 42.3823 120.105 45.696H126.105ZM126.105 54.144H120.105C120.105 57.4577 122.791 60.144 126.105 60.144V54.144ZM135.273 54.144H141.273C141.273 50.8303 138.587 48.144 135.273 48.144V54.144ZM135.273 59.568V65.568C138.587 65.568 141.273 62.8817 141.273 59.568H135.273ZM126.105 59.568V53.568C122.791 53.568 120.105 56.2543 120.105 59.568H126.105ZM103.6 33.2901L100.288 37.9461L110.066 44.9019L113.378 40.2459L103.6 33.2901ZM108.925 36.7388C106.476 34.7796 101.899 32.237 98.9675 30.7471L93.5309 41.4449C96.4551 42.931 100.038 44.9964 101.429 46.1092L108.925 36.7388ZM101.029 39.7223L104.197 35.5463L94.637 28.2937L91.469 32.4697L101.029 39.7223ZM97.0315 37.4253C99.782 38.6172 103.443 40.5264 104.98 41.6351L111.998 31.9009C109.408 30.0336 104.812 27.7188 101.803 26.4147L97.0315 37.4253ZM100.713 46.5438L97.5449 51.2958L107.529 57.9522L110.697 53.2002L100.713 46.5438ZM106.213 49.8815C103.774 47.9915 99.2165 45.5113 96.2571 44.0559L90.9612 54.8241C93.8579 56.2487 97.4605 58.2805 98.8617 59.3665L106.213 49.8815ZM98.5064 52.9066L101.53 48.6346L91.7359 41.7014L88.7119 45.9734L98.5064 52.9066ZM94.2136 50.6585C97.0247 51.8973 100.708 53.7267 102.325 54.8294L109.085 44.9146C106.478 43.1373 101.906 40.9347 99.0527 39.6775L94.2136 50.6585ZM99.921 61.3448L104.145 65.1368L112.161 56.2072L107.937 52.4152L99.921 61.3448ZM102.797 57.9683C100.317 62.881 97.3845 68.1831 94.578 72.6459L104.736 79.0341C107.786 74.1849 110.901 68.543 113.509 63.3757L102.797 57.9683ZM103.405 71.1548L98.6053 67.3148L91.109 76.6852L95.909 80.5252L103.405 71.1548ZM99.7786 75.4321C102.462 71.5847 106.301 65.4018 109.268 59.6188L98.5907 54.1412C95.8936 59.3982 92.3406 65.1193 89.9357 68.5679L99.7786 75.4321ZM126.105 75.36H138.249V63.36H126.105V75.36ZM132.249 69.36V74.784H144.249V69.36H132.249ZM138.249 68.784H107.097V80.784H138.249V68.784ZM113.097 74.784V69.36H101.097V74.784H113.097ZM107.097 75.36H120.153V63.36H107.097V75.36ZM126.153 69.36V59.568H114.153V69.36H126.153ZM120.153 53.568H110.457V65.568H120.153V53.568ZM116.457 59.568V54.144H104.457V59.568H116.457ZM110.457 60.144H120.153V48.144H110.457V60.144ZM126.153 54.144V45.696H114.153V54.144H126.153ZM120.153 39.696H108.537V51.696H120.153V39.696ZM114.537 45.696V40.272H102.537V45.696H114.537ZM108.537 46.272H121.305V34.272H108.537V46.272ZM127.074 38.6237C126.302 35.9196 124.585 32.4036 123.128 29.9048L112.762 35.9512C113.993 38.0604 115.157 40.5924 115.536 41.9203L127.074 38.6237ZM119.858 38.6149L125.138 36.8389L121.312 25.4651L116.032 27.2411L119.858 38.6149ZM118.168 34.3802C119.517 36.4935 120.875 39.1085 121.312 40.4495L132.722 36.7345C131.815 33.9475 129.814 30.3225 128.283 27.9238L118.168 34.3802ZM124.981 32.9482L120.325 34.6282L124.398 45.9158L129.054 44.2358L124.981 32.9482ZM122.361 46.272H137.001V34.272H122.361V46.272ZM131.001 40.272V45.696H143.001V40.272H131.001ZM137.001 39.696H126.105V51.696H137.001V39.696ZM120.105 45.696V54.144H132.105V45.696H120.105ZM126.105 60.144H135.273V48.144H126.105V60.144ZM129.273 54.144V59.568H141.273V54.144H129.273ZM135.273 53.568H126.105V65.568H135.273V53.568ZM120.105 59.568V69.36H132.105V59.568H120.105ZM175.785 38.448L181.477 40.3454C182.087 38.5157 181.78 36.5043 180.653 34.9397C179.525 33.3751 177.714 32.448 175.785 32.448V38.448ZM163.305 38.448V32.448C161.226 32.448 159.294 33.5247 158.201 35.2936C157.108 37.0625 157.009 39.2713 157.939 41.1313L163.305 38.448ZM164.649 41.808L158.88 43.4563C159.616 46.0321 161.97 47.808 164.649 47.808V41.808ZM174.441 41.808V47.808C176.83 47.808 178.991 46.391 179.944 44.2004L174.441 41.808ZM190.377 41.808H196.377C196.377 38.4943 193.691 35.808 190.377 35.808V41.808ZM190.377 46.224V52.224C193.691 52.224 196.377 49.5377 196.377 46.224H190.377ZM148.857 46.224H142.857C142.857 49.5377 145.543 52.224 148.857 52.224V46.224ZM148.857 41.808V35.808C145.543 35.808 142.857 38.4943 142.857 41.808H148.857ZM158.889 41.808V47.808C160.75 47.808 162.505 46.9448 163.641 45.4712C164.777 43.9976 165.165 42.0804 164.692 40.281L158.889 41.808ZM157.929 39.168L156.752 33.2845C154.972 33.6407 153.448 34.7843 152.609 36.3947C151.769 38.0051 151.704 39.9091 152.432 41.5729L157.929 39.168ZM161.529 38.448L162.706 44.3315C165.731 43.7265 167.804 40.9265 167.5 37.8568C167.196 34.787 164.614 32.448 161.529 32.448V38.448ZM151.209 38.448H145.209C145.209 41.7617 147.895 44.448 151.209 44.448V38.448ZM151.209 34.032V28.032C147.895 28.032 145.209 30.7183 145.209 34.032H151.209ZM166.761 34.032V40.032C168.67 40.032 170.465 39.1238 171.595 37.586C172.726 36.0482 173.057 34.0642 172.488 32.2423L166.761 34.032ZM165.945 31.776L164.876 25.872C163.078 26.1975 161.526 27.3248 160.661 28.9342C159.795 30.5437 159.71 32.4599 160.43 34.1395L165.945 31.776ZM171.513 30.768L176.77 27.8765C175.528 25.6174 172.981 24.4047 170.444 24.864L171.513 30.768ZM172.905 34.032L167.238 36.0031C168.077 38.4153 170.351 40.032 172.905 40.032V34.032ZM187.833 34.032H193.833C193.833 30.7183 191.147 28.032 187.833 28.032V34.032ZM187.833 38.448V44.448C191.147 44.448 193.833 41.7617 193.833 38.448H187.833ZM177.993 38.448V32.448C174.881 32.448 172.285 34.8281 172.016 37.9289C171.746 41.0298 173.893 43.8216 176.959 44.3582L177.993 38.448ZM181.833 39.12L186.978 42.207C187.995 40.5119 188.112 38.4246 187.291 36.6266C186.469 34.8286 184.815 33.5506 182.867 33.2098L181.833 39.12ZM180.297 41.808L175.126 38.7659C174.034 40.621 174.02 42.9186 175.089 44.7869C176.157 46.6552 178.145 47.808 180.297 47.808V41.808ZM179.529 53.568V59.568C182.843 59.568 185.529 56.8817 185.529 53.568H179.529ZM179.529 51.504H185.529C185.529 48.1903 182.843 45.504 179.529 45.504V51.504ZM159.657 51.504V45.504C156.343 45.504 153.657 48.1903 153.657 51.504H159.657ZM159.657 53.568H153.657C153.657 56.8817 156.343 59.568 159.657 59.568V53.568ZM179.529 58.992V64.992C182.843 64.992 185.529 62.3057 185.529 58.992H179.529ZM179.529 56.928H185.529C185.529 53.6143 182.843 50.928 179.529 50.928V56.928ZM159.657 56.928V50.928C156.343 50.928 153.657 53.6143 153.657 56.928H159.657ZM159.657 58.992H153.657C153.657 62.3057 156.343 64.992 159.657 64.992V58.992ZM185.193 47.952H191.193C191.193 44.6383 188.507 41.952 185.193 41.952V47.952ZM185.193 62.592V68.592C188.507 68.592 191.193 65.9057 191.193 62.592H185.193ZM170.505 62.592V56.592C167.756 56.592 165.359 58.4598 164.687 61.1252C164.015 63.7905 165.24 66.5716 167.661 67.8748L170.505 62.592ZM175.545 65.76L179.788 70.0026C180.995 68.7958 181.63 67.1322 181.536 65.4282C181.442 63.7242 180.626 62.1409 179.293 61.0748L175.545 65.76ZM172.041 69.264L167.933 73.6371C170.295 75.8559 173.992 75.7982 176.284 73.5066L172.041 69.264ZM164.505 64.512L160.315 60.2173C158.903 61.5947 158.259 63.578 158.591 65.5223C158.923 67.4666 160.189 69.1234 161.978 69.9541L164.505 64.512ZM166.473 62.592L170.663 66.8867C172.41 65.1826 172.95 62.5904 172.031 60.3302C171.111 58.0699 168.913 56.592 166.473 56.592V62.592ZM154.281 62.592H148.281C148.281 65.9057 150.967 68.592 154.281 68.592V62.592ZM154.281 47.952V41.952C150.967 41.952 148.281 44.6383 148.281 47.952H154.281ZM152.265 74.976L149.232 80.153C151.511 81.4879 154.394 81.1761 156.335 79.3848L152.265 74.976ZM147.513 72.192L143.69 67.5681C142.18 68.8162 141.375 70.7223 141.533 72.6744C141.69 74.6266 142.79 76.379 144.48 77.369L147.513 72.192ZM153.465 64.032L155.902 58.5491C152.884 57.2077 149.349 58.5579 147.994 61.5698L153.465 64.032ZM158.217 66.144L163.634 68.7236C164.33 67.2623 164.406 65.5818 163.845 64.0637C163.284 62.5455 162.133 61.3185 160.654 60.6611L158.217 66.144ZM176.361 67.2L179.639 62.1743C177.859 61.0133 175.597 60.8807 173.693 61.8258C171.79 62.7709 170.528 64.6525 170.376 66.7725L176.361 67.2ZM181.209 68.976L187.168 69.6739C187.534 66.555 185.432 63.682 182.349 63.0853L181.209 68.976ZM159.321 64.704V58.704C156.007 58.704 153.321 61.3903 153.321 64.704H159.321ZM164.889 64.704H170.889C170.889 61.3903 168.203 58.704 164.889 58.704V64.704ZM180.441 65.616L178.036 60.1191C176.304 60.8769 175.03 62.4068 174.599 64.2477C174.168 66.0886 174.63 68.025 175.845 69.4732L180.441 65.616ZM185.049 63.6L189.538 59.6191C187.812 57.6724 185.028 57.0602 182.644 58.1031L185.049 63.6ZM190.905 72.096L193.352 77.5745C196.35 76.2354 197.715 72.7347 196.414 69.7195L190.905 72.096ZM185.961 74.304L180.329 76.3729C180.902 77.9331 182.097 79.1856 183.628 79.8318C185.159 80.4781 186.89 80.4602 188.408 79.7825L185.961 74.304ZM175.785 32.448H163.305V44.448H175.785V32.448ZM157.939 41.1313C158.344 41.9417 158.717 42.8871 158.88 43.4563L170.418 40.1597C170.005 38.7129 169.323 37.0663 168.672 35.7647L157.939 41.1313ZM164.649 47.808H174.441V35.808H164.649V47.808ZM179.944 44.2004C180.416 43.1137 181.046 41.6384 181.477 40.3454L170.093 36.5506C169.852 37.2736 169.426 38.2943 168.939 39.4156L179.944 44.2004ZM184.377 41.808V46.224H196.377V41.808H184.377ZM190.377 40.224H148.857V52.224H190.377V40.224ZM154.857 46.224V41.808H142.857V46.224H154.857ZM148.857 47.808H158.889V35.808H148.857V47.808ZM164.692 40.281C164.333 38.9199 163.804 37.6266 163.426 36.7631L152.432 41.5729C152.726 42.2454 152.965 42.8721 153.087 43.335L164.692 40.281ZM159.106 45.0515L162.706 44.3315L160.352 32.5645L156.752 33.2845L159.106 45.0515ZM161.529 32.448H151.209V44.448H161.529V32.448ZM157.209 38.448V34.032H145.209V38.448H157.209ZM151.209 40.032H166.761V28.032H151.209V40.032ZM172.488 32.2423C172.21 31.3534 171.854 30.3318 171.46 29.4125L160.43 34.1395C160.612 34.5642 160.832 35.1746 161.034 35.8217L172.488 32.2423ZM167.014 37.68L172.582 36.672L170.444 24.864L164.876 25.872L167.014 37.68ZM166.256 33.6595C166.549 34.1917 166.9 35.031 167.238 36.0031L178.572 32.0609C178.142 30.825 177.534 29.2643 176.77 27.8765L166.256 33.6595ZM172.905 40.032H187.833V28.032H172.905V40.032ZM181.833 34.032V38.448H193.833V34.032H181.833ZM187.833 32.448H177.993V44.448H187.833V32.448ZM176.959 44.3582L180.799 45.0302L182.867 33.2098L179.027 32.5378L176.959 44.3582ZM176.688 36.033C176.351 36.5957 176.049 37.1307 175.794 37.5864C175.525 38.067 175.325 38.4274 175.126 38.7659L185.469 44.8501C185.75 44.3726 186.029 43.869 186.264 43.4496C186.513 43.0053 186.74 42.6043 186.978 42.207L176.688 36.033ZM180.297 47.808H190.377V35.808H180.297V47.808ZM185.529 53.568V51.504H173.529V53.568H185.529ZM179.529 45.504H159.657V57.504H179.529V45.504ZM153.657 51.504V53.568H165.657V51.504H153.657ZM159.657 59.568H179.529V47.568H159.657V59.568ZM185.529 58.992V56.928H173.529V58.992H185.529ZM179.529 50.928H159.657V62.928H179.529V50.928ZM153.657 56.928V58.992H165.657V56.928H153.657ZM159.657 64.992H179.529V52.992H159.657V64.992ZM179.193 47.952V62.592H191.193V47.952H179.193ZM185.193 56.592H170.505V68.592H185.193V56.592ZM167.661 67.8748C169.433 68.8293 171.024 69.8265 171.797 70.4452L179.293 61.0748C177.667 59.7735 175.321 58.3707 173.35 57.3092L167.661 67.8748ZM171.303 61.5174L167.799 65.0214L176.284 73.5066L179.788 70.0026L171.303 61.5174ZM176.149 64.8909C173.916 62.7931 170.019 60.4568 167.032 59.0699L161.978 69.9541C164.367 71.0632 166.998 72.7589 167.933 73.6371L176.149 64.8909ZM168.695 68.8067L170.663 66.8867L162.283 58.2973L160.315 60.2173L168.695 68.8067ZM166.473 56.592H154.281V68.592H166.473V56.592ZM160.281 62.592V47.952H148.281V62.592H160.281ZM154.281 53.952H185.193V41.952H154.281V53.952ZM155.298 69.799L150.546 67.015L144.48 77.369L149.232 80.153L155.298 69.799ZM151.337 76.8159C154.728 74.0114 157.379 69.956 158.937 66.4942L147.994 61.5698C146.959 63.868 145.29 66.2446 143.69 67.5681L151.337 76.8159ZM151.028 69.5149L155.78 71.6269L160.654 60.6611L155.902 58.5491L151.028 69.5149ZM152.8 63.5644C151.439 66.4217 149.821 69.0666 148.195 70.5672L156.335 79.3848C159.701 76.2774 162.115 71.9143 163.634 68.7236L152.8 63.5644ZM167.433 77.088H174.057V65.088H167.433V77.088ZM174.057 77.088C174.661 77.088 175.88 77.0656 177.183 76.5918C178.786 76.0091 180.096 74.9127 180.96 73.4412C181.673 72.2261 181.935 70.9941 182.065 70.2279C182.206 69.4004 182.284 68.4913 182.346 67.6275L170.376 66.7725C170.318 67.5887 170.271 68.0056 170.234 68.2221C170.187 68.4999 170.221 68.0299 170.611 67.3668C170.836 66.9823 171.175 66.5414 171.658 66.1377C172.144 65.7326 172.646 65.473 173.082 65.3142C173.824 65.0444 174.341 65.088 174.057 65.088V77.088ZM173.084 72.2257C174.221 72.9672 175.577 73.5258 176.618 73.8987C177.732 74.2975 178.967 74.6533 180.069 74.8667L182.349 63.0853C181.964 63.0107 181.326 62.8385 180.664 62.6013C180.346 62.4876 180.074 62.3768 179.864 62.2811C179.633 62.1758 179.576 62.1333 179.639 62.1743L173.084 72.2257ZM175.25 68.2781C175.118 69.4034 174.969 70.0112 174.866 70.3121C174.775 70.5762 174.804 70.3528 175.132 70.0298C175.292 69.8731 175.465 69.75 175.625 69.6636C175.777 69.5813 175.872 69.5568 175.864 69.5589C175.801 69.5757 175.456 69.648 174.585 69.648V81.648C177.129 81.648 180.742 81.3408 183.542 78.5902C186.154 76.0246 186.84 72.4751 187.168 69.6739L175.25 68.2781ZM174.585 69.648H166.857V81.648H174.585V69.648ZM166.857 69.648C165.524 69.648 164.749 69.5666 164.322 69.48C163.909 69.3961 164.162 69.3736 164.593 69.7222C164.816 69.9019 165.012 70.1218 165.162 70.357C165.307 70.5827 165.368 70.7561 165.386 70.815C165.401 70.8657 165.381 70.8187 165.36 70.6269C165.338 70.4354 165.321 70.1515 165.321 69.744H153.321C153.321 72.2947 153.65 76.3061 157.049 79.0538C159.981 81.4248 163.875 81.648 166.857 81.648V69.648ZM165.321 69.744V64.704H153.321V69.744H165.321ZM159.321 70.704H164.889V58.704H159.321V70.704ZM158.889 64.704V69.696H170.889V64.704H158.889ZM158.889 69.696C158.889 70.169 158.902 71.2929 159.354 72.5173C159.927 74.0696 161.038 75.3728 162.564 76.1733C163.784 76.8134 164.962 76.9613 165.544 77.0179C166.199 77.0815 166.882 77.088 167.433 77.088V65.088C167.191 65.088 167.014 65.0859 166.88 65.082C166.743 65.0779 166.695 65.0732 166.704 65.0741C166.709 65.0745 166.847 65.0872 167.065 65.1388C167.282 65.1905 167.674 65.3029 168.138 65.5467C168.629 65.8039 169.165 66.1894 169.648 66.7425C170.128 67.2939 170.429 67.8683 170.612 68.3627C170.924 69.2091 170.889 69.847 170.889 69.696H158.889ZM182.846 71.1129L187.454 69.0969L182.644 58.1031L178.036 60.1191L182.846 71.1129ZM180.56 67.5809C182.664 69.9538 184.715 72.8945 185.396 74.4725L196.414 69.7195C194.983 66.4015 191.946 62.3342 189.538 59.6191L180.56 67.5809ZM188.458 66.6175L183.514 68.8255L188.408 79.7825L193.352 77.5745L188.458 66.6175ZM191.593 72.2351C190.379 68.9293 187.47 64.6579 185.037 61.7588L175.845 69.4732C177.924 71.9501 179.816 74.9747 180.329 76.3729L191.593 72.2351ZM234.681 65.088V71.088C237.995 71.088 240.681 68.4017 240.681 65.088H234.681ZM234.681 62.832H240.681C240.681 59.5183 237.995 56.832 234.681 56.832V62.832ZM226.041 62.832V56.832C222.727 56.832 220.041 59.5183 220.041 62.832H226.041ZM226.041 65.088H220.041C220.041 68.4017 222.727 71.088 226.041 71.088V65.088ZM226.041 56.4V50.4C222.727 50.4 220.041 53.0863 220.041 56.4H226.041ZM226.041 58.464H220.041C220.041 61.7777 222.727 64.464 226.041 64.464V58.464ZM234.681 58.464V64.464C237.995 64.464 240.681 61.7777 240.681 58.464H234.681ZM234.681 56.4H240.681C240.681 53.0863 237.995 50.4 234.681 50.4V56.4ZM212.697 46.848H206.697C206.697 50.1617 209.383 52.848 212.697 52.848V46.848ZM220.233 46.848V52.848C223.547 52.848 226.233 50.1617 226.233 46.848H220.233ZM220.233 44.544H226.233C226.233 41.2303 223.547 38.544 220.233 38.544V44.544ZM212.697 44.544V38.544C209.383 38.544 206.697 41.2303 206.697 44.544H212.697ZM233.817 44.544H239.817C239.817 41.2303 237.131 38.544 233.817 38.544V44.544ZM226.041 44.544V38.544C222.727 38.544 220.041 41.2303 220.041 44.544H226.041ZM226.041 46.848H220.041C220.041 50.1617 222.727 52.848 226.041 52.848V46.848ZM233.817 46.848V52.848C237.131 52.848 239.817 50.1617 239.817 46.848H233.817ZM245.481 58.464H251.481C251.481 55.1503 248.795 52.464 245.481 52.464V58.464ZM245.481 62.832V68.832C248.795 68.832 251.481 66.1457 251.481 62.832H245.481ZM240.489 62.832V56.832C237.175 56.832 234.489 59.5183 234.489 62.832H240.489ZM240.489 71.184V77.184C243.803 77.184 246.489 74.4977 246.489 71.184H240.489ZM234.681 71.184H228.681C228.681 74.4977 231.367 77.184 234.681 77.184V71.184ZM234.681 69.216H240.681C240.681 65.9023 237.995 63.216 234.681 63.216V69.216ZM226.041 69.216V63.216C222.727 63.216 220.041 65.9023 220.041 69.216H226.041ZM223.497 75.504L225.7 81.0849C225.765 81.0592 225.83 81.0322 225.895 81.0042L223.497 75.504ZM215.001 76.32L209.134 77.5772C209.727 80.3436 212.172 82.32 215.001 82.32V76.32ZM213.129 71.808L213.379 65.8132C211.174 65.7213 209.097 66.8468 207.971 68.7437C206.844 70.6407 206.849 73.003 207.984 74.895L213.129 71.808ZM219.033 71.904V77.904C219.138 77.904 219.243 77.9012 219.349 77.8957L219.033 71.904ZM220.233 69.216H226.233C226.233 65.9023 223.547 63.216 220.233 63.216V69.216ZM205.641 69.216H199.641C199.641 72.5297 202.327 75.216 205.641 75.216V69.216ZM205.641 65.088V59.088C202.327 59.088 199.641 61.7743 199.641 65.088H205.641ZM220.233 65.088V71.088C223.547 71.088 226.233 68.4017 226.233 65.088H220.233ZM220.233 62.832H226.233C226.233 59.5183 223.547 56.832 220.233 56.832V62.832ZM201.225 62.832H195.225C195.225 66.1457 197.911 68.832 201.225 68.832V62.832ZM201.225 58.464V52.464C197.911 52.464 195.225 55.1503 195.225 58.464H201.225ZM220.233 58.464V64.464C223.547 64.464 226.233 61.7777 226.233 58.464H220.233ZM220.233 56.4H226.233C226.233 53.0863 223.547 50.4 220.233 50.4V56.4ZM206.025 56.4H200.025C200.025 59.7137 202.711 62.4 206.025 62.4V56.4ZM206.025 52.56V46.56C202.711 46.56 200.025 49.2463 200.025 52.56H206.025ZM220.233 52.56V58.56C223.547 58.56 226.233 55.8737 226.233 52.56H220.233ZM220.233 50.448H226.233C226.233 47.1343 223.547 44.448 220.233 44.448V50.448ZM207.225 50.448H201.225C201.225 53.7617 203.911 56.448 207.225 56.448V50.448ZM207.225 40.944V34.944C203.911 34.944 201.225 37.6303 201.225 40.944H207.225ZM220.233 40.944V46.944C223.547 46.944 226.233 44.2577 226.233 40.944H220.233ZM220.233 38.976H226.233C226.233 35.6623 223.547 32.976 220.233 32.976V38.976ZM202.329 38.976H196.329C196.329 42.2897 199.015 44.976 202.329 44.976V38.976ZM202.329 34.464V28.464C199.015 28.464 196.329 31.1503 196.329 34.464H202.329ZM220.233 34.464V40.464C223.547 40.464 226.233 37.7777 226.233 34.464H220.233ZM220.233 31.344V25.344C216.919 25.344 214.233 28.0303 214.233 31.344H220.233ZM226.041 31.344H232.041C232.041 28.0303 229.355 25.344 226.041 25.344V31.344ZM226.041 34.464H220.041C220.041 37.7777 222.727 40.464 226.041 40.464V34.464ZM244.377 34.464H250.377C250.377 31.1503 247.691 28.464 244.377 28.464V34.464ZM244.377 38.976V44.976C247.691 44.976 250.377 42.2897 250.377 38.976H244.377ZM226.041 38.976V32.976C222.727 32.976 220.041 35.6623 220.041 38.976H226.041ZM226.041 40.944H220.041C220.041 44.2577 222.727 46.944 226.041 46.944V40.944ZM239.673 40.944H245.673C245.673 37.6303 242.987 34.944 239.673 34.944V40.944ZM239.673 50.448V56.448C242.987 56.448 245.673 53.7617 245.673 50.448H239.673ZM226.041 50.448V44.448C222.727 44.448 220.041 47.1343 220.041 50.448H226.041ZM226.041 52.56H220.041C220.041 55.8737 222.727 58.56 226.041 58.56V52.56ZM240.489 52.56H246.489C246.489 49.2463 243.803 46.56 240.489 46.56V52.56ZM240.489 58.464H234.489C234.489 61.7777 237.175 64.464 240.489 64.464V58.464ZM240.681 65.088V62.832H228.681V65.088H240.681ZM234.681 56.832H226.041V68.832H234.681V56.832ZM220.041 62.832V65.088H232.041V62.832H220.041ZM226.041 71.088H234.681V59.088H226.041V71.088ZM220.041 56.4V58.464H232.041V56.4H220.041ZM226.041 64.464H234.681V52.464H226.041V64.464ZM240.681 58.464V56.4H228.681V58.464H240.681ZM234.681 50.4H226.041V62.4H234.681V50.4ZM212.697 52.848H220.233V40.848H212.697V52.848ZM226.233 46.848V44.544H214.233V46.848H226.233ZM220.233 38.544H212.697V50.544H220.233V38.544ZM206.697 44.544V46.848H218.697V44.544H206.697ZM233.817 38.544H226.041V50.544H233.817V38.544ZM220.041 44.544V46.848H232.041V44.544H220.041ZM226.041 52.848H233.817V40.848H226.041V52.848ZM239.817 46.848V44.544H227.817V46.848H239.817ZM239.481 58.464V62.832H251.481V58.464H239.481ZM245.481 56.832H240.489V68.832H245.481V56.832ZM234.489 62.832V71.184H246.489V62.832H234.489ZM240.489 65.184H234.681V77.184H240.489V65.184ZM240.681 71.184V69.216H228.681V71.184H240.681ZM234.681 63.216H226.041V75.216H234.681V63.216ZM220.041 69.216V70.704H232.041V69.216H220.041ZM220.041 70.704C220.041 71.1967 220.01 71.4243 220 71.484C219.992 71.5275 220.022 71.3226 220.192 71.0078C220.378 70.6638 220.631 70.3719 220.884 70.1647C221.104 69.9849 221.228 69.9477 221.1 70.0038L225.895 81.0042C227.578 80.2704 229.499 79.0275 230.75 76.7122C231.867 74.6453 232.041 72.44 232.041 70.704H220.041ZM221.294 69.9231C220.749 70.1382 219.428 70.32 215.001 70.32V82.32C218.735 82.32 222.597 82.3098 225.7 81.0849L221.294 69.9231ZM220.868 75.0628C220.404 72.8984 219.228 70.3101 218.274 68.721L207.984 74.895C208.471 75.7059 209.022 77.0536 209.134 77.5772L220.868 75.0628ZM212.879 77.8028C215.327 77.9048 218.279 77.904 219.033 77.904V65.904C218.251 65.904 215.54 65.9032 213.379 65.8132L212.879 77.8028ZM219.349 77.8957C220.06 77.8582 222.357 77.7131 224.218 75.8526C226.169 73.9017 226.233 71.5064 226.233 70.704H214.233C214.233 70.6362 214.233 70.222 214.391 69.6509C214.568 69.0111 214.952 68.1483 215.733 67.3674C216.499 66.6011 217.32 66.2417 217.858 66.0777C218.35 65.9283 218.695 65.9135 218.718 65.9123L219.349 77.8957ZM226.233 70.704V69.216H214.233V70.704H226.233ZM220.233 63.216H205.641V75.216H220.233V63.216ZM211.641 69.216V65.088H199.641V69.216H211.641ZM205.641 71.088H220.233V59.088H205.641V71.088ZM226.233 65.088V62.832H214.233V65.088H226.233ZM220.233 56.832H201.225V68.832H220.233V56.832ZM207.225 62.832V58.464H195.225V62.832H207.225ZM201.225 64.464H220.233V52.464H201.225V64.464ZM226.233 58.464V56.4H214.233V58.464H226.233ZM220.233 50.4H206.025V62.4H220.233V50.4ZM212.025 56.4V52.56H200.025V56.4H212.025ZM206.025 58.56H220.233V46.56H206.025V58.56ZM226.233 52.56V50.448H214.233V52.56H226.233ZM220.233 44.448H207.225V56.448H220.233V44.448ZM213.225 50.448V40.944H201.225V50.448H213.225ZM207.225 46.944H220.233V34.944H207.225V46.944ZM226.233 40.944V38.976H214.233V40.944H226.233ZM220.233 32.976H202.329V44.976H220.233V32.976ZM208.329 38.976V34.464H196.329V38.976H208.329ZM202.329 40.464H220.233V28.464H202.329V40.464ZM226.233 34.464V31.344H214.233V34.464H226.233ZM220.233 37.344H226.041V25.344H220.233V37.344ZM220.041 31.344V34.464H232.041V31.344H220.041ZM226.041 40.464H244.377V28.464H226.041V40.464ZM238.377 34.464V38.976H250.377V34.464H238.377ZM244.377 32.976H226.041V44.976H244.377V32.976ZM220.041 38.976V40.944H232.041V38.976H220.041ZM226.041 46.944H239.673V34.944H226.041V46.944ZM233.673 40.944V50.448H245.673V40.944H233.673ZM239.673 44.448H226.041V56.448H239.673V44.448ZM220.041 50.448V52.56H232.041V50.448H220.041ZM226.041 58.56H240.489V46.56H226.041V58.56ZM234.489 52.56V58.464H246.489V52.56H234.489ZM240.489 64.464H245.481V52.464H240.489V64.464ZM272.361 56.496L278.262 55.4076C277.948 53.7073 276.916 52.2249 275.43 51.3405C273.945 50.456 272.15 50.2554 270.506 50.7901L272.361 56.496ZM273.273 61.44L275.405 67.0484C278.114 66.0188 279.699 63.2009 279.174 60.3516L273.273 61.44ZM256.425 67.632L250.913 70.0014C252.166 72.9165 255.472 74.3521 258.457 73.2773L256.425 67.632ZM254.073 62.16L252.405 56.3966C250.752 56.8751 249.384 58.0403 248.649 59.596C247.913 61.1518 247.881 62.9484 248.561 64.5294L254.073 62.16ZM260.697 60.192L262.462 65.9267C264.979 65.152 266.697 62.826 266.697 60.192H260.697ZM260.697 41.76H266.697C266.697 38.4463 264.011 35.76 260.697 35.76V41.76ZM255.369 41.76H249.369C249.369 45.0737 252.055 47.76 255.369 47.76V41.76ZM255.369 36.48V30.48C252.055 30.48 249.369 33.1663 249.369 36.48H255.369ZM271.785 36.48H277.785C277.785 33.1663 275.099 30.48 271.785 30.48V36.48ZM271.785 41.76V47.76C275.099 47.76 277.785 45.0737 277.785 41.76H271.785ZM266.457 41.76V35.76C263.143 35.76 260.457 38.4463 260.457 41.76H266.457ZM266.457 58.416H260.457C260.457 60.3369 261.377 62.1417 262.931 63.2706C264.485 64.3994 266.486 64.7159 268.313 64.1219L266.457 58.416ZM279.657 59.472V53.472C276.343 53.472 273.657 56.1583 273.657 59.472H279.657ZM279.657 62.544H273.657C273.657 65.8577 276.343 68.544 279.657 68.544V62.544ZM292.233 62.544V68.544C295.547 68.544 298.233 65.8577 298.233 62.544H292.233ZM292.233 59.472H298.233C298.233 56.1583 295.547 53.472 292.233 53.472V59.472ZM279.657 52.464V46.464C276.343 46.464 273.657 49.1503 273.657 52.464H279.657ZM279.657 55.536H273.657C273.657 58.8497 276.343 61.536 279.657 61.536V55.536ZM292.233 55.536V61.536C295.547 61.536 298.233 58.8497 298.233 55.536H292.233ZM292.233 52.464H298.233C298.233 49.1503 295.547 46.464 292.233 46.464V52.464ZM279.657 45.6V39.6C276.343 39.6 273.657 42.2863 273.657 45.6H279.657ZM279.657 48.624H273.657C273.657 51.9377 276.343 54.624 279.657 54.624V48.624ZM292.233 48.624V54.624C295.547 54.624 298.233 51.9377 298.233 48.624H292.233ZM292.233 45.6H298.233C298.233 42.2863 295.547 39.6 292.233 39.6V45.6ZM297.801 66.72V72.72C301.115 72.72 303.801 70.0337 303.801 66.72H297.801ZM279.609 66.72V60.72C276.995 60.72 274.682 62.4123 273.891 64.9037C273.099 67.395 274.012 70.112 276.147 71.6203L279.609 66.72ZM284.025 69.84L287.694 74.5877C289.2 73.4239 290.065 71.6145 290.024 69.7116C289.983 67.8087 289.042 66.038 287.487 64.9397L284.025 69.84ZM271.593 76.128L266.668 79.5544C268.17 81.7144 270.905 82.6434 273.412 81.8456L271.593 76.128ZM268.137 72.24L266.368 66.5069C264.313 67.1409 262.755 68.8256 262.283 70.9231C261.812 73.0205 262.498 75.2102 264.083 76.6629L268.137 72.24ZM279.225 66.72L282.984 71.3963C284.968 69.8014 285.73 67.1282 284.885 64.7272C284.039 62.3262 281.771 60.72 279.225 60.72V66.72ZM274.377 66.72H268.377C268.377 70.0337 271.063 72.72 274.377 72.72V66.72ZM274.377 41.376V35.376C271.063 35.376 268.377 38.0623 268.377 41.376H274.377ZM281.913 41.376V47.376C284.736 47.376 287.177 45.4087 287.776 42.6506L281.913 41.376ZM282.537 38.064L288.44 39.1373C288.759 37.3869 288.284 35.5855 287.144 34.2195C286.004 32.8536 284.316 32.064 282.537 32.064V38.064ZM272.409 38.064H266.409C266.409 41.3777 269.095 44.064 272.409 44.064V38.064ZM272.409 33.264V27.264C269.095 27.264 266.409 29.9503 266.409 33.264H272.409ZM299.577 33.264H305.577C305.577 29.9503 302.891 27.264 299.577 27.264V33.264ZM299.577 38.064V44.064C302.891 44.064 305.577 41.3777 305.577 38.064H299.577ZM288.969 38.064V32.064C286.387 32.064 284.094 33.7166 283.277 36.1666L288.969 38.064ZM287.769 41.376L282.13 39.3256C281.462 41.165 281.732 43.215 282.855 44.8182C283.978 46.4213 285.812 47.376 287.769 47.376V41.376ZM297.801 41.376H303.801C303.801 38.0623 301.115 35.376 297.801 35.376V41.376ZM286.617 69.888L283.124 65.0093C281.471 66.193 280.53 68.1335 280.624 70.1648C280.717 72.196 281.834 74.0415 283.589 75.0678L286.617 69.888ZM290.841 66.864L293.691 61.5839C291.674 60.4952 289.212 60.651 287.348 61.9853L290.841 66.864ZM300.393 72.864L303.977 77.6763C305.455 76.5757 306.345 74.8571 306.391 73.0151C306.438 71.173 305.635 69.4118 304.214 68.2382L300.393 72.864ZM295.881 76.224L291.861 80.6784C293.986 82.5958 297.169 82.7456 299.465 81.0363L295.881 76.224ZM266.461 57.5844L267.373 62.5284L279.174 60.3516L278.262 55.4076L266.461 57.5844ZM271.141 55.8316C265.388 58.0188 259.193 60.2588 254.393 61.9867L258.457 73.2773C263.258 71.5492 269.542 69.2772 275.405 67.0484L271.141 55.8316ZM261.938 65.2626L259.586 59.7906L248.561 64.5294L250.913 70.0014L261.938 65.2626ZM255.742 67.9234C257.574 67.3929 259.917 66.7097 262.462 65.9267L258.933 54.4573C256.486 55.2103 254.22 55.8711 252.405 56.3966L255.742 67.9234ZM266.697 60.192V41.76H254.697V60.192H266.697ZM260.697 35.76H255.369V47.76H260.697V35.76ZM261.369 41.76V36.48H249.369V41.76H261.369ZM255.369 42.48H271.785V30.48H255.369V42.48ZM265.785 36.48V41.76H277.785V36.48H265.785ZM271.785 35.76H266.457V47.76H271.785V35.76ZM260.457 41.76V58.416H272.457V41.76H260.457ZM268.313 64.1219L274.217 62.2019L270.506 50.7901L264.602 52.7101L268.313 64.1219ZM273.657 59.472V62.544H285.657V59.472H273.657ZM279.657 68.544H292.233V56.544H279.657V68.544ZM298.233 62.544V59.472H286.233V62.544H298.233ZM292.233 53.472H279.657V65.472H292.233V53.472ZM273.657 52.464V55.536H285.657V52.464H273.657ZM279.657 61.536H292.233V49.536H279.657V61.536ZM298.233 55.536V52.464H286.233V55.536H298.233ZM292.233 46.464H279.657V58.464H292.233V46.464ZM273.657 45.6V48.624H285.657V45.6H273.657ZM279.657 54.624H292.233V42.624H279.657V54.624ZM298.233 48.624V45.6H286.233V48.624H298.233ZM292.233 39.6H279.657V51.6H292.233V39.6ZM297.801 60.72H279.609V72.72H297.801V60.72ZM276.147 71.6203L280.563 74.7403L287.487 64.9397L283.071 61.8197L276.147 71.6203ZM280.356 65.0923C277.848 67.0304 273.469 69.2349 269.774 70.4104L273.412 81.8456C278.166 80.3331 283.866 77.5456 287.694 74.5877L280.356 65.0923ZM276.519 72.7016C275.461 71.1814 273.619 69.1252 272.191 67.8171L264.083 76.6629C264.96 77.4668 266.189 78.8666 266.668 79.5544L276.519 72.7016ZM269.907 77.9731C274.294 76.6192 279.786 73.9672 282.984 71.3963L275.466 62.0437C273.768 63.4088 269.757 65.4608 266.368 66.5069L269.907 77.9731ZM279.225 60.72H274.377V72.72H279.225V60.72ZM280.377 66.72V41.376H268.377V66.72H280.377ZM274.377 47.376H281.913V35.376H274.377V47.376ZM287.776 42.6506C288.045 41.4131 288.27 40.0734 288.44 39.1373L276.634 36.9907C276.42 38.1666 276.261 39.1309 276.05 40.1014L287.776 42.6506ZM282.537 32.064H272.409V44.064H282.537V32.064ZM278.409 38.064V33.264H266.409V38.064H278.409ZM272.409 39.264H299.577V27.264H272.409V39.264ZM293.577 33.264V38.064H305.577V33.264H293.577ZM299.577 32.064H288.969V44.064H299.577V32.064ZM283.277 36.1666C282.925 37.2238 282.583 38.0818 282.13 39.3256L293.408 43.4264C293.724 42.5582 294.246 41.2082 294.661 39.9614L283.277 36.1666ZM287.769 47.376H297.801V35.376H287.769V47.376ZM291.801 41.376V66.72H303.801V41.376H291.801ZM290.11 74.7667L294.334 71.7427L287.348 61.9853L283.124 65.0093L290.11 74.7667ZM287.992 72.1441C291.018 73.7774 294.865 76.0799 296.572 77.4898L304.214 68.2382C301.505 66.0001 296.712 63.2146 293.691 61.5839L287.992 72.1441ZM296.81 68.0517L292.298 71.4117L299.465 81.0363L303.977 77.6763L296.81 68.0517ZM299.901 71.7696C297.444 69.5522 292.809 66.5576 289.645 64.7082L283.589 75.0678C286.665 76.8664 290.383 79.3438 291.861 80.6784L299.901 71.7696Z" fill="#033363" mask="url(#path-3-outside-1_1600_25611)"/>
<circle cx="329.785" cy="51.5" r="4" fill="white"/>
</svg>
