<svg width="62" height="44" viewBox="0 0 62 44" fill="none" xmlns="http://www.w3.org/2000/svg">
<path d="M55.1119 0.668762H6.76813C3.03623 0.668762 0 3.70499 0 7.43689V36.4431C0 40.175 3.03623 43.2113 6.76813 43.2113H55.1119C58.8438 43.2113 61.88 40.175 61.88 36.4431V7.43689C61.88 3.70499 58.8438 0.668762 55.1119 0.668762ZM6.76813 4.53626H55.1119C56.7112 4.53626 58.0125 5.83756 58.0125 7.43689V11.3044H3.8675V7.43689C3.8675 5.83756 5.16879 4.53626 6.76813 4.53626ZM55.1119 39.3438H6.76813C5.16879 39.3438 3.8675 38.0425 3.8675 36.4431V15.1719H58.0125V36.4431C58.0125 38.0425 56.7112 39.3438 55.1119 39.3438Z" fill="#FF9424"/>
</svg>
