<svg width="62" height="62" viewBox="0 0 62 62" fill="none" xmlns="http://www.w3.org/2000/svg">
<path d="M30.94 61.88C13.923 61.88 0 47.957 0 30.94C0 13.923 13.923 0 30.94 0C47.957 0 61.88 13.923 61.88 30.94C61.88 47.957 47.957 61.88 30.94 61.88ZM30.94 6.188C17.3264 6.188 6.188 17.3264 6.188 30.94C6.188 44.5536 17.3264 55.692 30.94 55.692C44.5536 55.692 55.692 44.5536 55.692 30.94C55.692 17.3264 44.5536 6.188 30.94 6.188Z" fill="#FF9424"/>
<path d="M30.94 46.41C29.0836 46.41 27.846 45.1724 27.846 43.316V27.846C27.846 25.9896 29.0836 24.752 30.94 24.752C32.7964 24.752 34.034 25.9896 34.034 27.846V43.316C34.034 45.1724 32.7964 46.41 30.94 46.41Z" fill="#FF9424"/>
<path d="M30.94 21.658C32.6488 21.658 34.034 20.2728 34.034 18.564C34.034 16.8552 32.6488 15.47 30.94 15.47C29.2312 15.47 27.846 16.8552 27.846 18.564C27.846 20.2728 29.2312 21.658 30.94 21.658Z" fill="#FF9424"/>
</svg>
