<svg width="62" height="62" viewBox="0 0 62 62" fill="none" xmlns="http://www.w3.org/2000/svg">
<path fill-rule="evenodd" clip-rule="evenodd" d="M3.27112 44.7872C1.17768 40.6209 0 35.9143 0 30.9375C0 25.9607 1.17768 21.2541 3.27112 17.0878C8.35518 6.95682 18.8409 0 30.9375 0C43.0341 0 53.5198 6.95682 58.6039 17.0878C60.6973 21.2541 61.875 25.9607 61.875 30.9375C61.875 35.9143 60.6973 40.6209 58.6039 44.7872C53.5198 54.9182 43.0341 61.875 30.9375 61.875C18.8409 61.875 8.35518 54.9182 3.27112 44.7872ZM6.15863 20.6807C4.84894 23.8404 4.125 27.3054 4.125 30.9375C4.125 34.5696 4.84894 38.0346 6.15863 41.1943C9.52669 39.8887 13.497 38.841 17.8798 38.1356C17.6529 35.8297 17.5312 33.4187 17.5312 30.9375C17.5312 28.4563 17.6529 26.0453 17.8798 23.7394C13.497 23.034 9.52669 21.9863 6.15863 20.6807ZM53.8333 16.9868C50.4199 11.3994 45.0202 7.15894 38.6203 5.24494C38.907 5.69044 39.1854 6.16276 39.4536 6.66188C41.2129 9.94744 42.6195 14.4354 43.4651 19.6515C47.3179 19.0266 50.8262 18.117 53.8333 16.9868ZM23.2547 5.24494C16.8548 7.15894 11.4551 11.3994 8.04169 16.9868C11.0488 18.1191 14.5571 19.0266 18.4099 19.6515C19.2555 14.4354 20.6621 9.94744 22.4214 6.66188C22.6896 6.16276 22.968 5.69044 23.2547 5.24494ZM55.7164 41.1943C57.0261 38.0346 57.75 34.5696 57.75 30.9375C57.75 27.3054 57.0261 23.8404 55.7164 20.6807C52.3483 21.9863 48.378 23.034 43.9952 23.7394C44.2221 26.0453 44.3438 28.4563 44.3438 30.9375C44.3438 33.4187 44.2221 35.8297 43.9952 38.1356C48.378 38.841 52.3483 39.8887 55.7164 41.1943ZM8.04169 44.8882C11.4551 50.4756 16.8548 54.7161 23.2547 56.6301C22.968 56.1846 22.6896 55.7122 22.4214 55.2131C20.6621 51.9276 19.2555 47.4396 18.4099 42.2235C14.5571 42.8484 11.0488 43.758 8.04169 44.8882ZM38.6203 56.6301C45.0202 54.7161 50.4199 50.4756 53.8333 44.8882C50.8262 43.758 47.3179 42.8484 43.4651 42.2235C42.6195 47.4396 41.2129 51.9276 39.4536 55.2131C39.1854 55.7122 38.907 56.1846 38.6203 56.6301ZM30.9375 4.125C30.1434 4.125 29.4009 4.50243 28.6873 5.10881C27.7303 5.92143 26.8558 7.11976 26.0576 8.61094C24.4819 11.5521 23.2444 15.5513 22.4895 20.1939C25.1914 20.4765 28.0211 20.625 30.9375 20.625C33.8539 20.625 36.6836 20.4744 39.3855 20.1939C38.6306 15.5513 37.3931 11.5521 35.8174 8.61094C35.0192 7.11976 34.1447 5.92143 33.1877 5.10881C32.4741 4.50243 31.7316 4.125 30.9375 4.125ZM30.9375 57.75C31.7316 57.75 32.4741 57.3726 33.1877 56.7662C34.1447 55.9536 35.0192 54.7552 35.8174 53.2641C37.3931 50.3229 38.6306 46.3237 39.3855 41.6811C36.6836 41.4006 33.8539 41.25 30.9375 41.25C28.0211 41.25 25.1914 41.4006 22.4895 41.6811C23.2444 46.3237 24.4819 50.3229 26.0576 53.2641C26.8558 54.7552 27.7303 55.9536 28.6873 56.7662C29.4009 57.3726 30.1434 57.75 30.9375 57.75ZM39.9094 37.5932C40.1115 35.4606 40.2188 33.231 40.2188 30.9375C40.2188 28.644 40.1115 26.4144 39.9094 24.2818C37.0404 24.5871 34.0333 24.75 30.9375 24.75C27.8417 24.75 24.8346 24.5871 21.9656 24.2818C21.7635 26.4144 21.6562 28.644 21.6562 30.9375C21.6562 33.231 21.7635 35.4606 21.9656 37.5932C24.8346 37.2879 27.8417 37.125 30.9375 37.125C34.0333 37.125 37.0404 37.2879 39.9094 37.5932Z" fill="#FF9424"/>
</svg>
